<svg xmlns="http://www.w3.org/2000/svg" width="69" height="84" viewBox="0 0 69 84">
    <defs>
        <linearGradient id="a" x1="100%" x2="9.934%" y1="85.932%" y2="100%">
            <stop offset="0%" stop-color="#FFF"/>
            <stop offset="100%"/>
        </linearGradient>
        <linearGradient id="b" x1="100%" x2="14.585%" y1="70.735%" y2="100%">
            <stop offset="0%" stop-color="#FFF"/>
            <stop offset="100%"/>
        </linearGradient>
    </defs>
    <g fill="none" fill-rule="nonzero">
        <g stroke="#2C2F33" stroke-width="2">
            <path fill="#E0E0E0" d="M68 56.675v-3.697c0-.775-.342-1.52-.952-2.013-3.334-2.742-6.92-4.56-7.664-4.919a.231.231 0 0 1-.134-.223V40.62a2.422 2.422 0 0 0 1.086-2.027v-5.396a4.856 4.856 0 0 0-4.851-4.86h-1.16a4.856 4.856 0 0 0-4.852 4.86v5.396c0 .85.431 1.58 1.086 2.027v5.203c0 .09-.044.179-.134.223-.729.358-4.33 2.177-7.664 4.92a2.63 2.63 0 0 0-.952 2.012v3.697"/>
            <path fill="#FFF" d="M27.19 56.675v-3.697c0-.775-.341-1.52-.951-2.013-3.334-2.742-6.92-4.56-7.664-4.919a.231.231 0 0 1-.134-.223V40.62a2.422 2.422 0 0 0 1.086-2.027v-5.396a4.856 4.856 0 0 0-4.851-4.86h-1.16a4.856 4.856 0 0 0-4.852 4.86v5.396c0 .85.431 1.58 1.086 2.027v5.203c0 .09-.044.179-.134.223-.729.358-4.33 2.177-7.664 4.92A2.63 2.63 0 0 0 1 52.977v3.697"/>
        </g>
        <path fill="url(#a)" d="M7.028 23.148c.015.01.031.017.047.026l.06.032c.02.008.042.013.064.019.017.005.035.012.053.015a.582.582 0 0 0 .247 0c.018-.003.036-.01.054-.015.02-.006.042-.011.063-.02.02-.009.04-.02.06-.031.016-.009.032-.016.047-.026a.625.625 0 0 0 .096-.077l6.398-6.35a.62.62 0 0 0 0-.881.632.632 0 0 0-.889 0l-5.267 5.228C8.87 10.004 18.197 1.247 29.548 1.247c10.418 0 19.33 7.37 21.194 17.527a.627.627 0 0 0 .73.5.623.623 0 0 0 .506-.724C50.007 7.801 40.573 0 29.548 0 17.468 0 7.555 9.372 6.795 21.173l-5.374-5.334a.632.632 0 0 0-.888 0 .62.62 0 0 0 0 .882L6.93 23.07c.031.03.064.055.098.078z" transform="translate(5.06)"/>
        <path fill="url(#b)" d="M7.028 23.148c.015.01.031.017.047.026l.06.032c.02.008.042.013.064.019.017.005.035.012.053.015a.582.582 0 0 0 .247 0c.018-.003.036-.01.054-.015.02-.006.042-.011.063-.02.02-.009.04-.02.06-.031.016-.009.032-.016.047-.026a.625.625 0 0 0 .096-.077l6.398-6.35a.62.62 0 0 0 0-.881.632.632 0 0 0-.889 0l-5.267 5.228C8.87 10.004 18.197 1.247 29.548 1.247c10.418 0 19.33 7.37 21.194 17.527a.627.627 0 0 0 .73.5.623.623 0 0 0 .506-.724C50.007 7.801 40.573 0 29.548 0 17.468 0 7.555 9.372 6.795 21.173l-5.374-5.334a.632.632 0 0 0-.888 0 .62.62 0 0 0 0 .882L6.93 23.07c.031.03.064.055.098.078z" transform="rotate(180 31.97 42)"/>
    </g>
</svg>
