<svg xmlns="http://www.w3.org/2000/svg" width="20" height="20" viewBox="0 0 20 20">
    <g fill="#C99700" fill-rule="nonzero" stroke="#FFF" stroke-width=".5">
        <path d="M10.402 5.88a.784.784 0 0 0-.783.785v4.713c0 .434.35.785.783.785h3.918a.784.784 0 0 0 0-1.57h-3.134V6.665a.784.784 0 0 0-.784-.785z"/>
        <path d="M10.402.952a9.368 9.368 0 0 0-7.051 3.195V2.523a.784.784 0 1 0-1.567 0v3.928c0 .433.35.785.783.785h3.918a.784.784 0 0 0 0-1.57H4.144a7.823 7.823 0 0 1 9.904-2.246 7.863 7.863 0 0 1 3.797 9.442 7.833 7.833 0 0 1-8.688 5.27 7.849 7.849 0 0 1-6.58-7.754.784.784 0 1 0-1.567 0 9.426 9.426 0 0 0 5.806 8.71 9.385 9.385 0 0 0 10.248-2.049 9.443 9.443 0 0 0 2.031-10.275A9.402 9.402 0 0 0 10.402.952z"/>
    </g>
</svg>
