<svg xmlns="http://www.w3.org/2000/svg" width="27" height="27" viewBox="0 0 27 27">
    <g fill="#C99700" fill-rule="nonzero">
        <path d="M4.03 19.374l.764-.763 3.055 3.055-.763.763zM9.18 15.12a2.703 2.703 0 0 0-2.7 2.7c0 1.489 1.21 2.7 2.7 2.7 1.49 0 2.7-1.211 2.7-2.7s-1.211-2.7-2.7-2.7zm0 4.5c-.993 0-1.8-.807-1.8-1.8s.807-1.8 1.8-1.8 1.8.807 1.8 1.8-.807 1.8-1.8 1.8z"/>
        <path d="M26.876 3.499L23.503.124a.421.421 0 0 0-.597 0l-.967.967-.967-.967-.596.596.966.968L19.83 3.2l-.967-.967-.597.597.967.967-.967.967a.422.422 0 0 0 0 .597l.546.545-4.57 4.571a5.034 5.034 0 0 0-1.968-.527h-.046L3.769.703A2.148 2.148 0 0 0 2.212 0a2.132 2.132 0 0 0-1.58.645 2.172 2.172 0 0 0 .01 3.051l7.748 7.75c-.27.274-.51.576-.709.9-.701 1.14-1.694 1.909-2.794 2.163a6.282 6.282 0 0 0-3.413 2.097c-2.023 2.404-1.956 5.975.155 8.307A6.278 6.278 0 0 0 6.33 27c1.688 0 3.27-.655 4.468-1.854a6.292 6.292 0 0 0 1.677-3 4.319 4.319 0 0 1 2.035-2.752c.38-.217.722-.486 1.033-.793l5.424 5.426c-.324.866-.22 1.693.295 2.207.32.32.753.486 1.253.486.159 0 .325-.017.495-.051.644-.129 1.294-.495 1.83-1.032 1.17-1.17 1.433-2.743.597-3.58-.5-.499-1.304-.611-2.149-.315l-6.238-6.559a5.08 5.08 0 0 0-.523-2.422l4.57-4.57.545.545c.039.04.086.07.137.092.048.02.087.036.133.036.157 0 .394-.195 1.298-1.09l.962.962.597-.596-.961-.961.758-.76.752-.756.963.964.596-.597-.964-.965.965-.97a.422.422 0 0 0 0-.596zM1.24 3.1a1.327 1.327 0 0 1-.007-1.863c.256-.26.593-.4.965-.394.365.007.703.159.95.428l7.997 8.743c-.76.129-1.48.434-2.108.886L1.24 3.1zm14.226 14.297c-.37.528-.832.954-1.375 1.265a5.165 5.165 0 0 0-2.436 3.288 5.46 5.46 0 0 1-1.453 2.6 5.426 5.426 0 0 1-4.013 1.604 5.441 5.441 0 0 1-3.933-1.807c-1.83-2.02-1.888-5.115-.135-7.197a5.445 5.445 0 0 1 2.958-1.818C6.4 15.027 7.58 14.124 8.4 12.79a4.216 4.216 0 0 1 3.827-1.997 4.185 4.185 0 0 1 3.072 1.595 4.213 4.213 0 0 1 .887 3.07l-.02.02.017.019a4.142 4.142 0 0 1-.718 1.9zm1.432-1.15l5.977 6.283c.124.13.318.168.48.093.616-.281 1.184-.27 1.485.03.485.485.212 1.579-.597 2.387-.42.42-.916.704-1.399.8-.242.05-.695.087-.986-.204-.309-.308-.313-.893-.011-1.526a.422.422 0 0 0-.083-.48l-5.669-5.67c.02-.027.043-.052.062-.08a4.937 4.937 0 0 0 .741-1.633zm-.823-4.228c-.039-.053-.075-.107-.116-.159a5.1 5.1 0 0 0-.977-.929l4.427-4.429 1.09 1.09-4.424 4.427zm5.87-4.173l-.55-.551-1.688-1.687-.545-.546 4.043-4.044 2.778 2.78c-1.443 1.45-3.33 3.346-4.039 4.048z"/>
        <path d="M11.88 0a3.244 3.244 0 0 0-3.24 3.24 3.244 3.244 0 0 0 3.24 3.24 3.244 3.244 0 0 0 3.24-3.24A3.244 3.244 0 0 0 11.88 0zm0 5.67c-.364 0-.708-.083-1.018-.226.4-.753.613-1.59.613-2.45v-.159a.405.405 0 0 1 .81 0v.16c0 .86.213 1.696.613 2.449-.31.144-.654.226-1.018.226zm1.69-.688a4.403 4.403 0 0 1-.475-1.987v-.16c0-.67-.545-1.215-1.215-1.215s-1.215.545-1.215 1.215v.16c0 .695-.165 1.372-.475 1.987a2.419 2.419 0 0 1-.74-1.742c0-1.34 1.09-2.43 2.43-2.43s2.43 1.09 2.43 2.43c0 .683-.284 1.3-.74 1.742z"/>
    </g>
</svg>
