<svg xmlns="http://www.w3.org/2000/svg" width="28" height="25" viewBox="0 0 28 25">
    <path fill="#C99700" fill-rule="nonzero" d="M27.441 6.369l-5.7-5.8c-.36-.367-.84-.569-1.35-.569-.51 0-.99.202-1.351.57L17.7 1.931c-.206.21-.352.457-.445.719l-6.267-1.142C8.168.94 5.417 2.804 4.85 5.672L4.56 7.13c-.319 1.612.71 3.186 2.293 3.511 1.584.325 3.132-.722 3.45-2.333l.178-.892 2.81.25 7.339 7.468 1.33 1.353c.27.274.27.72 0 .994a.683.683 0 0 1-.977 0l-3.563-3.625a.628.628 0 0 0-.898 0 .655.655 0 0 0 0 .914l3.562 3.626c.131.133.203.31.203.497a.704.704 0 0 1-.203.497.683.683 0 0 1-.976 0l-3.563-3.626a.628.628 0 0 0-.9 0 .655.655 0 0 0 0 .915l3.564 3.625c.27.274.27.72 0 .994a.68.68 0 0 1-.977 0l-3.563-3.625a.628.628 0 0 0-.899 0 .655.655 0 0 0 0 .914l3.563 3.626c.27.274.27.72 0 .994a.683.683 0 0 1-.977 0L2.75 10.38 1.085 8.686a.628.628 0 0 0-.899 0 .655.655 0 0 0 0 .914l1.665 1.694 1.812 1.843-.999 1.017a1.766 1.766 0 0 0-.507 1.245c0 .471.18.913.507 1.246l.326.332c.286.29.654.467 1.051.507.04.404.213.779.499 1.07l.326.331a1.71 1.71 0 0 0 1.05.506c.04.405.213.78.5 1.071l.325.332c.286.29.654.467 1.052.507.039.404.212.779.498 1.07l.326.331a1.71 1.71 0 0 0 2.449 0l.998-1.016 2.394 2.435c.37.377.863.585 1.387.585s1.016-.208 1.387-.585c.351-.357.55-.826.57-1.328a1.93 1.93 0 0 0 1.306-.58c.362-.368.55-.846.57-1.329.474-.02.944-.212 1.305-.58.362-.368.55-.845.57-1.328.475-.02.944-.212 1.306-.58a2.023 2.023 0 0 0 0-2.823l-.88-.896 3.222-3.28 2.24-2.28a1.97 1.97 0 0 0 0-2.748zM3.563 15.73a.475.475 0 0 1 0-.663l.936-.953.977.994-.936.953a.455.455 0 0 1-.651 0l-.326-.331zm1.875 1.908a.475.475 0 0 1 0-.662l.937-.953.977.994-.936.953a.455.455 0 0 1-.652 0l-.326-.332zm1.876 1.909a.47.47 0 0 1-.135-.332.47.47 0 0 1 .135-.33l.937-.954.976.994-.936.953a.455.455 0 0 1-.651 0l-.326-.331zm2.853 2.24a.455.455 0 0 1-.651 0l-.326-.332a.475.475 0 0 1 0-.662l.936-.953.977.994-.936.953zm10.912-8.026l-7.053-7.177a.63.63 0 0 0-.394-.187l-3.607-.32a.639.639 0 0 0-.678.516l-.29 1.459c-.18.912-1.056 1.504-1.952 1.32a1.647 1.647 0 0 1-1.054-.72 1.7 1.7 0 0 1-.244-1.267l.289-1.459c.43-2.173 2.518-3.586 4.655-3.147l.014.002 6.175 1.125.76.774 6.152 6.26-2.773 2.821zm5.464-5.559l-1.792 1.823-6.152-6.26a.652.652 0 0 1-.187-.46c0-.173.066-.337.187-.46l1.34-1.362a.63.63 0 0 1 .904 0l5.7 5.8c.12.122.187.285.187.46a.652.652 0 0 1-.187.46z"/>
</svg>
