<?xml version="1.0" encoding="UTF-8"?>
<svg width="20px" height="20px" viewBox="0 0 20 20" version="1.1" xmlns="http://www.w3.org/2000/svg" xmlns:xlink="http://www.w3.org/1999/xlink">
    <!-- Generator: sketchtool 51.1 (57501) - http://www.bohemiancoding.com/sketch -->
    <title>88AA0D43-D930-428E-8A5E-CA7D6BD13E2C</title>
    <desc>Created with sketchtool.</desc>
    <defs></defs>
    <g id="Page-1" stroke="none" stroke-width="1" fill="none" fill-rule="evenodd">
        <g id="Icon-Lib" transform="translate(-484.000000, -512.000000)" fill="#C99700" fill-rule="nonzero">
            <g id="Supporting-icons" transform="translate(21.000000, 400.000000)">
                <g id="Calendar" transform="translate(463.000000, 112.000000)">
                    <g id="calendar-(5)">
                        <path d="M17.65625,1.5625 L16.71875,1.5625 L16.71875,0 L15.15625,0 L15.15625,1.5625 L4.84375,1.5625 L4.84375,0 L3.28125,0 L3.28125,1.5625 L2.34375,1.5625 C1.05140625,1.5625 0,2.61390625 0,3.90625 L0,17.65625 C0,18.9485937 1.05140625,20 2.34375,20 L17.65625,20 C18.9485937,20 20,18.9485937 20,17.65625 L20,3.90625 C20,2.61390625 18.9485937,1.5625 17.65625,1.5625 Z M18.4375,17.65625 C18.4375,18.0870313 18.0870313,18.4375 17.65625,18.4375 L2.34375,18.4375 C1.91296875,18.4375 1.5625,18.0870313 1.5625,17.65625 L1.5625,7.34375 L18.4375,7.34375 L18.4375,17.65625 Z M18.4375,5.78125 L1.5625,5.78125 L1.5625,3.90625 C1.5625,3.47546875 1.91296875,3.125 2.34375,3.125 L3.28125,3.125 L3.28125,4.6875 L4.84375,4.6875 L4.84375,3.125 L15.15625,3.125 L15.15625,4.6875 L16.71875,4.6875 L16.71875,3.125 L17.65625,3.125 C18.0870313,3.125 18.4375,3.47546875 18.4375,3.90625 L18.4375,5.78125 Z" id="Shape"></path>
                        <rect id="Rectangle-path" x="3.04347826" y="9.13043478" width="1.73913043" height="1.73913043"></rect>
                        <rect id="Rectangle-path" x="6.08695652" y="9.13043478" width="1.73913043" height="1.73913043"></rect>
                        <rect id="Rectangle-path" x="9.13043478" y="9.13043478" width="1.73913043" height="1.73913043"></rect>
                        <rect id="Rectangle-path" x="12.173913" y="9.13043478" width="1.73913043" height="1.73913043"></rect>
                        <rect id="Rectangle-path" x="15.6521739" y="9.13043478" width="1.73913043" height="1.73913043"></rect>
                        <rect id="Rectangle-path" x="3.04347826" y="12.173913" width="1.73913043" height="1.73913043"></rect>
                        <rect id="Rectangle-path" x="6.08695652" y="12.173913" width="1.73913043" height="1.73913043"></rect>
                        <rect id="Rectangle-path" x="9.13043478" y="12.173913" width="1.73913043" height="1.73913043"></rect>
                        <rect id="Rectangle-path" x="12.173913" y="12.173913" width="1.73913043" height="1.73913043"></rect>
                        <rect id="Rectangle-path" x="3.04347826" y="15.2173913" width="1.73913043" height="1.73913043"></rect>
                        <rect id="Rectangle-path" x="6.08695652" y="15.2173913" width="1.73913043" height="1.73913043"></rect>
                        <rect id="Rectangle-path" x="9.13043478" y="15.2173913" width="1.73913043" height="1.73913043"></rect>
                        <rect id="Rectangle-path" x="12.173913" y="15.2173913" width="1.73913043" height="1.73913043"></rect>
                        <rect id="Rectangle-path" x="15.6521739" y="12.173913" width="1.73913043" height="1.73913043"></rect>
                    </g>
                </g>
            </g>
        </g>
    </g>
</svg>