<?xml version="1.0" encoding="UTF-8"?>
<svg width="20px" height="20px" viewBox="0 0 20 20" version="1.1" xmlns="http://www.w3.org/2000/svg" xmlns:xlink="http://www.w3.org/1999/xlink">
    <!-- Generator: sketchtool 51.1 (57501) - http://www.bohemiancoding.com/sketch -->
    <title>0A86FBC5-961C-48EE-BE31-75F20E4D20D0</title>
    <desc>Created with sketchtool.</desc>
    <defs></defs>
    <g id="Page-1" stroke="none" stroke-width="1" fill="none" fill-rule="evenodd">
        <g id="Icon-Lib" transform="translate(-103.000000, -572.000000)" fill="#000000" fill-rule="nonzero">
            <g id="Supporting-icons" transform="translate(21.000000, 400.000000)">
                <g id="help" transform="translate(82.000000, 172.000000)">
                    <g id="Group-17">
                        <path d="M14.6713793,1.1119683 C13.2376847,0.385718569 11.6407882,0.00409937888 10.0184729,-5.85314537e-16 C4.49669951,-0.00094238595 0.0196059113,4.27994003 0.0186206897,9.56163632 C0.0181280788,12.0546712 1.03551724,14.4493682 2.85389163,16.2354251 L2.43615764,19.0776612 C2.39970443,19.2829128 2.54403941,19.4775626 2.75862069,19.5124309 C2.85768473,19.5285457 2.95940887,19.5078604 3.04305419,19.4546155 L5.31300493,18.0146498 C10.1927094,20.4865282 16.2434483,18.7065496 18.8276847,14.0390062 C21.4119212,9.37146284 19.5510837,3.58379953 14.6713793,1.1119683 Z M16.5719212,15.7526879 C14.8422167,17.4304648 12.4819212,18.3754423 10.0184729,18.376526 C8.43251232,18.3785993 6.87285714,17.9891112 5.49039409,17.2456629 C5.36847291,17.1783294 5.2182266,17.1783294 5.09630542,17.2456629 L3.31896552,18.3501392 L3.66182266,16.1600343 C3.67881773,16.0419533 3.6364532,15.9231184 3.54753695,15.839623 C-0.074137931,12.4234269 -0.114827586,6.84572714 3.45665025,3.38151638 C7.02812808,-0.0826943671 12.8593596,-0.121614907 16.4810345,3.29458128 C20.1027094,6.71077747 20.143399,12.2884772 16.5719212,15.7526879 Z" id="Shape"></path>
                        <path d="M12.276601,12.948383 L11.9495074,12.948383 L11.9495074,7.37699722 C11.9495074,7.16882416 11.7730542,7.00004284 11.5554187,7.00004284 L8.1544335,7.00004284 C7.93679803,7.00004284 7.76034483,7.16882416 7.76034483,7.37699722 L7.76034483,8.73403298 C7.76034483,8.94220604 7.93679803,9.11098736 8.1544335,9.11098736 L8.48546798,9.11098736 L8.48546798,12.948383 L8.1544335,12.948383 C7.93679803,12.948383 7.76034483,13.1171643 7.76034483,13.3253373 L7.76034483,14.6823731 C7.76034483,14.8905462 7.93679803,15.0593275 8.1544335,15.0593275 L12.276601,15.0593275 C12.4942365,15.0593275 12.6706897,14.8905462 12.6706897,14.6823731 L12.6706897,13.3253373 C12.6706897,13.1171643 12.4942365,12.948383 12.276601,12.948383 Z M8.54852217,14.3054187 L8.54852217,13.7022917 L8.87955665,13.7022917 C9.09719212,13.7022917 9.27364532,13.5335104 9.27364532,13.3253373 L9.27364532,8.73403298 C9.27364532,8.52585993 9.09719212,8.3570786 8.87955665,8.3570786 L8.54852217,8.3570786 L8.54852217,7.7539516 L11.1573892,7.7539516 L11.1573892,13.3253373 C11.1573892,13.5335104 11.3338424,13.7022917 11.5514778,13.7022917 L11.8785714,13.7022917 L11.8825123,14.3054187 L8.54852217,14.3054187 Z" id="Shape"></path>
                        <path d="M10.0184729,3.31719854 C9.10650246,3.31719854 8.36724138,4.02431784 8.36724138,4.8966374 C8.36724138,5.76895695 9.10650246,6.47607625 10.0184729,6.47607625 C10.9304433,6.47607625 11.6697044,5.76895695 11.6697044,4.8966374 C11.6697044,4.02431784 10.9303941,3.31719854 10.0184729,3.31719854 Z M10.0184729,5.72593703 C9.54182266,5.72593703 9.15541872,5.35633326 9.15541872,4.90040694 C9.15325123,4.44448062 9.53788177,4.07318055 10.014532,4.0711073 C10.0158621,4.0711073 10.0171429,4.0711073 10.0184729,4.0711073 L10.0184729,4.07487685 C10.4951232,4.07487685 10.8815271,4.44448062 10.8815271,4.90040694 C10.8815271,5.35633326 10.4951232,5.72593703 10.0184729,5.72593703 Z" id="Shape"></path>
                    </g>
                </g>
            </g>
        </g>
    </g>
</svg>