<?xml version="1.0" encoding="UTF-8"?>
<svg width="31px" height="18px" viewBox="0 0 31 18" version="1.1" xmlns="http://www.w3.org/2000/svg" xmlns:xlink="http://www.w3.org/1999/xlink">
    <!-- Generator: sketchtool 51.1 (57501) - http://www.bohemiancoding.com/sketch -->
    <title>F544CBB5-DDD4-4457-977C-B777BD2DFDDA</title>
    <desc>Created with sketchtool.</desc>
    <defs></defs>
    <g id="Page-1" stroke="none" stroke-width="1" fill="none" fill-rule="evenodd">
        <g id="Icon-Lib" transform="translate(-98.000000, -324.000000)" fill="#C99700" stroke="#C99700" stroke-width="0.75">
            <g id="Product-Icons" transform="translate(31.000000, 263.000000)">
                <g id="Luxury-Stay" transform="translate(67.000000, 61.000000)">
                    <g id="Group-2" transform="translate(1.000000, 1.000000)">
                        <path d="M0,0 L0,11.9900521 L28.7676979,11.9900521 L28.7676979,6.94458333 L0.257375,7.12541667 L0.257375,0 L0,0 Z M0.257375,7.43786458 L28.5100208,7.258125 L28.5100208,11.6794271 L0.257375,11.6794271 L0.257375,7.43786458 Z" id="Fill-1"></path>
                        <polygon id="Fill-2" points="0 13.6818281 0 15.6571406 0.257375 15.6571406 0.257375 13.9924531 28.5100208 13.9924531 28.5100208 15.8397969 28.7676979 15.8397969 28.7676979 13.6818281"></polygon>
                        <path d="M9.30730833,7.28255208 L9.04993333,7.28255208 C9.04993333,4.73776042 7.29211042,4.70713542 7.21779792,4.70713542 L0.12850625,4.70713542 L0.12850625,4.39651042 L7.21779792,4.39651042 C7.23924583,4.39651042 9.30730833,4.42859375 9.30730833,7.28255208" id="Fill-3"></path>
                    </g>
                </g>
            </g>
        </g>
    </g>
</svg>