<svg xmlns="http://www.w3.org/2000/svg" width="22" height="22" viewBox="0 0 22 22">
    <g fill="none" fill-rule="evenodd">
        <rect width="21" height="21" x=".5" y=".5" stroke="#C99700" rx="4"/>
        <path fill="#C99700" d="M8.134 8.482h3.388c-.07-.518-.266-.924-.602-1.232-.42-.364-.994-.546-1.722-.546H7.91l.238-.7h6.37l-.238.7h-2.52c.532.448.84 1.036.91 1.778h1.82l-.238.7h-1.596a2.209 2.209 0 0 1-.7 1.386c-.476.434-1.078.714-1.834.84.168.112.406.378.742.826L13.776 16h-1.554l-2.52-3.388c-.266-.364-.518-.616-.742-.77a1.738 1.738 0 0 0-.966-.28v-.798h.756c.924 0 1.624-.182 2.1-.532.364-.266.574-.616.658-1.05H7.896l.238-.7z"/>
    </g>
</svg>
