<svg xmlns="http://www.w3.org/2000/svg" width="79" height="62" viewBox="0 0 79 62">
    <g fill="none" fill-rule="evenodd">
        <g fill="#000" fill-rule="nonzero">
            <path d="M45.87 23.456c7.639 0 13.393-2.97 13.393-6.912 0-3.943-5.754-6.912-13.393-6.912-7.639 0-13.393 2.97-13.393 6.912 0 3.943 5.754 6.912 13.393 6.912zm0-10.855c6.37 0 10.436 2.341 10.436 3.955 0 1.614-4.066 3.955-10.436 3.955s-10.436-2.34-10.436-3.955c0-1.614 4.066-3.955 10.436-3.955zM58.141 23.592a1.479 1.479 0 0 0-1.897.874c-.628 1.713-4.768 3.561-10.362 3.561-5.445 0-9.524-1.75-10.312-3.437a1.487 1.487 0 0 0-1.971-.715 1.487 1.487 0 0 0-.715 1.971c1.441 3.08 6.665 5.138 12.998 5.138 3.019 0 5.951-.493 8.28-1.405 2.562-.998 4.25-2.414 4.866-4.102a1.487 1.487 0 0 0-.887-1.885zM58.141 31.132a1.479 1.479 0 0 0-1.897.875c-.628 1.712-4.768 3.56-10.362 3.56-5.445 0-9.524-1.75-10.312-3.437a1.487 1.487 0 0 0-1.971-.715 1.487 1.487 0 0 0-.715 1.972c1.441 3.08 6.665 5.137 12.998 5.137 3.019 0 5.951-.493 8.28-1.404 2.562-.998 4.25-2.415 4.866-4.103a1.487 1.487 0 0 0-.887-1.885zM58.141 38.66a1.479 1.479 0 0 0-1.897.875c-.628 1.712-4.768 3.56-10.362 3.56-5.445 0-9.524-1.75-10.312-3.437a1.487 1.487 0 0 0-1.971-.715 1.487 1.487 0 0 0-.715 1.971c1.441 3.08 6.665 5.138 12.998 5.138 3.019 0 5.951-.493 8.28-1.404 2.562-.998 4.25-2.415 4.866-4.103a1.487 1.487 0 0 0-.887-1.885zM58.141 46.2a1.479 1.479 0 0 0-1.897.875c-.628 1.712-4.768 3.56-10.362 3.56-5.445 0-9.524-1.75-10.312-3.437a1.487 1.487 0 0 0-1.971-.715 1.487 1.487 0 0 0-.715 1.972c1.441 3.08 6.665 5.137 12.998 5.137 3.019 0 5.951-.492 8.28-1.404 2.562-.998 4.25-2.415 4.866-4.103a1.477 1.477 0 0 0-.887-1.885zM58.141 53.728a1.479 1.479 0 0 0-1.897.875c-.628 1.712-4.768 3.56-10.362 3.56-5.445 0-9.524-1.75-10.312-3.437a1.487 1.487 0 0 0-1.971-.715 1.487 1.487 0 0 0-.715 1.972c1.441 3.08 6.665 5.137 12.998 5.137 3.019 0 5.951-.492 8.28-1.404 2.562-.998 4.25-2.415 4.866-4.103a1.487 1.487 0 0 0-.887-1.885zM25.652 38.66a1.479 1.479 0 0 0-1.898.875c-.628 1.712-4.768 3.56-10.361 3.56-5.446 0-9.524-1.75-10.313-3.437a1.487 1.487 0 0 0-1.971-.715 1.487 1.487 0 0 0-.715 1.971c1.442 3.08 6.666 5.138 12.999 5.138 3.018 0 5.95-.493 8.28-1.404 2.562-.998 4.25-2.415 4.866-4.103a1.487 1.487 0 0 0-.887-1.885zM25.652 46.2a1.479 1.479 0 0 0-1.898.875c-.628 1.712-4.768 3.56-10.361 3.56-5.446 0-9.524-1.75-10.313-3.437a1.487 1.487 0 0 0-1.971-.715 1.487 1.487 0 0 0-.715 1.972c1.442 3.08 6.666 5.137 12.999 5.137 3.018 0 5.95-.492 8.28-1.404 2.562-.998 4.25-2.415 4.866-4.103a1.477 1.477 0 0 0-.887-1.885zM25.652 53.728a1.479 1.479 0 0 0-1.898.875c-.628 1.712-4.768 3.56-10.361 3.56-5.446 0-9.524-1.75-10.313-3.437a1.487 1.487 0 0 0-1.971-.715 1.487 1.487 0 0 0-.715 1.972c1.442 3.08 6.666 5.137 12.999 5.137 3.018 0 5.95-.492 8.28-1.404 2.562-.998 4.25-2.415 4.866-4.103a1.487 1.487 0 0 0-.887-1.885zM13.393 24.7C5.753 24.7 0 27.67 0 31.612c0 3.943 5.754 6.912 13.393 6.912 7.638 0 13.392-2.97 13.392-6.912 0-3.942-5.754-6.912-13.392-6.912zm0 10.867c-6.37 0-10.436-2.34-10.436-3.955 0-1.614 4.066-3.955 10.436-3.955s10.435 2.341 10.435 3.955c0 1.614-4.066 3.955-10.435 3.955z"/>
        </g>
        <g transform="translate(53.58 2)">
            <circle cx="11.816" cy="11.856" r="12" fill="#9BD363" stroke="#FFF" stroke-width="2" transform="matrix(0 -1 -1 0 23.673 23.673)"/>
            <path fill="#000" fill-opacity=".8" fill-rule="nonzero" d="M15.947 9.09l-5.233 5.188-2.795-2.193L7 13.07l3.321 2.607.519.414.467-.462L17 9.98z"/>
        </g>
    </g>
</svg>
