<svg xmlns="http://www.w3.org/2000/svg" width="159" height="67" viewBox="0 0 159 67">
    <g fill="none" fill-rule="evenodd" stroke="#9B9B9B" stroke-opacity=".25">
        <g fill-rule="nonzero">
            <path d="M93.627 11.56l-.65-.425-.003-.001c-.625-.412-.948-1.085-.84-1.785.107-.691.609-1.252 1.32-1.502l7.208-2.54c.72-.254 1.569-.129 2.159.323l1.713 1.311c.604.463.871 1.193.677 1.895l-1.853 6.704a1.91 1.91 0 0 1-.925 1.146l-5.556 3.129a2.3 2.3 0 0 1-1.13.293c-1.154 0-2.12-.832-2.12-1.896V11.56z"/>
            <path stroke-linecap="round" stroke-linejoin="round" d="M2.493 7.681l-.65-.424-.002-.001C1.216 6.844.892 6.17 1 5.47c.106-.69.608-1.25 1.32-1.501l7.208-2.54c.72-.254 1.568-.13 2.158.323L13.4 3.063c.604.462.872 1.193.678 1.895l-1.853 6.703a1.91 1.91 0 0 1-.926 1.147l-5.556 3.128a2.3 2.3 0 0 1-1.129.293c-1.154 0-2.12-.831-2.12-1.895V7.681z"/>
        </g>
        <g stroke-linecap="round" stroke-linejoin="round">
            <path d="M28.046 48.514c-.47.817-1.381 1.318-2.375 1.318-1.18 0-2.218-.697-2.57-1.75l-.85-2.543-.026-.148-.134-6.333a1.129 1.129 0 0 0-.44-.85 1.498 1.498 0 0 0-1.062-.307l-4.877.458-2.817-2.288 1.156-4.743 5.607-2.008 9.052 1.23.124.147 3.491 4.117c.008.01.468.428.997.905l.012.01.73.654.33.296.304.27-6.652 11.565zM52.55 31.407a1.072 1.072 0 0 0-.263.917l.274 1.434-.981-.632-3.21-2.066a1.482 1.482 0 0 0-.804-.232c-.524 0-.99.257-1.219.66l-1.82 3.22-.46-.603-3.227-4.224c-.1-.13-.225-.24-.376-.329l-4.02-2.35a1.496 1.496 0 0 0-.756-.201c-.398 0-.776.153-1.033.415l-.145.149c-.454.462-.432 1.15.053 1.59l2.556 2.316-3.29 1.008-3.489-4.21v-1.758c0-.554-.45-1.05-1.092-1.162l-3.894-.682-.181-.07-2.544-1.614a1.542 1.542 0 0 0-1.342-.128l-2.503.956-2.57 1.07-.37-2.138.322-.17 2.328-1.221c.092-.048.177-.106.255-.172l2.446-2.1c.38-.326.503-.807.329-1.236l-.818-1.987 4.292-4.164.312.146 4.116 1.922a1.526 1.526 0 0 0 1.265.007l5.007-2.269c.188-.086.353-.21.476-.359l5.811-7.03 3.258.09-.271.668-.133.325c-.142.351-.087.741.152 1.052.288.374.777.575 1.297.518L64.443 4.79c.119-.013.24-.02.358-.02 1.608 0 2.958 1.201 2.993 2.706l.075 3.208v4.185l-.866-.926-2.418-2.592a1.436 1.436 0 0 0-1.05-.438c-.611 0-1.132.345-1.304.84l-.373 1.088-.219.083-2.11.805c-.426.163-.72.497-.796.889l-.254 1.304c-.103.53.21 1.055.786 1.279l2.289.873-1.431 4.422-.172.096-3.037 1.694c-.592.33-.793.97-.495 1.509l1.552 2.793-2.36 2.27-.188.008-1.863.08a1.432 1.432 0 0 0-1.01.462zM124.8 65.32c-.423.732-1.24 1.18-2.13 1.18-1.057 0-1.988-.624-2.304-1.57l-.743-2.216-.026-.149-.117-5.52a.92.92 0 0 0-.36-.693 1.248 1.248 0 0 0-.883-.253l-4.285.401-2.513-2.036 1.028-4.209 4.944-1.767 7.946 1.078.124.146 3.05 3.59c.004.005.415.378.865.782l.01.009.637.57.29.258.303.27L124.8 65.32zM144.963 47.901a.91.91 0 0 0-.221.773l.266 1.407-.981-.638-2.833-1.84a1.238 1.238 0 0 0-.678-.198c-.44 0-.832.218-1.024.559l-1.651 2.947-.461-.61-2.85-3.762a1.08 1.08 0 0 0-.315-.278l-3.55-2.095a1.25 1.25 0 0 0-.635-.17c-.335 0-.653.13-.869.352l-.128.132c-.38.39-.36.97.045 1.342l2.325 2.126-3.036.938-3.117-3.796v-1.585c0-.467-.378-.886-.916-.981l-3.438-.608-.183-.071-2.245-1.438a1.289 1.289 0 0 0-1.13-.108l-2.208.85-2.339.984-.345-2.013.32-.17 2.056-1.088c.076-.04.148-.09.213-.146l2.16-1.87c.317-.276.421-.681.275-1.043l-.734-1.802 3.843-3.763.315.148 3.634 1.712a1.275 1.275 0 0 0 1.065.006l4.42-2.021c.158-.073.297-.179.4-.304l5.148-6.286 2.989.084-.269.667-.117.29a.894.894 0 0 0 .127.886c.241.317.652.487 1.09.439L155.41 24.1c.107-.012.215-.018.323-.018 1.45 0 2.669 1.093 2.7 2.464l.067 2.86v3.874l-.867-.937-2.136-2.308a1.201 1.201 0 0 0-.883-.371c-.514 0-.95.292-1.095.71l-.337.993-.219.084-1.862.717c-.359.138-.604.42-.668.75l-.224 1.162c-.087.447.176.89.658 1.08l2.07.797-1.285 4.006-.171.097-2.682 1.509c-.495.279-.663.818-.415 1.272l1.39 2.523-2.129 2.066-.19.009-1.644.071c-.335.015-.645.16-.848.391z"/>
        </g>
    </g>
</svg>
