<svg xmlns="http://www.w3.org/2000/svg" width="22" height="15" viewBox="0 0 22 15">
    <g fill="none" fill-rule="evenodd">
        <path stroke="#C99700" stroke-width=".7" d="M21.65 10.021a2.44 2.44 0 1 1 0-4.858V2A1.65 1.65 0 0 0 20 .35H2A1.65 1.65 0 0 0 .35 2v3.153h.006A2.44 2.44 0 1 1 .35 10.03v2.826c0 .911.739 1.65 1.65 1.65h18a1.65 1.65 0 0 0 1.65-1.65v-2.836z"/>
        <g fill="#C99700" fill-rule="nonzero">
            <path d="M11.16 5.368a.372.372 0 0 0-.37.372v2.233c0 .205.166.372.37.372h1.856a.372.372 0 0 0 0-.744h-1.484V5.74a.372.372 0 0 0-.371-.373z"/>
            <path d="M11.449 3a4.438 4.438 0 0 0-3.34 1.513v-.769a.372.372 0 1 0-.743 0v1.86c0 .206.167.373.372.373h1.855a.372.372 0 0 0 0-.745H8.485a3.705 3.705 0 0 1 4.691-1.063 3.724 3.724 0 0 1 1.798 4.472 3.71 3.71 0 0 1-4.115 2.496 3.718 3.718 0 0 1-3.117-3.672.372.372 0 1 0-.742 0 4.465 4.465 0 0 0 2.75 4.125c1.665.69 3.581.308 4.854-.97a4.473 4.473 0 0 0 .963-4.867A4.453 4.453 0 0 0 11.449 3z"/>
        </g>
    </g>
</svg>
