<?xml version="1.0" encoding="UTF-8"?>
<svg width="44px" height="44px" viewBox="0 0 44 44" version="1.1" xmlns="http://www.w3.org/2000/svg" xmlns:xlink="http://www.w3.org/1999/xlink">
    <!-- Generator: sketchtool 51.1 (57501) - http://www.bohemiancoding.com/sketch -->
    <title>A234055E-3CF7-4452-A8DB-101D5904BF6D</title>
    <desc>Created with sketchtool.</desc>
    <defs></defs>
    <g id="Page-1" stroke="none" stroke-width="1" fill="none" fill-rule="evenodd">
        <g id="Icon-Lib" transform="translate(-333.000000, -801.000000)">
            <g id="Supporting-icons" transform="translate(21.000000, 400.000000)">
                <g id="Camera-2" transform="translate(312.000000, 401.000000)">
                    <g id="Group-43" transform="translate(1.000000, 1.000000)">
                        <circle id="Oval-5" stroke="#000000" cx="21" cy="21" r="21"></circle>
                        <path d="M24.8441505,25 L17.1556697,25 C16.5183296,25 16,24.4751735 16,23.8298449 L16,19.0842544 C16,18.4389258 16.5183296,17.9140993 17.1556697,17.9140993 L18.7245046,17.9140993 L18.8618267,17.445048 C18.9178705,17.1883852 19.1495978,17 19.4221442,17 L22.5778858,17 C22.8427299,17 23.0771246,17.1874142 23.1391623,17.4473846 L23.1428186,17.4633767 L23.2680029,17.914069 L24.8443303,17.914069 C25.4816704,17.914069 26,18.4388954 26,19.0842241 L26,23.8297842 C25.9998202,24.4751735 25.4813108,25 24.8441505,25 Z M17.1556697,18.3041611 C16.7307563,18.3041611 16.3852332,18.6540454 16.3852332,19.0842544 L16.3852332,23.8298145 C16.3852332,24.2600539 16.7307863,24.6099078 17.1556697,24.6099078 L24.8441505,24.6099078 C25.2690639,24.6099078 25.614587,24.2600235 25.614587,23.8298145 L25.614587,19.0842544 C25.614587,18.6540151 25.2690339,18.3041611 24.8441505,18.3041611 L22.9762159,18.3041611 L22.7653176,17.5425786 C22.7458671,17.4540303 22.6670763,17.3898798 22.577706,17.3898798 L19.4219344,17.3898798 C19.3312155,17.3898798 19.2541628,17.4526647 19.2343227,17.542791 L19.0116763,18.3041611 L17.1556697,18.3041611 Z M21.0002098,23.8210446 C19.6521333,23.8210446 18.5553844,22.7107613 18.5553844,21.3459697 C18.5553844,19.9809961 19.6521033,18.8707127 21.0002098,18.8707127 C22.3479267,18.8707127 23.4444658,19.9811782 23.4444658,21.3459697 C23.4444358,22.7105792 22.3478967,23.8210446 21.0002098,23.8210446 Z M21.0002098,19.2605622 C19.86456,19.2605622 18.9406176,20.1959033 18.9406176,21.3457877 C18.9406176,22.495672 19.86459,23.4308007 21.0002098,23.4308007 C22.1356498,23.4308007 23.0592325,22.4954595 23.0592325,21.3457877 C23.0592026,20.1959033 22.13544,19.2605622 21.0002098,19.2605622 Z" id="Shape" fill="#000000" fill-rule="nonzero"></path>
                    </g>
                </g>
            </g>
        </g>
    </g>
</svg>