<?xml version="1.0" encoding="UTF-8"?>
<svg width="27px" height="27px" viewBox="0 0 27 27" version="1.1" xmlns="http://www.w3.org/2000/svg" xmlns:xlink="http://www.w3.org/1999/xlink">
    <!-- Generator: sketchtool 51.1 (57501) - http://www.bohemiancoding.com/sketch -->
    <title>2ED9FF1E-1A75-47C0-B919-58BF403AB55A</title>
    <desc>Created with sketchtool.</desc>
    <defs></defs>
    <g id="Page-1" stroke="none" stroke-width="1" fill="none" fill-rule="evenodd">
        <g id="Icon-Lib" transform="translate(-263.000000, -871.000000)" fill="#C99700" fill-rule="nonzero">
            <g id="Supporting-icons" transform="translate(21.000000, 400.000000)">
                <g id="activities" transform="translate(242.000000, 471.000000)">
                    <g id="Group-51">
                        <rect id="Rectangle-path" transform="translate(5.940000, 20.520000) rotate(-45.000000) translate(-5.940000, -20.520000) " x="5.4" y="18.36" width="1.08" height="4.32"></rect>
                        <path d="M9.18,15.12 C7.69095,15.12 6.48,16.33095 6.48,17.82 C6.48,19.30905 7.69095,20.52 9.18,20.52 C10.66905,20.52 11.88,19.30905 11.88,17.82 C11.88,16.33095 10.66905,15.12 9.18,15.12 Z M9.18,19.62 C8.1873,19.62 7.38,18.8127 7.38,17.82 C7.38,16.8273 8.1873,16.02 9.18,16.02 C10.1727,16.02 10.98,16.8273 10.98,17.82 C10.98,18.8127 10.1727,19.62 9.18,19.62 Z" id="Shape"></path>
                        <path d="M26.8763802,3.49875762 L23.5025471,0.123778905 C23.337651,-0.0411731799 23.0711182,-0.0411731799 22.9062221,0.123778905 L21.9391972,1.09113218 L20.9721723,0.123778905 L20.3758473,0.720306392 L21.3420288,1.68765966 L19.8297081,3.20049387 L18.8626832,2.2331406 L18.2663582,2.82966809 L19.2333831,3.79702136 L18.2663582,4.76437463 C18.1014621,4.92932672 18.1014621,5.19595004 18.2663582,5.36090212 L18.811654,5.90638305 L14.2426406,10.4773698 C13.633242,10.1731999 12.965223,9.98841981 12.2735872,9.95002942 C12.258405,9.94918568 12.2432227,9.95045129 12.2280405,9.95002942 L3.76941926,0.702587754 C3.36413756,0.260887415 2.81125067,0.0115608624 2.2123953,0.000592181607 C1.61353993,-0.0133296056 1.05221845,0.218700181 0.631754508,0.645634988 C-0.200317071,1.48980154 -0.195256322,2.85919915 0.642719466,3.69703762 L8.39030537,11.4472544 C8.119977,11.7210495 7.88043485,12.0226882 7.6813787,12.3471081 C6.97962142,13.487429 5.98687104,14.2556585 4.88700146,14.5104694 C3.54843319,14.8201237 2.36843508,15.5449004 1.47436932,16.6071749 C-0.549087064,19.0105816 -0.482453861,22.581731 1.62914391,24.9138413 C2.80703338,26.2144737 4.41803867,26.9544378 6.16652765,26.9978906 C6.22093071,26.9995781 6.27491204,27 6.32889337,27 C8.01707509,27 9.59855934,26.3452541 10.7971135,25.1462929 C11.6253896,24.3181575 12.2056888,23.2803516 12.4743303,22.1450931 C12.7509846,20.979038 13.4928062,19.9762474 14.5087516,19.3944855 C14.8887296,19.1772212 15.2307519,18.9080667 15.5415663,18.6009436 L20.9658464,24.0270656 C20.6419584,24.8931695 20.7465472,25.7200393 21.2606351,26.2338798 C21.5803057,26.5536591 22.014265,26.7198768 22.5135923,26.7198768 C22.6730059,26.7198768 22.8387455,26.7030019 23.009124,26.6688302 C23.6531044,26.5401592 24.302989,26.173974 24.8390067,25.6373523 C26.0093051,24.4666566 26.2716206,22.8943384 25.4357535,22.0577655 C24.9360044,21.5582687 24.1321887,21.4456288 23.2874653,21.7417832 L17.0492479,15.1833558 C17.0770821,14.353111 16.9007993,13.5190694 16.5258821,12.7613867 L21.0953172,8.1903999 L21.640613,8.73588083 C21.6798338,8.77511496 21.7266457,8.80675538 21.7780967,8.827849 C21.8257521,8.84725513 21.8649729,8.86370815 21.9109414,8.86370815 C22.0682463,8.86370815 22.3048364,8.669225 23.2094454,7.7740119 L24.1714095,8.7363027 L24.7677345,8.13977522 L23.8070356,7.17875003 C24.0309737,6.95431394 24.2806374,6.70414365 24.5653045,6.41853607 C24.8204507,6.16245956 25.0747533,5.9072268 25.3172476,5.66338459 L26.2800552,6.62651914 L26.8763802,6.02999165 L25.9118857,5.06516961 C26.4761592,4.49775131 26.8772236,4.09444136 26.8772236,4.09444136 C27.0412763,3.92948927 27.0408546,3.66286596 26.8763802,3.49875762 Z M1.23904446,3.100932 C0.727487021,2.58920085 0.724534918,1.75347175 1.23187506,1.23794375 C1.48828638,0.977226646 1.82524795,0.838430647 2.19679132,0.843914987 C2.56243048,0.850664945 2.90023552,1.00296086 3.14736879,1.27211541 L11.1441966,10.0145759 C10.383819,10.1436688 9.66434908,10.4486825 9.0363944,10.9009297 L1.23904446,3.100932 Z M15.4652333,17.3977637 C15.0953769,17.9259479 14.63274,18.3516171 14.0895529,18.6629588 C12.8720209,19.3603138 11.984281,20.5588531 11.6540671,21.95061 C11.4208509,22.9335725 10.9181498,23.8321606 10.2007885,24.5501873 C9.12917481,25.6221649 7.7075259,26.1929582 6.18761411,26.1549897 C4.67276306,26.1174431 3.27599617,25.4757752 2.25498994,24.3481105 C0.425107233,22.327342 0.366908613,19.2333302 2.12003662,17.1509684 C2.89559649,16.2295992 3.91871137,15.6010094 5.07804476,15.3331205 C6.39974386,15.027263 7.57974198,14.1240343 8.40042687,12.790074 C8.57080544,12.5129039 8.77534407,12.254718 9.00813855,12.0214226 C9.80014586,11.2287245 10.8768203,10.7857585 11.9918722,10.7857585 C12.0703138,10.7857585 12.1483337,10.7878679 12.227197,10.7925085 C13.4417769,10.8604299 14.5327902,11.4270045 15.299072,12.3876078 C16.0033597,13.2701647 16.300257,14.3826421 16.1863901,15.4584166 L16.1653037,15.4782446 L16.1830163,15.4968069 C16.1049964,16.167584 15.8675629,16.8231736 15.4652333,17.3977637 Z M16.8970037,16.2477397 L22.873749,22.5311063 C22.9981591,22.6614649 23.1917328,22.6990115 23.3545202,22.6239182 C23.9702447,22.3425294 24.5383139,22.3539199 24.8394285,22.654293 C25.3239953,23.1394462 25.0507148,24.2325175 24.24226,25.0408249 C23.8226395,25.4605878 23.3258426,25.7449298 22.8433845,25.8415386 C22.6008902,25.8900539 22.1483749,25.9284443 21.85696,25.6373523 C21.5482543,25.3285418 21.544037,24.7438267 21.8455734,24.1114401 C21.9227498,23.9502849 21.8894332,23.7579111 21.7633362,23.6313494 L16.0940314,17.9609633 C16.1138527,17.9335416 16.1366261,17.9094948 16.1560256,17.8816513 C16.5081695,17.3787794 16.7523506,16.8235954 16.8970037,16.2477397 Z M16.0742102,12.020157 C16.0354111,11.9670011 15.9987207,11.9125795 15.9578129,11.8611111 C15.6731458,11.5042071 15.3416667,11.1966622 14.9810883,10.9321482 L19.407979,6.50333241 L20.4985705,7.59387241 L16.0742102,12.020157 Z M21.9434145,7.84657394 L21.393058,7.29603054 L19.7061415,5.60854118 L19.1608457,5.06263838 L23.2035412,1.01899201 L25.9818927,3.79828698 C24.5391573,5.24994969 22.651076,7.14542211 21.9434145,7.84657394 Z" id="Shape"></path>
                        <path d="M11.88,0 C10.093545,0 8.64,1.453545 8.64,3.24 C8.64,5.02686 10.093545,6.48 11.88,6.48 C13.666455,6.48 15.12,5.026455 15.12,3.24 C15.12,1.453545 13.666455,0 11.88,0 Z M11.88,5.67 C11.51631,5.67 11.172465,5.58738 10.862235,5.443605 C11.262375,4.69071 11.475,3.854385 11.475,2.99457 L11.475,2.835 C11.475,2.611845 11.65644,2.43 11.88,2.43 C12.10356,2.43 12.285,2.611845 12.285,2.835 L12.285,2.99457 C12.285,3.854385 12.497625,4.69071 12.897765,5.443605 C12.587535,5.587785 12.24369,5.67 11.88,5.67 Z M13.570065,4.98231 C13.259835,4.36752 13.095,3.69036 13.095,2.994975 L13.095,2.835 C13.095,2.16513 12.54987,1.62 11.88,1.62 C11.21013,1.62 10.665,2.16513 10.665,2.835 L10.665,2.99457 C10.665,3.69036 10.500165,4.367115 10.189935,4.981905 C9.73431,4.540455 9.45,3.923235 9.45,3.24 C9.45,1.90026 10.54026,0.81 11.88,0.81 C13.220145,0.81 14.31,1.899855 14.31,3.24 C14.31,3.923235 14.02569,4.540455 13.570065,4.98231 Z" id="Shape"></path>
                    </g>
                </g>
            </g>
        </g>
    </g>
</svg>