<svg xmlns="http://www.w3.org/2000/svg" width="36" height="36" viewBox="0 0 36 36">
    <g fill="none" fill-rule="evenodd">
        <circle cx="18" cy="18" r="17.5" stroke="#C99700"/>
        <path fill-rule="nonzero" stroke="#C79800" d="M13.837 20.306a14.9 14.9 0 0 0 4.96 3.87c.724.342 1.694.749 2.774.818.067.003.131.006.198.006.725 0 1.308-.25 1.782-.763a.063.063 0 0 0 .012-.014c.169-.204.361-.386.562-.58.137-.131.277-.268.41-.407.62-.644.62-1.462-.005-2.086l-1.75-1.743c-.297-.308-.653-.47-1.025-.47-.373 0-.731.162-1.037.467l-1.043 1.039c-.096-.056-.195-.105-.288-.151a3.605 3.605 0 0 1-.32-.174c-.95-.6-1.811-1.384-2.635-2.39-.417-.526-.696-.967-.891-1.416.273-.247.53-.505.777-.758.087-.09.178-.18.268-.27.314-.313.483-.675.483-1.044 0-.368-.166-.73-.483-1.044l-.868-.864c-.102-.102-.198-.2-.297-.302-.192-.197-.393-.4-.591-.583-.3-.293-.652-.447-1.025-.447-.37 0-.725.154-1.037.45l-1.089 1.085c-.396.394-.62.873-.667 1.427-.055.693.073 1.43.405 2.32.51 1.379 1.279 2.658 2.42 4.024z"/>
    </g>
</svg>
