<?xml version="1.0" encoding="UTF-8"?>
<svg width="23px" height="23px" viewBox="0 0 23 23" version="1.1" xmlns="http://www.w3.org/2000/svg" xmlns:xlink="http://www.w3.org/1999/xlink">
    <!-- Generator: sketchtool 51.1 (57501) - http://www.bohemiancoding.com/sketch -->
    <title>E6F862CD-8CD5-44B1-AB74-8A33182A3345</title>
    <desc>Created with sketchtool.</desc>
    <defs></defs>
    <g id="Page-1" stroke="none" stroke-width="1" fill="none" fill-rule="evenodd">
        <g id="Icon-Lib" transform="translate(-556.000000, -509.000000)" fill="#000000" fill-rule="nonzero">
            <g id="Supporting-icons" transform="translate(21.000000, 400.000000)">
                <g id="cutlery" transform="translate(535.000000, 109.000000)">
                    <g id="Group-14">
                        <path d="M20.438375,1.40017824 C20.2770605,1.23302894 20.0156152,1.23288918 19.8542559,1.40017824 L15.5718984,5.84100174 C15.4105391,6.0082908 15.4105391,6.27941927 15.5718535,6.44675492 C15.6525332,6.53037616 15.7581895,6.57216348 15.8639355,6.57216348 C15.9695918,6.57216348 16.0753379,6.53037616 16.1560176,6.44675492 L20.438375,2.00593142 C20.5996445,1.83859578 20.5996445,1.56742072 20.438375,1.40017824 Z" id="Shape"></path>
                        <path d="M21.6029297,2.58881105 C21.4415703,2.42161516 21.180125,2.42161516 21.0188105,2.58881105 L16.736498,7.02972772 C16.5752285,7.19706337 16.5752285,7.46819184 16.7364531,7.6354809 C16.8171328,7.71910214 16.9228789,7.76088947 17.0285352,7.76088947 C17.1341914,7.76088947 17.2399375,7.71910214 17.3206172,7.6354809 L21.6029297,3.19451765 C21.7642441,3.02722859 21.7642441,2.75605353 21.6029297,2.58881105 Z" id="Shape"></path>
                        <path d="M17.5630605,10.0880289 L22.8790254,4.5751765 C23.0403398,4.40784086 23.0403398,4.13671238 22.8790254,3.96942332 C22.717666,3.80227402 22.4562207,3.80213426 22.2949062,3.96942332 L16.9790312,9.48227575 C16.3241152,10.1614013 15.3227168,10.3395914 14.4872148,9.92581771 C14.3210039,9.84354745 14.1225391,9.88514844 14.0003066,10.02798 L12.194043,12.1384497 C12.1933242,12.1392416 12.1925156,12.1399404 12.1917969,12.1407789 C12.1910781,12.1416175 12.1905391,12.1425026 12.1898203,12.1433411 L4.38289258,21.2646713 C4.38091602,21.2670006 4.37893945,21.2693764 4.37700781,21.2717523 C4.35126758,21.3031045 4.32696484,21.3306366 4.30234766,21.3562121 C3.78686914,21.8907358 2.94817773,21.8906892 2.43292383,21.3562121 C2.18324805,21.0973356 2.04574219,20.7530211 2.04574219,20.3868579 C2.04574219,20.0206947 2.18324805,19.6764268 2.43337305,19.4170379 C2.45736133,19.3920214 2.48386523,19.3669117 2.51436719,19.3399852 C2.51670312,19.3379821 2.51894922,19.3359323 2.52119531,19.3338825 L7.40186719,14.8414421 C7.57248047,14.6844019 7.58797852,14.4136927 7.4365918,14.236807 C7.28516016,14.0598281 7.02407422,14.0436629 6.85355078,14.2007963 L1.97611328,18.6902552 C1.92948437,18.7314835 1.88775195,18.7714074 1.84884961,18.8117972 C1.44316016,19.2325122 1.21971875,19.791866 1.21971875,20.3868579 C1.21971875,20.9818032 1.44311523,21.5412037 1.84880469,21.9619187 C2.26761133,22.3961435 2.81758984,22.6132792 3.36770312,22.6132326 C3.9175918,22.6132326 4.46770508,22.3961901 4.88619727,21.9621516 C4.92586328,21.9211097 4.96427148,21.877785 5.00371289,21.829895 L10.9528066,14.8790367 L16.9019902,21.8299881 C16.9413867,21.8779248 16.9797949,21.9212494 17.0191914,21.9620119 C17.4379082,22.3962367 17.9879316,22.6133258 18.5379551,22.6133258 C19.0880234,22.6133258 19.6380918,22.3961901 20.0568535,21.9619653 C20.8941973,21.093469 20.8941973,19.6804332 20.0570781,18.8121698 C20.0175469,18.7710347 19.9757246,18.731204 19.9295898,18.6903484 L13.0839004,12.3891736 L14.4232461,10.8242685 C15.5084238,11.2229951 16.7363184,10.9452514 17.5630605,10.0880289 Z M19.384418,19.3339291 C19.3866641,19.3359789 19.3889551,19.3380286 19.3912461,19.3400318 C19.4214785,19.3667254 19.4480273,19.3919282 19.4726895,19.4174572 C19.9880781,19.9519809 19.9880781,20.8216884 19.4727344,21.3561189 C18.9572559,21.8905961 18.1186094,21.8905961 17.6029961,21.355886 C17.5786035,21.33059 17.5542109,21.3030113 17.5284707,21.2716591 C17.5265391,21.2692833 17.5245625,21.2669074 17.5225859,21.2645781 L11.5049863,14.2337789 L12.5354492,13.0297729 L19.384418,19.3339291 Z" id="Shape"></path>
                        <path d="M19.198666,0.152707755 C19.0373066,-0.0144881366 18.7758613,-0.0144881366 18.6145469,0.152707755 L13.2986719,5.66560677 C12.4718398,6.52296904 12.2041055,7.79620139 12.5885918,8.92180382 L10.9527617,10.4275451 L9.38058594,8.98040856 C10.193627,7.32140046 9.89682813,5.30708362 8.60694141,3.96937674 C7.32585938,2.64084722 5.842,1.70591985 4.42871289,1.33691493 C2.95334375,0.951791377 1.68843359,1.20889757 0.866632813,2.06108883 C0.0448320313,2.91328009 -0.203136719,4.22522512 0.168322266,5.75514439 C0.524193359,7.22068229 1.42568555,8.75949942 2.70685742,10.0879823 C3.99674414,11.4257358 5.93907617,11.7335272 7.53892383,10.890327 C7.53892383,10.890327 9.076375,12.6865764 9.09587109,12.7094034 C9.17749414,12.8047642 9.29092188,12.853353 9.40493359,12.853353 C9.50245898,12.853353 9.60029883,12.8177616 9.67895703,12.7453675 L13.3565313,9.36026794 C13.4942168,9.23350839 13.534332,9.02759983 13.4550449,8.8553261 C13.055959,7.98878646 13.2278301,6.95039236 13.8827461,6.27131337 L19.198666,0.758460938 C19.3599805,0.591125289 19.3599805,0.319996817 19.198666,0.152707755 Z M9.43947852,11.8205026 L7.9360332,10.0639442 C7.80288477,9.90839468 7.58106055,9.87438715 7.41035742,9.98372367 C6.08615039,10.830511 4.39214648,10.6244627 3.2908418,9.48232234 C2.11370898,8.2616386 1.28925781,6.86374306 0.969279297,5.54597483 C0.671671875,4.31998032 0.842644531,3.29742535 1.45075195,2.66684201 C2.05876953,2.03616551 3.04480469,1.8589537 4.22696875,2.16763021 C5.49767383,2.49941319 6.84573438,3.35435301 8.02277734,4.57508333 C9.12408203,5.7171305 9.32281641,7.47387529 8.50622656,8.84712703 C8.40092969,9.02419907 8.43358789,9.25414583 8.58358203,9.39227228 L10.3305039,11.0002225 L9.43947852,11.8205026 Z" id="Shape"></path>
                    </g>
                </g>
            </g>
        </g>
    </g>
</svg>