<?xml version="1.0" encoding="UTF-8"?>
<svg width="26px" height="26px" viewBox="0 0 26 26" version="1.1" xmlns="http://www.w3.org/2000/svg" xmlns:xlink="http://www.w3.org/1999/xlink">
    <!-- Generator: sketchtool 51.1 (57501) - http://www.bohemiancoding.com/sketch -->
    <title>A7778B92-CD88-433D-BFF6-457B225F7319</title>
    <desc>Created with sketchtool.</desc>
    <defs></defs>
    <g id="Page-1" stroke="none" stroke-width="1" fill="none" fill-rule="evenodd">
        <g id="Icon-Lib" transform="translate(-186.000000, -638.000000)">
            <g id="Supporting-icons" transform="translate(21.000000, 400.000000)">
                <g id="Gift-3" transform="translate(165.000000, 238.000000)">
                    <g id="Group-27">
                        <rect id="Rectangle-Copy-2" stroke="#B8E986" fill="#B8E986" x="0.5" y="0.5" width="25" height="25" rx="12.5"></rect>
                        <g id="gift" transform="translate(7.000000, 7.000000)" fill="#5A9419" fill-rule="nonzero">
                            <path d="M11.25,3.16763193 L8.877,3.16763193 C9.04725,3.04428101 9.1935,2.9217259 9.2955,2.81190378 C9.9,2.1664999 9.9,1.1160275 9.2955,0.470623621 C8.70825,-0.156476571 7.68375,-0.157272383 7.09575,0.470623621 C6.771,0.816802027 5.90775,2.22618583 6.027,3.16763193 L5.973,3.16763193 C6.0915,2.22618583 5.229,0.816802027 4.90425,0.470623621 C4.31625,-0.157272383 3.29175,-0.156476571 2.7045,0.470623621 C2.1,1.1160275 2.1,2.1664999 2.70375,2.81190378 C2.8065,2.9217259 2.95275,3.04428101 3.123,3.16763193 L0.75,3.16763193 C0.33675,3.16763193 0,3.52495171 0,3.96344436 L0,5.95297543 C0,6.17261966 0.168,6.35088164 0.375,6.35088164 L0.75,6.35088164 L0.75,11.1257562 C0.75,11.5642488 1.08675,11.9215686 1.5,11.9215686 L10.5,11.9215686 C10.91325,11.9215686 11.25,11.5642488 11.25,11.1257562 L11.25,6.35088164 L11.625,6.35088164 C11.832,6.35088164 12,6.17261966 12,5.95297543 L12,3.96344436 C12,3.52495171 11.66325,3.16763193 11.25,3.16763193 Z M3.23625,1.03167138 C3.3885,0.869325647 3.59025,0.780194655 3.80475,0.780194655 C4.0185,0.780194655 4.22025,0.869325647 4.3725,1.03167138 C4.878,1.57123221 5.3805,2.94957933 5.20575,3.14137012 C5.20575,3.14137012 5.17425,3.16763193 5.067,3.16763193 C4.54875,3.16763193 3.5595,2.59623861 3.23625,2.25085602 C2.922,1.91502318 2.922,1.36750423 3.23625,1.03167138 Z M5.625,11.1257562 L1.5,11.1257562 L1.5,6.35088164 L5.625,6.35088164 L5.625,11.1257562 Z M5.625,5.55506921 L0.75,5.55506921 L0.75,3.96344436 L5.067,3.96344436 L5.625,3.96344436 L5.625,5.55506921 Z M7.6275,1.03167138 C7.932,0.707775724 8.46,0.708571537 8.76375,1.03167138 C9.078,1.36750423 9.078,1.91502318 8.76375,2.25085602 C8.4405,2.59623861 7.45125,3.16763193 6.933,3.16763193 C6.82575,3.16763193 6.79425,3.14216594 6.7935,3.14137012 C6.6195,2.94957933 7.122,1.57123221 7.6275,1.03167138 Z M10.5,11.1257562 L6.375,11.1257562 L6.375,6.35088164 L10.5,6.35088164 L10.5,11.1257562 Z M11.25,5.55506921 L6.375,5.55506921 L6.375,3.96344436 L6.933,3.96344436 L11.25,3.96344436 L11.25,5.55506921 Z" id="Shape"></path>
                        </g>
                    </g>
                </g>
            </g>
        </g>
    </g>
</svg>