<?xml version="1.0" encoding="UTF-8"?>
<svg width="42px" height="42px" viewBox="0 0 42 42" version="1.1" xmlns="http://www.w3.org/2000/svg" xmlns:xlink="http://www.w3.org/1999/xlink">
    <!-- Generator: sketchtool 51.1 (57501) - http://www.bohemiancoding.com/sketch -->
    <title>5CE1BD66-F352-49DE-B70B-6043D1BDB64C</title>
    <desc>Created with sketchtool.</desc>
    <defs></defs>
    <g id="Page-1" stroke="none" stroke-width="1" fill="none" fill-rule="evenodd">
        <g id="Icon-Lib" transform="translate(-22.000000, -561.000000)">
            <g id="Supporting-icons" transform="translate(21.000000, 400.000000)">
                <g id="Email-2" transform="translate(1.000000, 161.000000)">
                    <g id="Group-16" transform="translate(1.000000, 1.000000)">
                        <g id="email" transform="translate(10.000000, 13.000000)" fill="#C99700" fill-rule="nonzero">
                            <path d="M18.2421875,0 L1.7578125,0 C0.789765625,0 0,0.73588664 0,1.63967611 L0,12.5708502 C0,13.4715789 0.78625,14.2105263 1.7578125,14.2105263 L18.2421875,14.2105263 C19.2078125,14.2105263 20,13.4771174 20,12.5708502 L20,1.63967611 C20,0.738947368 19.21375,0 18.2421875,0 Z M17.9994531,1.09311741 L10.0372656,8.52023077 L2.00621094,1.09311741 L17.9994531,1.09311741 Z M1.171875,12.344502 L1.171875,1.86081377 L6.81558594,7.08008502 L1.171875,12.344502 Z M2.00050781,13.1174089 L7.64777344,7.84967611 L9.6265625,9.67962753 C9.855625,9.89147368 10.2252734,9.89078138 10.4533984,9.67795142 L12.3828125,7.87820648 L17.9994922,13.1174089 L2.00050781,13.1174089 Z M18.828125,12.3444656 L13.2114453,7.10526316 L18.828125,1.86602429 L18.828125,12.3444656 Z" id="Shape"></path>
                        </g>
                        <circle id="Oval-4-Copy-5" stroke="#C99700" cx="20" cy="20" r="20"></circle>
                    </g>
                </g>
            </g>
        </g>
    </g>
</svg>