<?xml version="1.0" encoding="UTF-8"?>
<svg width="19px" height="18px" viewBox="0 0 19 18" version="1.1" xmlns="http://www.w3.org/2000/svg" xmlns:xlink="http://www.w3.org/1999/xlink">
    <!-- Generator: sketchtool 51.1 (57501) - http://www.bohemiancoding.com/sketch -->
    <title>F19B62A6-EC33-471E-A539-05B5FFA24540</title>
    <desc>Created with sketchtool.</desc>
    <defs></defs>
    <g id="Page-1" stroke="none" stroke-width="1" fill="none" fill-rule="evenodd">
        <g id="Icon-Lib" transform="translate(-491.000000, -702.000000)" fill="#D0A422" fill-rule="nonzero">
            <g id="Supporting-icons" transform="translate(21.000000, 400.000000)">
                <g id="mail-3" transform="translate(470.000000, 302.000000)">
                    <g id="Group-34">
                        <path d="M18.1338214,6.58820232 C18.0336088,6.47829224 17.8670364,6.4559342 17.7404248,6.53535605 L16.9370676,7.04349327 L16.9370676,0.64096429 C16.9131533,0.27576607 16.5922245,-0.00127034305 16.2202059,0.0222055965 C16.2162202,0.0224596651 16.2122345,0.0227645475 16.2082488,0.0230694298 L2.24060045,0.0230694298 C1.86904775,-0.00685985248 1.54314976,0.264536237 1.51266153,0.62922632 C1.51235095,0.633138977 1.51204037,0.637051633 1.51178156,0.64096429 L1.51178156,6.78739211 L1.12666704,6.54348624 C0.995862681,6.45176747 0.815107315,6.4748369 0.712565397,6.59633251 C0.242404747,7.15975506 -0.00983491394,7.86809835 0.00031057623,8.59636061 L0.00031057623,14.9460433 C0.0168746418,16.3200464 0.778821659,17.7875467 2.9114451,17.7875467 L15.9639288,17.7875467 C17.3635923,17.7875467 18.8626403,17.0395687 18.8626403,14.9419782 L18.8626403,8.59636061 C18.8970107,7.85910432 18.6353502,7.1380576 18.1338214,6.58820232 Z M2.24060045,0.632834094 L16.2165308,0.632834094 C16.2827871,0.632834094 16.3200562,0.657224681 16.3200562,0.632834094 L16.3200562,7.45000304 L9.43768695,11.8321784 L2.13707504,7.18577169 L2.128793,0.669419974 C2.15959181,0.643098466 2.19981144,0.629937712 2.24060045,0.632834094 Z M0.741552511,15.6249146 C0.685597027,15.4027571 0.656402862,15.1749083 0.654591167,14.9460433 L0.642168118,8.59636061 C0.637923576,8.10900621 0.772765423,7.63023932 1.03142366,7.21422737 L6.98620524,11.0028985 L0.741552511,15.6249146 Z M15.9639288,17.177782 L15.9597878,17.1737169 L2.9114451,17.1737169 C1.82649881,17.1737169 1.25503854,16.722491 0.96102638,16.2102887 L7.53696042,11.3443667 L9.26790527,12.4460082 C9.30905662,12.4663845 9.35434899,12.4774619 9.4004178,12.478529 C9.44648661,12.4774619 9.49177897,12.4663845 9.53293032,12.4460082 L11.218324,11.3728224 L17.8191041,16.2509397 C17.3891113,16.8354499 16.6983898,17.1805767 15.9639288,17.177782 Z M18.2373468,8.59229552 L18.2332058,14.9419782 C18.2342928,15.1886788 18.203701,15.4345156 18.1421034,15.6736958 L11.8518995,11.0272891 L17.8480913,7.21016228 C18.1201043,7.62038145 18.2560849,8.10321344 18.2373468,8.59229552 Z" id="Shape"></path>
                        <path d="M10.7310299,2.44454654 C9.33136635,1.73884557 7.61398333,2.28062147 6.89510288,3.65462452 C6.68805206,4.05036178 6.58017858,4.48883339 6.58038563,4.93370753 C6.58949587,6.47580237 7.86674061,7.72058611 9.43768695,7.7182995 C9.66958386,7.71855357 9.90054905,7.68984381 10.1250957,7.63293244 C10.2081748,7.62180424 10.281419,7.57383608 10.3238645,7.50284932 C10.365637,7.43567357 10.3747472,7.35371104 10.3487106,7.27926894 C10.3412567,7.21448144 10.306731,7.15558834 10.2534672,7.11666503 C10.1800159,7.066207 10.0876712,7.04984498 10.0008652,7.07194895 C9.81819459,7.11671584 9.6299854,7.13587261 9.44182796,7.12886032 C8.19771135,7.13109612 7.18725159,6.14282004 7.18497403,4.92151224 C7.18269647,3.70020443 8.18942932,2.70826976 9.43354593,2.70603395 C10.6776625,2.70379815 11.6881223,3.69207423 11.6903999,4.91338204 C11.6941268,5.26623253 11.6072172,5.61435734 11.4377979,5.92559138 C11.3614996,6.07345931 11.235768,6.19114389 11.0816705,6.2589294 L11.0195552,6.2589294 C10.9325939,6.2589294 10.9284528,6.03534902 10.9284528,6.03534902 L10.9284528,4.92151224 C10.9719335,4.10991547 10.3370122,3.41737525 9.51025826,3.37464091 C8.68350434,3.33195738 7.97803043,3.9552385 7.93449799,4.76683527 C7.93175457,4.81836038 7.93175457,4.86993631 7.93449799,4.92146142 C7.91829627,5.75429833 8.5894515,6.44404379 9.43768695,6.46619857 C9.76917531,6.46797705 10.0905699,6.35415431 10.3445695,6.14505585 L10.3445695,6.16538134 C10.347313,6.32010912 10.3978851,6.4703653 10.4895051,6.5962817 C10.6141497,6.75919049 10.8121421,6.85182391 11.0195552,6.84425266 C11.0813599,6.85304344 11.1440963,6.85304344 11.2059009,6.84425266 C11.526985,6.74064348 11.7971863,6.52321157 11.9637069,6.234488 L11.9637069,6.21009741 C12.6825356,4.83614518 12.1306934,3.15024751 10.7310299,2.44454654 Z M9.43768695,5.87274511 L9.44182796,5.87681021 C8.9343464,5.86182016 8.53530771,5.44585903 8.55057771,4.94763049 C8.55078476,4.9402625 8.55109534,4.93289451 8.55150944,4.92557733 C8.52806093,4.42104789 8.92389034,3.99248495 9.43768695,3.96621426 C9.95231176,3.99461913 10.3505222,4.41977754 10.3362875,4.92557733 C10.3525928,5.43000515 9.95138003,5.85292776 9.43768695,5.87274511 Z" id="Shape"></path>
                    </g>
                </g>
            </g>
        </g>
    </g>
</svg>