<svg xmlns="http://www.w3.org/2000/svg" width="53" height="61" viewBox="0 0 53 61">
    <g fill="none" fill-rule="evenodd" stroke="#000">
        <path fill="#FFF" stroke-width="1.5" d="M38.328 53.535a1.865 1.865 0 0 0 1.311-2.287l-1.346-5.021-.579.003a3.721 3.721 0 0 1-3.249-1.9l-.285-.508-2.839.76a.364.364 0 0 1-.441-.263.364.364 0 0 1 .25-.45l2.839-.76-.007-.583a3.721 3.721 0 0 1 1.863-3.27l.504-.287-9.806-36.595a1.865 1.865 0 0 0-2.278-1.325L2.86 6.784a1.865 1.865 0 0 0-1.311 2.287l9.805 36.595.58-.003a3.721 3.721 0 0 1 3.249 1.9l.285.508 2.839-.76c.19-.051.388.065.441.264a.364.364 0 0 1-.25.449l-2.839.76.007.583a3.721 3.721 0 0 1-1.863 3.27l-.504.287 1.346 5.022a1.865 1.865 0 0 0 2.278 1.324l21.405-5.735z"/>
        <path fill-rule="nonzero" stroke-width="1.2" d="M22.823 31.88c-.394-1.47.468-2.98 1.917-3.37 1.45-.387 2.952.49 3.345 1.96.394 1.47-.468 2.981-1.917 3.37-1.449.388-2.951-.49-3.345-1.96zM17.206 24.114c.394 1.47-.469 2.981-1.918 3.37-1.449.388-2.95-.49-3.345-1.96-.394-1.47.468-2.981 1.918-3.37 1.449-.388 2.95.49 3.345 1.96z"/>
        <path stroke-linecap="round" stroke-width="1.2" d="M24.788 19.69l-9.9 17.146"/>
        <g>
            <path fill="#FFF" stroke-width="1.5" d="M49.668 56.34c1.027 0 1.858-.839 1.858-1.869v-5.199l-.56-.146a3.721 3.721 0 0 1-2.647-2.677l-.144-.564h-2.939a.364.364 0 0 1-.358-.37c0-.205.162-.369.358-.369h2.94l.143-.564a3.721 3.721 0 0 1 2.646-2.677l.561-.146V3.872c0-1.03-.83-1.87-1.858-1.87h-22.16c-1.027 0-1.858.84-1.858 1.87V41.76l.56.146a3.721 3.721 0 0 1 2.647 2.677l.144.564h2.939c.196 0 .358.164.358.37 0 .205-.162.369-.358.369h-2.939l-.144.564a3.721 3.721 0 0 1-2.646 2.677l-.561.146v5.199c0 1.03.83 1.87 1.858 1.87h22.16z"/>
            <path fill-rule="nonzero" stroke-width="1.2" d="M40.296 31.41c0-1.521 1.224-2.758 2.724-2.758 1.5 0 2.724 1.237 2.724 2.759 0 1.521-1.224 2.758-2.724 2.758-1.5 0-2.724-1.237-2.724-2.758zM36.88 22.455c0 1.522-1.224 2.758-2.724 2.758-1.5 0-2.724-1.236-2.724-2.758s1.224-2.758 2.724-2.758c1.5 0 2.724 1.236 2.724 2.758z"/>
            <path stroke-linecap="round" stroke-width="1.2" d="M45.35 20.144l-14 14"/>
        </g>
    </g>
</svg>
