<?xml version="1.0" encoding="UTF-8"?>
<svg width="17px" height="17px" viewBox="0 0 17 17" version="1.1" xmlns="http://www.w3.org/2000/svg" xmlns:xlink="http://www.w3.org/1999/xlink">
    <!-- Generator: sketchtool 51.1 (57501) - http://www.bohemiancoding.com/sketch -->
    <title>DFB5968D-F4CA-4C06-BBD8-5297F549A586</title>
    <desc>Created with sketchtool.</desc>
    <defs></defs>
    <g id="Page-1" stroke="none" stroke-width="1" fill="none" fill-rule="evenodd">
        <g id="Icon-Lib" transform="translate(-492.000000, -643.000000)" stroke="#000000">
            <g id="Supporting-icons" transform="translate(21.000000, 400.000000)">
                <g id="notification-(1)" transform="translate(471.000000, 243.000000)">
                    <g id="Group-31">
                        <path d="M16.0047058,13.1730664 L16.0038208,13.172299 C13.8936484,11.3381557 12.889582,9.08982477 12.889582,4.91398156 C12.889582,2.47997248 10.9195581,0.5 8.50029663,0.5 C6.08064997,0.5 4.11034383,2.47998667 4.11034383,4.91398156 C4.11034383,9.094009 3.10641667,11.3417377 0.996609216,13.1724147 C0.680857504,13.448811 0.5,13.8463269 0.5,14.2629045 C0.5,14.2960542 0.525736325,14.3219214 0.556190509,14.3219214 L6.24141383,14.3219214 L6.32402822,14.7204233 C6.53723715,15.7488662 7.44482281,16.5 8.5,16.5 C9.55523353,16.5 10.4628325,15.7488879 10.6759648,14.7204572 L10.7585574,14.3219214 L16.4438095,14.3219214 C16.4742637,14.3219214 16.5,14.2960542 16.5,14.2629045 C16.5,13.8423934 16.319121,13.4450628 16.0047058,13.1730664 Z" id="Shape" fill-rule="nonzero"></path>
                        <path d="M16.0047058,13.1730664 L16.0038208,13.172299 C13.8936484,11.3381557 12.889582,9.08982477 12.889582,4.91398156 C12.889582,2.47997248 10.9195581,0.5 8.50029663,0.5 C6.08064997,0.5 4.11034383,2.47998667 4.11034383,4.91398156 C4.11034383,9.094009 3.10641667,11.3417377 0.996609216,13.1724147 C0.680857504,13.448811 0.5,13.8463269 0.5,14.2629045 C0.5,14.2960542 0.525736325,14.3219214 0.556190509,14.3219214 L6.24141383,14.3219214 L6.32402822,14.7204233 C6.53723715,15.7488662 7.44482281,16.5 8.5,16.5 C9.55523353,16.5 10.4628325,15.7488879 10.6759648,14.7204572 L10.7585574,14.3219214 L16.4438095,14.3219214 C16.4742637,14.3219214 16.5,14.2960542 16.5,14.2629045 C16.5,13.8423934 16.319121,13.4450628 16.0047058,13.1730664 Z" id="Shape" fill-rule="nonzero"></path>
                        <path d="M1.425,14.025 L16.425,14.025" id="Line" stroke-width="0.9" stroke-linecap="square"></path>
                    </g>
                </g>
            </g>
        </g>
    </g>
</svg>