<?xml version="1.0" encoding="UTF-8"?>
<svg width="30px" height="30px" viewBox="0 0 30 30" version="1.1" xmlns="http://www.w3.org/2000/svg" xmlns:xlink="http://www.w3.org/1999/xlink">
    <!-- Generator: sketchtool 51.1 (57501) - http://www.bohemiancoding.com/sketch -->
    <title>393C4CBE-FD95-45DC-AF93-07020C04C249</title>
    <desc>Created with sketchtool.</desc>
    <defs></defs>
    <g id="Page-1" stroke="none" stroke-width="1" fill="none" fill-rule="evenodd">
        <g id="Icon-Lib" transform="translate(-415.000000, -871.000000)" fill="#C99700" fill-rule="nonzero">
            <g id="Supporting-icons" transform="translate(21.000000, 400.000000)">
                <g id="room-service" transform="translate(394.000000, 471.000000)">
                    <g id="Group-52">
                        <path d="M18.703125,28.0555786 L18.703125,27.0833679 L10.33599,27.0833679 L10.33599,26.5972107 L18.70323,26.5972107 L18.70323,23.6805786 C18.70323,21.0001807 16.49529,18.8195251 13.781355,18.8195251 L11.320365,18.8195251 L11.320365,18.3333679 C11.320365,17.5293626 10.65792,16.875 9.84375,16.875 C9.02958,16.875 8.367135,17.5292589 8.367135,18.3333679 L8.367135,18.8195251 L5.90625,18.8195251 C3.192315,18.8195251 0.984375,21.0001807 0.984375,23.6805786 L0.984375,26.5972107 L9.351615,26.5972107 L9.351615,27.0833679 L0.984375,27.0833679 L0.984375,28.0555786 C0.984375,28.5917204 0.54285,29.0277893 0,29.0277893 L0,30 L19.6875,30 L19.6875,29.0277893 C19.14465,29.0277893 18.703125,28.5917204 18.703125,28.0555786 Z M9.843855,17.8473144 C10.115595,17.8473144 10.336095,18.0650896 10.336095,18.3334716 L10.336095,18.8196288 L9.35172,18.8196288 L9.35172,18.3334716 L9.351615,18.3334716 C9.351615,18.0651933 9.572115,17.8473144 9.843855,17.8473144 Z M1.96875,25.625 L1.968855,23.6805786 L1.96875,23.6805786 C1.96875,21.5363225 3.735165,19.7917358 5.90625,19.7917358 L8.36724,19.7917358 L11.320365,19.7917358 L13.781355,19.7917358 C15.95244,19.7917358 17.718855,21.5363225 17.718855,23.6805786 L17.718855,25.625 L1.96875,25.625 Z M1.704465,29.0277893 C1.87278,28.7414668 1.96875,28.4095151 1.96875,28.0555786 L17.71875,28.0555786 C17.71875,28.4095151 17.81472,28.7414668 17.983035,29.0277893 L1.704465,29.0277893 Z" id="Shape"></path>
                        <path d="M27.6170636,6.47349818 C27.3462633,6.66360349 27.0311792,6.76344778 26.7051569,6.76344778 L21.8779027,6.76344778 L16.590819,8.2573234 C16.4220732,8.30590835 16.2468495,8.33042368 16.070139,8.33042368 C15.7042932,8.33042368 15.4066252,8.01807598 15.4066252,7.63418805 L15.4066252,7.48063288 C15.4066252,7.22779059 15.5375651,6.9943377 15.7481522,6.87153814 L19.6310036,4.60821516 L19.1475986,3.69513021 L18.364083,4.15167269 L16.0528291,4.15167269 C15.570486,4.15167269 15.0940898,4.23268474 14.6360656,4.39303735 L10.9917309,5.66750068 C10.8946675,5.70148786 10.7935688,5.7186486 10.6915142,5.7186486 L10.3814213,5.7186486 C9.85819268,5.7186486 9.43308932,5.27258086 9.43308932,4.72354869 C9.43308932,4.29475312 9.69348239,3.91498823 10.0822667,3.7785938 L14.4528772,2.2497281 C14.8092716,2.12536847 15.1801087,2.06218576 15.5549813,2.06218576 L26.9365584,2.06218576 L30,0.990308269 L29.6849159,0 L26.7753526,1.01749801 L15.5548751,1.01749801 C15.072532,1.01749801 14.5961359,1.09851006 14.1381117,1.25886267 L9.76707635,2.78828553 C8.97156066,3.06620033 8.4375,3.84389375 8.4375,4.72354869 C8.4375,5.84813416 9.30968934,6.76333634 10.3814213,6.76333634 L10.6915142,6.76333634 C10.9006145,6.76333634 11.1076971,6.72834627 11.306284,6.65836612 L14.950194,5.38434852 C15.3071194,5.25954315 15.6779565,5.19636044 16.0528291,5.19636044 L16.5720223,5.19636044 L15.2643223,5.95845319 C14.7381202,6.26556353 14.4111421,6.84858286 14.4111421,7.48052145 L14.4111421,7.63407662 C14.4111421,8.59418645 15.155365,9.375 16.0702452,9.375 C16.3360543,9.375 16.5998457,9.33789269 16.8532298,9.26479241 L21.9447001,7.80802409 L26.7051569,7.80802409 C27.2283855,7.80802409 27.7346228,7.64711432 28.1691776,7.34256695 C28.8635945,6.85727467 29.2936891,6.06386914 29.3405216,5.196249 L28.3493926,5.03812507 C28.3492864,5.61635277 28.0755126,6.15335013 27.6170636,6.47349818 Z" id="Shape"></path>
                        <rect id="Rectangle-path" x="9.375" y="11.25" width="1" height="2.8125"></rect>
                        <rect id="Rectangle-path" transform="translate(6.093750, 14.531250) rotate(45.000000) translate(-6.093750, -14.531250) " x="4.6875" y="14.0625" width="2.8125" height="1"></rect>
                        <rect id="Rectangle-path" transform="translate(13.593750, 13.593750) rotate(-135.000000) translate(-13.593750, -13.593750) " x="13.125" y="12.1875" width="1" height="2.8125"></rect>
                    </g>
                </g>
            </g>
        </g>
    </g>
</svg>