<?xml version="1.0" encoding="UTF-8"?>
<svg width="14px" height="27px" viewBox="0 0 14 27" version="1.1" xmlns="http://www.w3.org/2000/svg" xmlns:xlink="http://www.w3.org/1999/xlink">
    <!-- Generator: sketchtool 51.1 (57501) - http://www.bohemiancoding.com/sketch -->
    <title>107BB8F7-773F-422B-A14C-A298F8065FAD</title>
    <desc>Created with sketchtool.</desc>
    <defs></defs>
    <g id="Page-1" stroke="none" stroke-width="1" fill="none" fill-rule="evenodd">
        <g id="Icon-Lib" transform="translate(-635.000000, -505.000000)" fill="#000000" fill-rule="nonzero">
            <g id="Supporting-icons" transform="translate(21.000000, 400.000000)">
                <g id="cocktail" transform="translate(614.000000, 105.000000)">
                    <g id="Group-15">
                        <path d="M11.6404697,7.97507227 C11.5030682,7.4757832 11.4768712,6.96694922 11.462553,6.45141797 C12.9195606,6.11038477 14,4.79835352 14,3.26953125 C14,1.46670117 12.5250682,0 10.7121212,0 C8.98858333,0 7.57219697,1.32605859 7.43659848,3.00585937 C7.43659848,3.00585937 2.53325758,3.00585937 2.52185606,3.00585937 C2.15589394,3.00585937 1.89715909,3.39234961 2.02915152,3.72832031 C2.18081818,4.11459961 2.24800758,6.78601758 2.08398485,7.57487109 C1.91365152,8.39425781 1.52536364,9.17868164 1.19636364,9.94317187 C0.608257576,11.3101523 0,12.7235918 0,13.7109375 C0,15.6186035 0.671522727,17.1663047 1.94202273,18.1867676 C2.73127273,18.8206875 3.7555,19.2514219 4.95711364,19.4638359 C5.08406818,19.7900508 5.1969697,20.3835234 5.1969697,21.4628906 C5.1969697,22.5313945 4.64322727,23.4708574 4.3849697,23.8509668 C3.05486364,23.9913457 2.01515152,25.113375 2.01515152,26.4726562 C2.01515152,26.7638555 2.25262121,27 2.54545455,27 L11.030303,27 C11.3231364,27 11.5606061,26.7638555 11.5606061,26.4726562 C11.5606061,25.1130059 10.5203106,23.9906602 9.18967424,23.8508613 C8.93088636,23.4724922 8.37878788,22.5393047 8.37878788,21.4628906 C8.37878788,20.3423906 8.54540909,19.7512383 8.68731818,19.4508105 C9.85907576,19.2342305 10.8596515,18.8085059 11.6337348,18.1867676 C12.9042348,17.1663047 13.5757576,15.6186035 13.5757576,13.7109375 C13.5757576,12.8199375 12.9915227,11.4014355 12.4265909,10.0295508 C12.1487652,9.35513086 11.8347727,8.68097461 11.6404697,7.97507227 Z M10.7121212,1.0546875 C11.94025,1.0546875 12.9393939,2.04825586 12.9393939,3.26953125 C12.9393939,4.21985742 12.3232348,5.04694336 11.4592121,5.35507031 C11.4781439,4.44650977 11.5478258,3.86163281 11.5995833,3.72842578 C11.7316288,3.38871094 11.4745379,3.00585938 11.1069318,3.00585938 L8.50054545,3.00585938 C8.63206061,1.9084043 9.5737197,1.0546875 10.7121212,1.0546875 Z M10.4706212,4.06054687 C10.4216212,4.51047656 10.4031667,5.04673242 10.39675,5.46264844 C9.58559848,5.34984961 8.91333333,4.80737109 8.62972727,4.06054687 L10.4706212,4.06054687 Z M3.15715909,4.06054687 L7.52075758,4.06054687 C7.85262121,5.40516797 9.00237121,6.3971543 10.403697,6.52503516 C10.4139848,6.86496094 10.4349318,7.27033008 10.4769848,7.59375 L3.15493182,7.59375 C3.25993182,6.81612891 3.27356061,5.10590039 3.15715909,4.06054687 Z M8.90909091,24.890625 C9.60044697,24.890625 10.19025,25.3314316 10.4091061,25.9453125 L3.16665152,25.9453125 C3.38550758,25.3314316 3.97531061,24.890625 4.66666667,24.890625 L8.90909091,24.890625 Z M6.09689394,19.596252 C6.10739394,19.643502 6.74163636,19.6170293 6.79965152,19.6170293 C7.03871212,19.6166602 7.27856818,19.609541 7.51715152,19.594459 C7.38494697,20.0994961 7.31818182,20.723502 7.31818182,21.4628906 C7.31818182,22.4074688 7.64081818,23.2483711 7.94881818,23.8359375 L5.62699242,23.8359375 C5.93493939,23.2483711 6.25757576,22.4074688 6.25757576,21.4628906 C6.25757576,20.7002461 6.20539394,20.0850996 6.09689394,19.596252 Z M6.78787879,18.5625 C4.64890152,18.5625 1.06060606,17.9322187 1.06060606,13.7109375 C1.06060606,12.9398027 1.65083333,11.5681816 2.17153788,10.3580859 C2.43409091,9.74794922 2.68497727,9.16486523 2.86904545,8.6484375 L10.7485,8.6484375 C10.9293333,9.17704688 11.1813333,9.7890293 11.445053,10.4293301 C11.9466667,11.6471777 12.5151515,13.0276055 12.5151515,13.7109375 C12.5151515,17.9322187 8.92685606,18.5625 6.78787879,18.5625 Z" id="Shape"></path>
                        <path d="M10.6174062,12.5882845 C10.4708052,12.1406042 9.73820753,10.4811406 9.61190987,10.0682363 C9.53461489,9.81555341 9.24609444,9.66492205 8.9809813,9.73883313 C8.71932837,9.81177552 8.55720736,10.0885788 8.63490942,10.3394696 C8.90383897,11.2078522 9.35682116,12.0125434 9.64503629,12.8751138 C9.82008221,13.3989332 9.78369912,13.9562208 9.58086975,14.4704501 C9.48489981,14.7158678 9.619848,15.0026002 9.87900754,15.0942868 C10.1224435,15.1804033 10.4428182,15.041251 10.533954,14.810412 C10.8133151,14.1026383 10.8474084,13.3098621 10.6174062,12.5882845 Z" id="Shape"></path>
                        <ellipse id="Oval" cx="9.15384615" cy="16.74" rx="1" ry="1"></ellipse>
                    </g>
                </g>
            </g>
        </g>
    </g>
</svg>