<svg xmlns="http://www.w3.org/2000/svg" width="22" height="20" viewBox="0 0 22 20">
    <path fill="#181818" fill-rule="nonzero" stroke="#000" stroke-width=".5" d="M20.89 9.646L11 1 1.11 9.646a.312.312 0 0 0-.018.459.36.36 0 0 0 .487.017l1.145-1v10.825h16.552V9.121l1.144 1c.067.058.151.087.235.087a.353.353 0 0 0 .253-.104.311.311 0 0 0-.018-.458zM8.93 19.298v-5.194c0-1.074.929-1.948 2.07-1.948 1.14 0 2.069.874 2.069 1.948v5.194H8.93zm9.656 0H13.76v-5.194c0-1.432-1.238-2.597-2.76-2.597-1.52 0-2.758 1.165-2.758 2.597v5.194H3.414V8.518L11 1.886l7.586 6.632v10.78z"/>
</svg>
