<?xml version="1.0" encoding="UTF-8"?>
<svg width="42px" height="40px" viewBox="0 0 42 40" version="1.1" xmlns="http://www.w3.org/2000/svg" xmlns:xlink="http://www.w3.org/1999/xlink">
    <!-- Generator: sketchtool 51.1 (57501) - http://www.bohemiancoding.com/sketch -->
    <title>2B78A1DB-7FD5-4955-A281-89D0ABC4C675</title>
    <desc>Created with sketchtool.</desc>
    <defs></defs>
    <g id="Page-1" stroke="none" stroke-width="1" fill="none" fill-rule="evenodd">
        <g id="Icon-Lib" transform="translate(-245.000000, -560.000000)" fill="#C99700" fill-rule="nonzero">
            <g id="Supporting-icons" transform="translate(21.000000, 400.000000)">
                <g id="invitation-copy" transform="translate(224.000000, 160.000000)">
                    <path d="M36.8008594,9.82667887 L36.8008594,0 L5.19914062,0 L5.19914062,9.82667887 L0,13.6660522 L0,39.7894737 L42,39.7894737 L42,13.6660522 L36.8008594,9.82667887 Z M36.8008594,12.7826793 L38.8226836,14.2757171 L36.8008594,15.9767948 L36.8008594,12.7826793 Z M7.33003906,1.99816344 L34.6699609,1.99816344 L34.6699609,18.1028957 L21,29.6041597 L7.33003906,18.1028957 L7.33003906,1.99816344 Z M5.19914062,12.7826793 L5.19914062,15.9767948 L3.17731641,14.2757171 L5.19914062,12.7826793 Z M2.1123593,16.2295566 L14.864418,26.9585414 L2.1123593,36.7718098 L2.1123593,16.2295566 Z M4.12135937,37.6292051 L16.2038477,28.3311732 L21,32.3664254 L25.7961523,28.3311732 L37.8786406,37.6292051 L4.12135937,37.6292051 Z M39.8876407,36.7718098 L27.135582,26.9585414 L39.8876407,16.2295566 L39.8876407,36.7718098 Z" id="Shape"></path>
                    <path d="M29.8421053,12.9641937 L23.7323529,12.0890674 L21,6.63157895 L18.2676471,12.0890674 L12.1578947,12.9641937 L16.5789474,17.2122751 L15.5352103,23.2105263 L21,20.3784996 L26.4647897,23.2105263 L25.4210526,17.2122751 L29.8421053,12.9641937 Z M24.0128329,20.0272812 L21.0000178,18.4659759 L17.9870831,20.0273991 L18.5625243,16.7204259 L16.1250309,14.3782911 L19.4936102,13.895813 L21.0000178,10.8869554 L22.5064253,13.8956951 L25.8748851,14.3781732 L23.4373916,16.720308 L24.0128329,20.0272812 Z" id="Shape"></path>
                </g>
            </g>
        </g>
    </g>
</svg>