<?xml version="1.0" encoding="UTF-8"?>
<svg width="17px" height="17px" viewBox="0 0 17 17" version="1.1" xmlns="http://www.w3.org/2000/svg" xmlns:xlink="http://www.w3.org/1999/xlink">
    <!-- Generator: sketchtool 51.1 (57501) - http://www.bohemiancoding.com/sketch -->
    <title>895801E0-55BD-48B8-BCEA-D902F818246D</title>
    <desc>Created with sketchtool.</desc>
    <defs></defs>
    <g id="Page-1" stroke="none" stroke-width="1" fill="none" fill-rule="evenodd">
        <g id="Icon-Lib" transform="translate(-111.000000, -700.000000)" fill="#000000" fill-rule="nonzero">
            <g id="Supporting-icons" transform="translate(21.000000, 400.000000)">
                <g id="About-Us" transform="translate(90.000000, 300.000000)">
                    <g id="noun_about_1231042">
                        <path d="M17,13.3898231 L17,0.573030947 C17,0.256554694 16.7396411,0 16.4184721,0 L0.581527936,0 C0.260358925,0 0,0.256554694 0,0.573030947 L0,16.4268872 C-2.17189829e-05,16.6695515 0.155074674,16.885919 0.387177118,16.9670192 C0.619279563,17.0481193 0.878057558,16.976366 1.0331813,16.7878967 L3.35929304,13.9628541 L16.4184721,13.9628541 C16.7396411,13.9628541 17,13.7062994 17,13.3898231 Z M15.8369441,12.8167922 L3.07240593,12.8167922 C2.89712115,12.8167798 2.73118198,12.8946773 2.62075257,13.0288136 L1.16305587,14.8032995 L1.16305587,1.14606189 L15.8369441,1.14606189 L15.8369441,12.8167922 Z" id="Shape"></path>
                        <rect id="Rectangle-path" x="9" y="6" width="1" height="4"></rect>
                        <rect id="Rectangle-path" x="9" y="3" width="1" height="2"></rect>
                    </g>
                </g>
            </g>
        </g>
    </g>
</svg>