<?xml version="1.0" encoding="UTF-8"?>
<svg width="15px" height="17px" viewBox="0 0 15 17" version="1.1" xmlns="http://www.w3.org/2000/svg" xmlns:xlink="http://www.w3.org/1999/xlink">
    <!-- Generator: sketchtool 51.1 (57501) - http://www.bohemiancoding.com/sketch -->
    <title>890F8754-198D-4FDB-BFFA-6BD8063CA7CB</title>
    <desc>Created with sketchtool.</desc>
    <defs></defs>
    <g id="Page-1" stroke="none" stroke-width="1" fill="none" fill-rule="evenodd">
        <g id="Icon-Lib" transform="translate(-636.000000, -569.000000)" fill="#505050" fill-rule="nonzero" stroke="#3E3E3E" stroke-width="0.5">
            <g id="Supporting-icons" transform="translate(21.000000, 400.000000)">
                <g id="Upload" transform="translate(615.000000, 169.000000)">
                    <g id="noun_Upload_1859191" transform="translate(1.000000, 1.000000)">
                        <path d="M2.23562257,4.90816343 L6.10613681,1.28408187 L6.10613681,12.6020408 C6.10613681,12.8218276 6.27558481,13 6.48460952,13 C6.69363422,13 6.86308223,12.8218276 6.86308223,12.6020408 L6.86308223,1.28408187 L10.7335965,4.90816343 C10.8035422,4.972392 10.8930515,5.0081568 10.9859116,5.00897975 C11.0991591,5.01071768 11.2069553,4.95795301 11.2785972,4.86571445 C11.3456087,4.78695248 11.3800745,4.68339853 11.3743946,4.57788724 C11.3687147,4.47237595 11.3233556,4.37357303 11.2483194,4.30326548 L6.73692466,0.100816583 C6.70601801,0.0717014428 6.67002748,0.0491755002 6.6309523,0.0344900534 C6.58515961,0.011870982 6.53520306,9.73159721e-05 6.48460952,2.58172114e-07 C6.44235653,-5.26938484e-05 6.40045234,0.00804027506 6.3609751,0.0238778087 C6.32189992,0.0385632556 6.28590939,0.0610891981 6.25500274,0.090204338 L1.73099229,4.30326548 C1.59350943,4.45403137 1.58926292,4.69056655 1.72123635,4.84668096 C1.85320978,5.00279537 2.07710925,5.02609271 2.23562257,4.90020424 L2.23562257,4.90816343 Z" id="Shape"></path>
                        <path d="M12.5995893,13 C12.3784486,13 12.1991786,13.175828 12.1991786,13.3927229 L12.1991786,14.476638 C12.1963291,14.5733514 12.1162971,14.6506924 12.0176591,14.6520542 L0.982340862,14.6520542 C0.883702918,14.6506924 0.803670937,14.5733514 0.800821355,14.476638 L0.800821355,13.3927229 C0.800821355,13.175828 0.621551389,13 0.400410678,13 C0.179269967,13 0,13.175828 0,13.3927229 L0,14.476638 C0.00147144325,15.0077307 0.440849745,15.437502 0.982340862,15.4375 L12.0176591,15.4375 C12.5591503,15.437502 12.9985286,15.0077307 13,14.476638 L13,13.3927229 C13,13.175828 12.82073,13 12.5995893,13 Z" id="Shape"></path>
                    </g>
                </g>
            </g>
        </g>
    </g>
</svg>