<?xml version="1.0" encoding="UTF-8"?>
<svg width="17px" height="14px" viewBox="0 0 17 14" version="1.1" xmlns="http://www.w3.org/2000/svg" xmlns:xlink="http://www.w3.org/1999/xlink">
    <!-- Generator: sketchtool 51.1 (57501) - http://www.bohemiancoding.com/sketch -->
    <title>6FA9934A-7D15-491B-ADEB-B3D07F6AF2AD</title>
    <desc>Created with sketchtool.</desc>
    <defs></defs>
    <g id="Page-1" stroke="none" stroke-width="1" fill="none" fill-rule="evenodd">
        <g id="Icon-Lib" transform="translate(-268.000000, -816.000000)" fill="#000000" fill-rule="nonzero">
            <g id="Supporting-icons" transform="translate(21.000000, 400.000000)">
                <g id="Camera" transform="translate(247.000000, 416.000000)">
                    <g id="photo-camera-(1)">
                        <path d="M15.0350558,13.6 L1.9646385,13.6 C0.881160315,13.6 0,12.707795 0,11.6107363 L0,3.54323256 C0,2.4461738 0.881160315,1.55396882 1.9646385,1.55396882 L4.63165782,1.55396882 L4.86510543,0.756581573 C4.96037978,0.320254903 5.35431627,0 5.81764508,0 L11.1824059,0 C11.6326408,0 12.0311118,0.318604104 12.1365759,0.760553806 L12.1427916,0.787740394 L12.355605,1.55391723 L15.0353615,1.55391723 C16.1188397,1.55391723 17,2.44612222 17,3.54318097 L17,11.6106331 C16.9996943,12.707795 16.1182283,13.6 15.0350558,13.6 Z M1.9646385,2.21707393 C1.24228575,2.21707393 0.654896484,2.81187725 0.654896484,3.54323256 L0.654896484,11.6106847 C0.654896484,12.3420916 1.24233669,12.9368433 1.9646385,12.9368433 L15.0350558,12.9368433 C15.7574086,12.9368433 16.3447978,12.34204 16.3447978,11.6106847 L16.3447978,3.54323256 C16.3447978,2.81182566 15.7573576,2.21707393 15.0350558,2.21707393 L11.859567,2.21707393 L11.50104,0.922383644 C11.4679742,0.771851458 11.3340296,0.662795585 11.1821002,0.662795585 L5.81728844,0.662795585 C5.66306628,0.662795585 5.53207679,0.769530023 5.49834866,0.922744756 L5.11984967,2.21707393 L1.9646385,2.21707393 Z M8.50035664,11.5957759 C6.20862654,11.5957759 4.34415347,9.7082942 4.34415347,7.38814854 C4.34415347,5.06769336 6.20857559,3.18021166 8.50035664,3.18021166 C10.7914754,3.18021166 12.6555918,5.06800288 12.6555918,7.38814854 C12.6555408,9.70798468 10.7914244,11.5957759 8.50035664,11.5957759 Z M8.50035664,3.84295566 C6.56975197,3.84295566 4.99904995,5.43303569 4.99904995,7.38783902 C4.99904995,9.34264234 6.56980292,10.9323613 8.50035664,10.9323613 C10.4306047,10.9323613 12.0006953,9.34228123 12.0006953,7.38783902 C12.0006444,5.43303569 10.430248,3.84295566 8.50035664,3.84295566 Z" id="Shape"></path>
                    </g>
                </g>
            </g>
        </g>
    </g>
</svg>