<svg xmlns="http://www.w3.org/2000/svg" width="17" height="22" viewBox="0 0 17 22">
    <g fill="#000" fill-rule="nonzero" stroke="#000" stroke-width=".5">
        <path d="M8.502 1C4.359 1.004 1.002 4.458 1 8.718c0 4.145 6.919 12.176 7.212 12.513a.379.379 0 0 0 .576 0C9.08 20.89 16 12.863 16 8.718 15.998 4.459 12.643 1.007 8.502 1zm0 19.362c-1.32-1.588-6.73-8.254-6.73-11.648 0-3.822 3.013-6.92 6.73-6.92 3.717 0 6.73 3.098 6.73 6.92 0 3.394-5.41 10.068-6.73 11.648z"/>
        <path d="M8.496 4.394c-2.301.002-4.165 1.903-4.163 4.246.003 2.343 1.87 4.241 4.171 4.239 2.3-.002 4.163-1.901 4.163-4.243-.005-2.342-1.87-4.24-4.171-4.242zm0 7.683c-1.864 0-3.375-1.539-3.375-3.437s1.51-3.436 3.375-3.436c1.864 0 3.375 1.538 3.375 3.436-.002 1.897-1.512 3.435-3.375 3.437z"/>
    </g>
</svg>
