<?xml version="1.0" encoding="UTF-8"?>
<svg width="20px" height="19px" viewBox="0 0 20 19" version="1.1" xmlns="http://www.w3.org/2000/svg" xmlns:xlink="http://www.w3.org/1999/xlink">
    <!-- Generator: sketchtool 51.1 (57501) - http://www.bohemiancoding.com/sketch -->
    <title>6C5342A2-ED78-4900-BCB1-AA2141E98D27</title>
    <desc>Created with sketchtool.</desc>
    <defs></defs>
    <g id="Page-1" stroke="none" stroke-width="1" fill="none" fill-rule="evenodd">
        <g id="Icon-Lib" transform="translate(-334.000000, -324.000000)" fill="#C99700" fill-rule="nonzero">
            <g id="Product-Icons" transform="translate(31.000000, 263.000000)">
                <g id="Gift" transform="translate(303.000000, 61.000000)">
                    <path d="M18.8095238,4.02522068 L13.5883333,4.02522068 C14.49,3.62205355 15.267381,3.09494131 15.5397619,2.45885876 C15.6785714,2.13448201 15.8059524,1.4880323 15.0985714,0.803569696 C14.547619,0.270467553 13.947619,2.04619628e-16 13.3154762,2.04619628e-16 C11.8592857,2.04619628e-16 10.637619,1.45992579 10,2.80673441 C9.36214286,1.45992579 8.14047619,0 6.68452381,0 C6.05238095,0 5.45261905,0.270467553 4.90142857,0.803569696 C4.19404762,1.4880323 4.32142857,2.13425162 4.4602381,2.45885876 C4.73261905,3.09494131 5.51,3.62205355 6.41166667,4.02522068 L1.19047619,4.02522068 C0.534047619,4.02522068 0,4.54196576 0,5.17712678 L0,8.17208265 C0,8.72822291 0.409761905,9.19382336 0.952380952,9.30048986 L0.952380952,17.8480939 C0.952380952,18.4832549 1.48642857,19 2.14285714,19 L17.8571429,19 C18.5135714,19 19.047619,18.4832549 19.047619,17.8480939 L19.047619,9.30048986 C19.5902381,9.19359298 20,8.72822291 20,8.17208265 L20,5.17712678 C20,4.54196576 19.4659524,4.02522068 18.8095238,4.02522068 Z M13.3154762,0.921524881 C13.6857143,0.921524881 14.0590476,1.10099185 14.4252381,1.45508779 C14.7880952,1.80618877 14.6980952,2.01652682 14.6597619,2.10614512 C14.2895238,2.97099622 11.9083333,3.76650257 10.5635714,3.97315453 C10.892619,2.82700795 12.0985714,0.921524881 13.3154762,0.921524881 Z M5.3402381,2.1063755 C5.30190476,2.01652682 5.21190476,1.80641915 5.5747619,1.45531817 C5.94095238,1.10122223 6.31404762,0.921755262 6.68452381,0.921755262 C7.90142857,0.921755262 9.10738095,2.82723834 9.43642857,3.97338491 C8.09142857,3.76673295 5.71047619,2.9712266 5.3402381,2.1063755 Z M0.952380952,5.17712678 C0.952380952,5.05226016 1.06142857,4.94674556 1.19047619,4.94674556 L9.52380952,4.94674556 L9.52380952,8.40246387 L1.19047619,8.40246387 C1.06142857,8.40246387 0.952380952,8.29694927 0.952380952,8.17208265 L0.952380952,5.17712678 Z M2.14285714,18.0784751 C2.01380952,18.0784751 1.9047619,17.9729605 1.9047619,17.8480939 L1.9047619,9.32398875 L9.52380952,9.32398875 L9.52380952,18.0784751 L2.14285714,18.0784751 Z M17.8571429,18.0784751 L10.4761905,18.0784751 L10.4761905,9.32398875 L18.0952381,9.32398875 L18.0952381,17.8480939 C18.0952381,17.9729605 17.9861905,18.0784751 17.8571429,18.0784751 Z M19.047619,8.17208265 C19.047619,8.29694927 18.9385714,8.40246387 18.8095238,8.40246387 L10.4761905,8.40246387 L10.4761905,4.94674556 L18.8095238,4.94674556 C18.9385714,4.94674556 19.047619,5.05226016 19.047619,5.17712678 L19.047619,8.17208265 Z" id="Shape"></path>
                </g>
            </g>
        </g>
    </g>
</svg>