<svg xmlns="http://www.w3.org/2000/svg" width="20" height="19" viewBox="0 0 20 19">
    <path fill="#C99700" fill-rule="nonzero" d="M18.81 4.025h-5.222c.902-.403 1.68-.93 1.952-1.566.139-.325.266-.971-.441-1.655C14.548.27 13.948 0 13.315 0 11.86 0 10.638 1.46 10 2.807 9.362 1.46 8.14 0 6.685 0 6.052 0 5.453.27 4.9.804c-.707.684-.58 1.33-.44 1.655.272.636 1.049 1.163 1.95 1.566h-5.22C.533 4.025 0 4.542 0 5.177v2.995C0 8.728.41 9.194.952 9.3v8.548c0 .635.534 1.152 1.19 1.152h15.715c.657 0 1.19-.517 1.19-1.152V9.3c.543-.106.953-.572.953-1.128V5.177c0-.635-.534-1.152-1.19-1.152zM13.315.922c.37 0 .744.179 1.11.533.363.351.273.562.235.651-.37.865-2.752 1.66-4.096 1.867.329-1.146 1.535-3.051 2.751-3.051zM5.34 2.106c-.038-.09-.128-.3.235-.65.366-.355.739-.534 1.11-.534 1.216 0 2.422 1.905 2.751 3.051C8.091 3.767 5.71 2.971 5.34 2.106zM.952 5.177c0-.125.11-.23.238-.23h8.334v3.455H1.19a.237.237 0 0 1-.238-.23V5.177zm1.19 12.901a.237.237 0 0 1-.237-.23V9.324h7.619v8.754H2.143zm15.715 0h-7.38V9.324h7.618v8.524c0 .125-.109.23-.238.23zm1.19-9.906c0 .125-.108.23-.237.23h-8.334V4.947h8.334c.129 0 .238.105.238.23v2.995z"/>
</svg>
