<svg xmlns="http://www.w3.org/2000/svg" width="36" height="34" viewBox="0 0 36 34">
    <path fill="#3E3E3E" fill-rule="nonzero" d="M30.331 10.516l.413-1.707a.711.711 0 0 0-.504-.873l-.014-.002-20.87-5.022.184-.753a.713.713 0 0 0-.52-.86h-.005L3.725.019a.716.716 0 0 0-.86.527L.02 12.422c-.092.38.14.766.523.86h.004l5.29 1.28a.738.738 0 0 0 .171 0 .716.716 0 0 0 .713-.548l.183-.755 5.388 1.303a4.324 4.324 0 0 0 1.928 4.678L6.875 32.822a.711.711 0 0 0 1.25.675L15.5 19.808l.28.058v13.297a.71.71 0 0 0 1.418 0V19.867h.194l7.351 13.665a.716.716 0 0 0 .979.268.72.72 0 0 0 .268-.978L18.714 19.31a4.38 4.38 0 0 0 1.992-2.678l7.016 1.688a.5.5 0 0 0 .163 0 .704.704 0 0 0 .71-.545l.416-1.706 5.095 1.228c.056.007.11.007.165 0a.71.71 0 0 0 .71-.547l1.01-4.195a.714.714 0 0 0-.585-.811l-5.075-1.229zM1.55 12.064L4.08 1.57l3.912.947-2.537 10.495-3.905-.947zm14.93 6.443a2.936 2.936 0 1 1 .002-5.873 2.936 2.936 0 0 1-.002 5.873zm10.887-1.734l-6.55-1.586a4.35 4.35 0 0 0-4.714-3.954 4.352 4.352 0 0 0-3.306 2.02l-5.61-1.359 1.835-7.6 14.88 3.595-1.022 4.269a.709.709 0 0 0 .522.858c.002 0 .002.002.005.002a.738.738 0 0 0 .172 0 .71.71 0 0 0 .708-.547l1.025-4.267 3.902.947-1.847 7.622zm6.4-.996l-4.41-1.068.713-2.844 4.407 1.068-.71 2.844z"/>
</svg>
