<svg xmlns="http://www.w3.org/2000/svg" width="19" height="22" viewBox="0 0 19 22">
    <path fill="#000" fill-rule="nonzero" d="M18.306 10.852a1.773 1.773 0 0 0-.76-.362l.051-.105.174-.18c.667-.691.738-1.78.163-2.532a1.809 1.809 0 0 0-1.067-.68c.03-.056.056-.115.08-.174.455-.682.448-1.599-.056-2.258a1.809 1.809 0 0 0-1.067-.68 1.949 1.949 0 0 0-.16-2.082 1.797 1.797 0 0 0-1.435-.72c-.45 0-.876.167-1.21.473a1.89 1.89 0 0 0-.36-.833A1.798 1.798 0 0 0 11.224 0c-.489 0-.948.197-1.292.553L5.55 5.09l-.016-.605c-.008-1.032-.82-1.868-1.819-1.868-.98 0-1.78.806-1.816 1.812l-.875 6.585-.719.866a1.354 1.354 0 0 0 .066 1.786l1.068 1.105a1.355 1.355 0 0 0 .16 1.658l5.016 5.187a1.24 1.24 0 0 0 1.67.112l1.046-.833c1.008-.246 2.119-.806 3.304-1.665 1.035-.75 2.158-1.75 3.337-2.97l2.494-2.583c.368-.381.561-.91.53-1.45a1.918 1.918 0 0 0-.69-1.375zm-4.758-8.586a.944.944 0 0 1 1.438.088c.307.4.253.983-.096 1.344l-.445.46a1.82 1.82 0 0 0-.198.156 1.89 1.89 0 0 0-.361-.833 1.82 1.82 0 0 0-.898-.636l.56-.58zm-3.005-1.08a.944.944 0 0 1 1.438.088c.307.401.253.983-.096 1.345L6.778 7.853l-.017-.606A1.905 1.905 0 0 0 6.087 5.8l4.456-4.614zM.98 13.033a.43.43 0 0 1-.02-.57l.884-1.065v-.002L2.761 4.5c0-.544.43-.988.954-.988.525 0 .954.444.954.988l.025.897c-.863.123-1.535.875-1.568 1.794l-.875 6.586-.254.306-1.016-1.05zm16.874.01l-2.494 2.583c-2.13 2.206-4.357 3.977-6.312 4.418a.406.406 0 0 0-.164.078l-1.127.896a.394.394 0 0 1-.532-.035l-5.017-5.188a.43.43 0 0 1-.021-.57l.884-1.064v-.002l.917-6.897c0-.543.43-.988.954-.988.525 0 .954.445.954.988l.045 1.628a.45.45 0 0 0 .446.446c.109 0 .22-.042.31-.135l5.072-5.253a.944.944 0 0 1 1.439.089c.306.4.252.983-.097 1.344L9.618 9a.493.493 0 0 0 0 .68.46.46 0 0 0 .665 0l4.492-4.65a.944.944 0 0 1 1.439.087c.306.401.252.983-.097 1.345l-4.47 4.63a.5.5 0 0 0 0 .689.454.454 0 0 0 .655 0l3.516-3.64a.944.944 0 0 1 1.438.088c.307.401.253.983-.096 1.345l-3.482 3.605a.511.511 0 0 0 0 .706l.005.005a.436.436 0 0 0 .63 0l2.158-2.235a.997.997 0 0 1 .715-.308c.206 0 .412.068.584.208.458.376.486 1.074.085 1.49z"/>
</svg>
