<?xml version="1.0" encoding="UTF-8"?>
<svg width="42px" height="42px" viewBox="0 0 42 42" version="1.1" xmlns="http://www.w3.org/2000/svg" xmlns:xlink="http://www.w3.org/1999/xlink">
    <!-- Generator: sketchtool 51.1 (57501) - http://www.bohemiancoding.com/sketch -->
    <title>15E9ACC3-F7ED-4C1A-8A2F-3C93B33B356E</title>
    <desc>Created with sketchtool.</desc>
    <defs></defs>
    <g id="Page-1" stroke="none" stroke-width="1" fill="none" fill-rule="evenodd">
        <g id="Icon-Lib" transform="translate(-21.000000, -802.000000)">
            <g id="Supporting-icons" transform="translate(21.000000, 400.000000)">
                <g id="Review-Clap-Icon" transform="translate(0.000000, 402.000000)">
                    <g id="Group-40">
                        <g id="Group" stroke="#C99700">
                            <g id="Group-5">
                                <rect id="Rectangle-28-Copy-2" x="0.5" y="0.5" width="41" height="41" rx="20.5"></rect>
                            </g>
                        </g>
                        <g id="Group" transform="translate(12.000000, 10.000000)" fill="#C99700" fill-rule="nonzero">
                            <path d="M18.3058772,10.8524911 C18.0845796,10.6710508 17.8225943,10.547555 17.5456303,10.4895358 C17.5639217,10.4552314 17.5809889,10.4203304 17.59712,10.3849074 L17.7705286,10.2053314 C18.4383821,9.51365057 18.5085233,8.42493373 17.9335672,7.67269818 C17.6621482,7.31764778 17.2853734,7.08169325 16.8669027,6.99362047 C16.8967883,6.93664536 16.9232893,6.87840247 16.9473418,6.81926469 C17.4021793,6.13698026 17.3947619,5.22000908 16.8910272,4.56091741 C16.6195362,4.20564328 16.2426174,3.968943 15.8239307,3.88101937 C16.1695956,3.22282259 16.1254513,2.40250029 15.6637006,1.79851935 C15.3145789,1.34174898 14.7916886,1.07969329 14.2289749,1.07969329 C13.7783862,1.07969329 13.3532903,1.24644245 13.0197236,1.55175149 C12.9692421,1.25501854 12.8495556,0.968427761 12.6587917,0.718826058 C12.3095981,0.262055687 11.7867078,7.45747544e-05 11.223994,0 C10.7350221,0 10.2760079,0.196504478 9.93156711,0.553195528 L5.55026358,5.09032359 L5.53355644,4.48477658 C5.52585099,3.45340773 4.71317823,2.61675356 3.71543069,2.61675356 C2.73575855,2.61675356 1.93460796,3.42327953 1.89860119,4.42877094 L1.02392478,11.0141692 L0.305013653,11.8795347 C-0.125843333,12.3983512 -0.0969659048,13.1831759 0.370906039,13.6664949 L1.43937087,14.7710962 C1.10998096,15.2842451 1.1676638,15.9841291 1.59823273,16.428893 L6.61519975,21.6160892 C6.85493281,21.8637519 7.17316063,22 7.51148022,22 C7.78923643,22 8.06368001,21.9034257 8.28411345,21.728175 L9.33147831,20.8953242 C10.3390197,20.6488546 11.4498285,20.0889473 12.6350273,19.2300699 C13.6699338,18.479997 14.7926968,17.4805462 15.9719185,16.25931 L18.4658193,13.6767117 C18.8335924,13.2958584 19.0271648,12.7677946 18.9969191,12.2279479 C18.9666734,11.6889962 18.7148421,11.1877047 18.3058772,10.8524911 Z M13.5475108,2.26558104 C13.734962,2.07153753 13.9818964,1.97451577 14.2289029,1.97451577 C14.5108359,1.97451577 14.7928409,2.10091998 14.9861252,2.35380297 C15.2926148,2.75479143 15.2388927,3.33669824 14.8896991,3.69823665 L14.4448715,4.15881033 C14.3763146,4.2061653 14.309558,4.25680156 14.2470503,4.31414954 C14.1965688,4.01734202 14.0768103,3.73075124 13.8860464,3.48122411 C13.6514983,3.17442357 13.3384555,2.95599412 12.9876776,2.84532518 L13.5475108,2.26558104 Z M10.542602,1.18596232 C10.7299812,0.991918808 10.9769876,0.894897053 11.223994,0.894897053 C11.505999,0.894971628 11.787932,1.02137584 11.9812164,1.27425883 C12.287706,1.67524728 12.2339839,2.25707952 11.8847902,2.61861793 L6.77766229,7.85272164 L6.76088313,7.24724921 C6.75649031,6.66370176 6.49443305,6.14264795 6.08712449,5.8001261 L10.542602,1.18596232 Z M0.981148743,13.0328332 C0.831216561,12.8778669 0.822070842,12.6293838 0.960192804,12.4630821 L1.84459104,11.3983783 C1.84502312,11.3978563 1.84538319,11.3971106 1.8454552,11.3964394 L2.76146738,4.49954238 C2.76146738,3.95619072 3.19074007,3.51165061 3.71543069,3.51165061 C4.24012132,3.51165061 4.66946602,3.95619072 4.66946602,4.49954238 L4.69431069,5.39704955 C3.83101242,5.5197996 3.15883807,6.27203515 3.12585587,7.19109442 L2.25125148,13.7765673 L1.99682766,14.0829203 L0.981148743,13.0328332 Z M17.8547124,13.0438703 L15.3608836,15.6264686 C13.2309393,17.8321661 11.0044968,19.6026454 9.04868116,20.0440533 C8.98926999,20.0575514 8.93338749,20.0834288 8.88513842,20.1218348 L7.75776651,21.0183725 C7.68474479,21.0764662 7.59796847,21.1050284 7.51155223,21.1050284 C7.4076367,21.1050284 7.30415325,21.0636394 7.22580252,20.9826512 L2.20854745,15.7952313 C2.05854326,15.6403395 2.04939754,15.3918564 2.18759151,15.2254802 L3.07191773,14.160851 C3.07242183,14.1602544 3.07270988,14.1595832 3.07285391,14.158912 L3.98879408,7.26201501 C3.98879408,6.71866335 4.41813878,6.27404866 4.9428294,6.27404866 C5.46752002,6.27404866 5.89679271,6.71866335 5.89679271,7.26201501 L5.94187319,8.88953445 C5.94936259,9.15994251 6.16417897,9.3360135 6.38770899,9.3360135 C6.49673748,9.3360135 6.60792638,9.29402792 6.69801531,9.20080948 L11.7700007,3.94843495 C11.9574519,3.75431686 12.2043143,3.65736968 12.4513927,3.65736968 C12.7333257,3.65736968 13.0153307,3.78377389 13.2086151,4.03665688 C13.5151047,4.43764534 13.4613106,5.01955214 13.1121169,5.38109055 L9.6181642,8.99930849 C9.4367621,9.18723687 9.4367621,9.49172559 9.6181642,9.67950482 C9.70998146,9.77458764 9.83031608,9.82216633 9.9506507,9.82216633 C10.0709853,9.82216633 10.1913919,9.77458764 10.2831372,9.67950482 L14.7749095,5.02805367 C14.9622887,4.83393558 15.2092231,4.7369884 15.4563016,4.7369884 C15.7382346,4.73706297 16.0202396,4.86346718 16.2135239,5.11635018 C16.5200135,5.51726406 16.4662194,6.09917086 16.1170258,6.46070927 L11.6463534,11.0903846 C11.4625029,11.2808485 11.4625029,11.5894389 11.6463534,11.7799028 C11.7369465,11.8737178 11.8556248,11.9206253 11.9744471,11.9206253 C12.0931254,11.9206253 12.2118757,11.8737178 12.3024688,11.7799028 L15.8175215,8.13990902 C16.0049727,7.94579093 16.2519071,7.84884375 16.4989135,7.84884375 C16.7808465,7.84884375 17.0628515,7.97524796 17.2561359,8.22820553 C17.5626255,8.62911941 17.5088314,9.21102622 17.1596377,9.57256463 L13.6778553,13.178254 C13.4897559,13.3729687 13.4897559,13.6888673 13.6778553,13.883582 L13.6834723,13.8894734 C13.7703927,13.9794852 13.8843181,14.0244537 13.9981715,14.0244537 C14.1120969,14.0244537 14.2260223,13.9794852 14.3128706,13.8894734 L16.4714044,11.6541697 C16.6659129,11.4527433 16.9263139,11.3462506 17.1858507,11.3462506 C17.3923135,11.3462506 17.5982002,11.4136662 17.7696644,11.5542396 C18.2276705,11.9296489 18.2560438,12.6283398 17.8547124,13.0438703 Z" id="Shape"></path>
                        </g>
                    </g>
                </g>
            </g>
        </g>
    </g>
</svg>