<svg xmlns="http://www.w3.org/2000/svg" width="20" height="20" viewBox="0 0 20 20">
    <g fill="#C99700" fill-rule="nonzero">
        <path d="M17.656 1.563h-.937V0h-1.563v1.563H4.844V0H3.28v1.563h-.937A2.346 2.346 0 0 0 0 3.905v13.75A2.346 2.346 0 0 0 2.344 20h15.312A2.346 2.346 0 0 0 20 17.656V3.906a2.346 2.346 0 0 0-2.344-2.344zm.782 16.093c0 .431-.351.782-.782.782H2.344a.782.782 0 0 1-.781-.782V7.344h16.875v10.312zm0-11.875H1.563V3.906c0-.43.35-.781.78-.781h.938v1.563h1.563V3.125h10.312v1.563h1.563V3.125h.937c.431 0 .782.35.782.781v1.875z"/>
        <path d="M3.043 9.13h1.739v1.739H3.043zM6.087 9.13h1.739v1.739H6.087zM9.13 9.13h1.739v1.739H9.13zM12.174 9.13h1.739v1.739h-1.739zM15.652 9.13h1.739v1.739h-1.739zM3.043 12.174h1.739v1.739H3.043zM6.087 12.174h1.739v1.739H6.087zM9.13 12.174h1.739v1.739H9.13zM12.174 12.174h1.739v1.739h-1.739zM3.043 15.217h1.739v1.739H3.043zM6.087 15.217h1.739v1.739H6.087zM9.13 15.217h1.739v1.739H9.13zM12.174 15.217h1.739v1.739h-1.739zM15.652 12.174h1.739v1.739h-1.739z"/>
    </g>
</svg>
