<svg xmlns="http://www.w3.org/2000/svg" width="27" height="27" viewBox="0 0 27 27">
    <path fill="#C99700" fill-rule="nonzero" d="M26.078 22.39l-9.989-9.028 1.801-1.995a5.057 5.057 0 0 0 5.839-.945c1.547-1.548 2.636-3.34 3.066-5.049.45-1.788.149-3.322-.849-4.32-.998-.998-2.532-1.3-4.32-.85-1.708.431-3.5 1.52-5.048 3.068a5.056 5.056 0 0 0-.946 5.838l-2.128 1.92-1.714-1.536a3.69 3.69 0 0 0-.873-3.841L5.373.155a.527.527 0 1 0-.742.748l4.42 4.382-.743.743-4.426-4.383a.527.527 0 0 0-.742.75l4.422 4.378-.746.746L2.39 3.137a.527.527 0 0 0-.742.75L6.07 8.263l-.748.75L.899 4.627a.527.527 0 1 0-.74.751l5.54 5.494a3.69 3.69 0 0 0 3.84.872l1.419 1.583L.92 22.388a2.618 2.618 0 0 0 3.69 3.69l8.936-9.9c.134.15 8.831 9.893 8.84 9.901a2.619 2.619 0 1 0 3.69-3.689zM17.324 4.016c1.414-1.415 3.033-2.405 4.56-2.79 1.413-.356 2.591-.153 3.316.573.725.725.929 1.903.573 3.317-.384 1.526-1.375 3.145-2.79 4.56a3.99 3.99 0 0 1-5.509.142 3.993 3.993 0 0 1-.15-5.802zm-10.88 6.11l-.374-.37L9.8 6.028l.374.371a2.635 2.635 0 0 1 0 3.729 2.634 2.634 0 0 1-3.73-.002zm4.054 1.11a3.73 3.73 0 0 0 .782-.784l1.437 1.288-.976.881-1.243-1.385zM3.823 25.377l-.01.012a1.562 1.562 0 0 1-2.3.097 1.562 1.562 0 0 1 .109-2.31l.437-.395 2.158 2.159-.394.437zm1.102-1.22l-2.082-2.083.784-.708 2.006 2.006-.708.784zm1.415-1.568l-1.93-1.93 11.8-10.65a5.14 5.14 0 0 0 .78.78L6.34 22.59zm7.918-7.198l1.125-1.246 7.36 6.652-1.951 1.913-6.534-7.32zm7.942 8.895l-.705-.789 2.032-1.991.763.69-2.09 2.09zm3.285 1.202c-.595.595-1.622.662-2.308-.106l-.274-.308 2.17-2.17.303.274a1.562 1.562 0 0 1 .109 2.31z"/>
</svg>
