<svg xmlns="http://www.w3.org/2000/svg" width="30" height="30" viewBox="0 0 30 30">
    <g fill="#C99700" fill-rule="nonzero">
        <path d="M18.703 28.056v-.973h-8.367v-.486h8.367v-2.916c0-2.68-2.208-4.861-4.922-4.861h-2.46v-.487a1.47 1.47 0 0 0-1.477-1.458 1.47 1.47 0 0 0-1.477 1.458v.487h-2.46C3.191 18.82.983 21 .983 23.68v2.917h8.368v.486H.984v.973a.98.98 0 0 1-.984.972V30h19.688v-.972a.98.98 0 0 1-.985-.972zm-8.86-10.209a.49.49 0 0 1 .493.486v.487h-.984v-.487a.49.49 0 0 1 .492-.486zM1.97 25.625v-1.944c0-2.145 1.766-3.89 3.937-3.89h7.875c2.171 0 3.938 1.745 3.938 3.89v1.944H1.969zm-.265 3.403c.169-.287.265-.618.265-.972h15.75c0 .354.096.685.264.972H1.704zM27.617 6.473c-.27.19-.586.29-.912.29h-4.827L16.59 8.257a1.881 1.881 0 0 1-.52.073c-.367 0-.664-.312-.664-.696v-.153c0-.253.13-.487.341-.61l3.883-2.263-.483-.913-.784.457h-2.311c-.483 0-.959.08-1.417.241l-3.644 1.275a.907.907 0 0 1-.3.05h-.31c-.524 0-.949-.445-.949-.994 0-.43.26-.809.65-.945l4.37-1.53a3.338 3.338 0 0 1 1.102-.187h11.382L30 .99 29.685 0l-2.91 1.017h-11.22c-.482 0-.959.082-1.417.242l-4.37 1.53c-.796.277-1.33 1.055-1.33 1.935 0 1.124.872 2.04 1.943 2.04h.31c.21 0 .417-.036.615-.106l3.644-1.274a3.332 3.332 0 0 1 1.103-.188h.519l-1.308.762c-.526.308-.853.89-.853 1.523v.153c0 .96.744 1.741 1.66 1.741.265 0 .529-.037.782-.11l5.092-1.457h4.76c.523 0 1.03-.16 1.464-.465a2.792 2.792 0 0 0 1.172-2.147l-.992-.158c0 .578-.273 1.115-.732 1.435zM9.375 11.25h1v2.813h-1zM5.43 13.206l1.99 1.99-.707.706-1.99-1.989zM12.931 14.92l-.707-.708 1.99-1.989.706.707z"/>
    </g>
</svg>
