<svg xmlns="http://www.w3.org/2000/svg" width="26" height="24" viewBox="0 0 26 24">
    <g fill="none" fill-rule="nonzero">
        <path fill="#C99700" d="M12.229 5.624a.508.508 0 0 0-.379-.48L7.007 3.867l-1.825-.482a.508.508 0 0 0-.562.225 14.754 14.754 0 0 0-1.66 3.812c-.596 2.185-.495 4.06.291 5.42a3.883 3.883 0 0 0 1.946 1.696L3.33 21.397l-2.692-.71a.508.508 0 0 0-.26.982l3.176.837 3.184.84a.51.51 0 0 0 .62-.361.508.508 0 0 0-.36-.621l-2.686-.708 1.867-6.858c.183.025.366.038.548.038 2.265 0 4.136-1.903 5.004-5.092.356-1.31.528-2.734.498-4.12zM10.75 9.477c-.74 2.72-2.244 4.344-4.023 4.344-.259 0-.523-.035-.784-.104a2.904 2.904 0 0 1-1.812-1.382c-.478-.828-.639-1.92-.48-3.206.677.11 1.318.153 1.925.153.998 0 1.908-.112 2.754-.217.955-.118 1.801-.222 2.554-.128-.04.182-.085.362-.134.54zm.32-1.54c-.9-.122-1.86-.004-2.864.12-1.286.16-2.727.337-4.377.073.033-.145.07-.292.11-.441.3-1.1.765-2.207 1.354-3.224l.807.213a15.42 15.42 0 0 0-.386.807.508.508 0 0 0 .927.414c.165-.369.325-.696.468-.955l4.107 1.083c-.004.637-.054 1.28-.146 1.91z"/>
        <path fill="#000" d="M22.45 22.506h-.001l-3.158.833 3.159-.833zM19.626 23.34c-.232.06-.36.095-.36.095l.36-.096z"/>
        <path fill="#C99700" d="M25.987 21.048a.508.508 0 0 0-.62-.361l-2.693.71-1.867-6.86a3.883 3.883 0 0 0 1.946-1.694c.786-1.362.887-3.236.292-5.42a14.756 14.756 0 0 0-1.662-3.813.508.508 0 0 0-.561-.225l-6.668 1.759a.508.508 0 0 0-.378.48 14.73 14.73 0 0 0 .498 4.12c.868 3.188 2.738 5.092 5.003 5.092.182 0 .365-.013.548-.038l1.867 6.858-2.685.708a.508.508 0 1 0 .259.982l3.183-.84 3.177-.837a.508.508 0 0 0 .361-.62zM14.788 6.027l5.923-1.562a13.694 13.694 0 0 1 1.354 3.224c.087.319.157.629.211.93a6.818 6.818 0 0 0-.945-.023c-.054-.372-.134-.76-.203-1.06a.508.508 0 1 0-.99.225c.077.34.137.652.179.92-.23.025-.463.055-.698.085-1.318.168-2.803.357-4.526.05a13.759 13.759 0 0 1-.305-2.789zm4.489 7.794c-1.687 0-3.127-1.462-3.902-3.933.566.077 1.105.11 1.618.11 1.002 0 1.91-.117 2.755-.225.996-.127 1.873-.238 2.653-.116.06 1.058-.117 1.966-.528 2.678a2.904 2.904 0 0 1-1.812 1.382 3.073 3.073 0 0 1-.784.104zM13.002 0a.508.508 0 0 0-.508.508v1.325a.508.508 0 0 0 1.016 0V.508A.508.508 0 0 0 13.002 0zM11.358 2.49l-.673-1.146a.508.508 0 1 0-.876.514l.673 1.147a.508.508 0 1 0 .876-.514zM16.014 1.163a.508.508 0 0 0-.695.18l-.673 1.148a.508.508 0 1 0 .877.514l.672-1.147a.508.508 0 0 0-.18-.695z"/>
    </g>
</svg>
