<svg xmlns="http://www.w3.org/2000/svg" width="32" height="23" viewBox="0 0 32 23">
    <path fill="#CA9800" fill-rule="nonzero" d="M3.813 13.643a.56.56 0 0 0-.274.732l1.258 2.7a.56.56 0 0 0 .503.325.557.557 0 0 0 .235-.05l9.504-4.44-.861 9.001a.56.56 0 0 0 .184.47 2.44 2.44 0 0 0 1.476.559c.15 0 .298-.019.442-.056.771-.201 1.37-.889 1.778-2.063l3.74-11.074 7.407-3.456c2.18-1.017 3.304-3.08 2.55-4.69A2.83 2.83 0 0 0 29.567.075a5.182 5.182 0 0 0-3.052.47l-8.548 4.008L8.778.958C7.62.522 6.704.534 6.06.998a2.28 2.28 0 0 0-.833 1.805.56.56 0 0 0 .24.442L11.657 7.5 8.112 9.176 2.17 7.666a.56.56 0 0 0-.62.27L.068 10.601a.558.558 0 0 0 .29.788l4.4 1.817-.945.436zm2.56-11.12a.956.956 0 0 1 .336-.603c.319-.23.9-.196 1.677.095l8.185 3.192-3.735 1.744-6.463-4.427zm-5.03 8.073l.972-1.727 5.719 1.42a.56.56 0 0 0 .37-.034L26.99 1.573a4.086 4.086 0 0 1 2.388-.38 1.75 1.75 0 0 1 1.364.883c.469 1.007-.453 2.477-2.013 3.204l-6.44 3.019.391-1.158a.568.568 0 1 0-1.079-.357l-4.6 13.69c-.275.778-.616 1.242-.996 1.342a.946.946 0 0 1-.682-.128l1.118-11.74a.561.561 0 0 0-1.118-.106l-.173 1.794-9.594 4.472-.788-1.677 1.577-.738a.56.56 0 0 0 0-1.023l-5.004-2.074z"/>
</svg>
