<svg xmlns="http://www.w3.org/2000/svg" width="15" height="17" viewBox="0 0 15 17">
    <g fill="#505050" fill-rule="nonzero" stroke="#3E3E3E" stroke-width=".5">
        <path d="M3.236 5.908l3.87-3.624v11.318c0 .22.17.398.379.398a.389.389 0 0 0 .378-.398V2.284l3.87 3.624c.07.064.16.1.253.101a.364.364 0 0 0 .293-.143.41.41 0 0 0-.03-.563L7.736 1.101a.318.318 0 0 0-.106-.067.332.332 0 0 0-.376.056L2.731 5.303a.416.416 0 0 0-.01.544c.132.156.356.18.515.053v.008z"/>
        <path d="M13.6 14c-.222 0-.4.176-.4.393v1.084a.183.183 0 0 1-.182.175H1.982a.183.183 0 0 1-.181-.175v-1.084A.397.397 0 0 0 1.4 14c-.222 0-.401.176-.401.393v1.084c.001.53.44.96.982.96h11.036c.541 0 .98-.43.982-.96v-1.084a.397.397 0 0 0-.4-.393z"/>
    </g>
</svg>
