<svg xmlns="http://www.w3.org/2000/svg" width="24" height="16" viewBox="0 0 24 16">
    <g fill="#000" fill-rule="nonzero">
        <path d="M7.875 4.338c-1.48.761-2.698 1.96-3.524 3.467a.526.526 0 0 0 .176.698c.077.046.16.068.242.068.168 0 .33-.09.42-.255a7.436 7.436 0 0 1 3.11-3.06c.24-.124.34-.43.223-.683a.471.471 0 0 0-.647-.235z"/>
        <path d="M23.5 11.571h-1.025c-.242-4.913-4.124-8.914-9.102-9.546.08-.177.127-.373.127-.579C13.5.65 12.827 0 12 0s-1.5.649-1.5 1.446c0 .206.046.402.127.58-4.978.63-8.86 4.632-9.102 9.545H.5c-.276 0-.5.216-.5.483v.483c0 .725.22 1.428.639 2.033.371.537.993.859 1.664.859h19.394c.67 0 1.293-.322 1.665-.86A3.563 3.563 0 0 0 24 12.537v-.483a.491.491 0 0 0-.5-.483zM12 .964c.276 0 .5.216.5.482a.492.492 0 0 1-.5.483.492.492 0 0 1-.5-.483c0-.266.224-.482.5-.482zm0 1.929c5.07 0 9.212 3.852 9.475 8.678H2.525C2.788 6.745 6.93 2.893 12 2.893zm11 9.644c0 .534-.163 1.052-.47 1.498-.187.269-.498.43-.833.43H2.303c-.335 0-.647-.161-.833-.43A2.626 2.626 0 0 1 1 12.536v-.001h22z"/>
    </g>
</svg>
