<?xml version="1.0" encoding="UTF-8"?>
<svg width="22px" height="17px" viewBox="0 0 22 17" version="1.1" xmlns="http://www.w3.org/2000/svg" xmlns:xlink="http://www.w3.org/1999/xlink">
    <!-- Generator: sketchtool 51.1 (57501) - http://www.bohemiancoding.com/sketch -->
    <title>2D814DAE-44B0-4E93-80EE-98AFE046BC17</title>
    <desc>Created with sketchtool.</desc>
    <defs></defs>
    <g id="Page-1" stroke="none" stroke-width="1" fill="none" fill-rule="evenodd">
        <g id="Icon-Lib" transform="translate(-631.000000, -642.000000)" fill-rule="nonzero" stroke="#000000">
            <g id="Supporting-icons" transform="translate(21.000000, 400.000000)">
                <g id="Feedback" transform="translate(610.000000, 242.000000)">
                    <path d="M1,4.50393701 C1,2.57480315 2.57790927,1 4.51084813,1 L17.4891519,1 C19.4220907,1 21,2.57480315 21,4.50393701 L21,8.08661417 C21,10.015748 19.4220907,11.5905512 17.4891519,11.5905512 C13.5838264,11.5905512 9.83629191,12.8110236 6.64102564,15.0944882 L5.41814596,16 L5.41814596,12.4566929 C5.41814596,11.984252 5.02366864,11.5905512 4.55029586,11.5905512 C2.617357,11.5905512 1.03944773,10.015748 1.03944773,8.08661417 L1.03944773,4.50393701 L1,4.50393701 Z M5.41814596,8.00787402 C3.52465483,8.00787402 3.52465483,5.09448819 5.41814596,5.09448819 C7.31163708,5.09448819 7.31163708,8.00787402 5.41814596,8.00787402 Z M11.3353057,8.00787402 C9.4418146,8.00787402 9.4418146,5.09448819 11.3353057,5.09448819 C13.2287968,5.09448819 13.2287968,8.00787402 11.3353057,8.00787402 Z M16.8579882,8.00787402 C14.964497,8.00787402 14.964497,5.09448819 16.8579882,5.09448819 C18.7514793,5.09448819 18.7514793,8.00787402 16.8579882,8.00787402 Z" id="Combined-Shape"></path>
                </g>
            </g>
        </g>
    </g>
</svg>