<?xml version="1.0" encoding="UTF-8"?>
<svg width="16px" height="16px" viewBox="0 0 16 16" version="1.1" xmlns="http://www.w3.org/2000/svg" xmlns:xlink="http://www.w3.org/1999/xlink">
    <!-- Generator: sketchtool 51.1 (57501) - http://www.bohemiancoding.com/sketch -->
    <title>36EB612E-60FC-4D40-9650-D631DEE85C22</title>
    <desc>Created with sketchtool.</desc>
    <defs></defs>
    <g id="Page-1" stroke="none" stroke-width="1" fill="none" fill-rule="evenodd">
        <g id="Icon-Lib" transform="translate(-634.000000, -757.000000)" fill="#C99700" fill-rule="nonzero">
            <g id="Supporting-icons" transform="translate(21.000000, 400.000000)">
                <g id="Edit-Icon-2" transform="translate(613.000000, 357.000000)">
                    <g id="edit">
                        <path d="M1.39063817,15.513728 L1.48891815,15.513728 L6.23048034,14.4130926 C6.32283531,14.3966907 6.40841883,14.3510461 6.47613326,14.2820777 L14.5096985,5.71289127 C15.096557,5.08826323 15.4239845,4.2386728 15.4187178,3.3544226 C15.4197993,2.46330065 15.0934534,1.60723972 14.5096985,0.969720859 C13.9241568,0.343738532 13.1276657,-0.00551747243 12.2986341,0.000150476521 C11.4643359,-0.0077244614 10.6640829,0.352666806 10.0875698,0.995953932 L2.07850397,9.5650902 C2.00787405,9.62573224 1.95638287,9.7080429 1.931084,9.80093707 L0.899285308,14.8586034 C0.871117984,15.0401784 0.925853818,15.2251642 1.04670527,15.3565302 C1.1374144,15.4552428 1.26104027,15.5117718 1.39063817,15.513728 Z M12.2986341,1.04836992 C13.4790754,1.0482696 14.4360591,2.06895184 14.4361531,3.32808921 C14.4361531,3.33686701 14.4361061,3.34564481 14.436012,3.3544226 C14.4440531,3.95427217 14.2221943,4.53165058 13.8218327,4.95293468 L10.8000291,1.70344437 C11.1981335,1.28145805 11.7373567,1.0457115 12.2986341,1.04836992 Z M10.1121162,2.46345112 L13.1339199,5.68670836 L6.13215334,13.1290263 L3.11034969,9.93195196 L10.1121162,2.46345112 Z M2.7172768,10.9802216 L5.14944761,13.5745371 L2.02936398,14.3083108 L2.7172768,10.9802216 Z" id="Shape"></path>
                    </g>
                </g>
            </g>
        </g>
    </g>
</svg>