<svg xmlns="http://www.w3.org/2000/svg" width="75" height="67" viewBox="0 0 75 67">
    <g fill="none" fill-rule="evenodd">
        <g fill="#000" fill-rule="nonzero">
            <path d="M16.683 11.196h21.594l3.57 4.535a.75.75 0 0 0 1.054.121.755.755 0 0 0 .122-1.058L39 9.688H16.683a.75.75 0 0 0-.75.754c0 .417.335.754.75.754zM59.243 46.967a.728.728 0 0 0-.128-.193l-21.32-21.466-.476.896c-1.039 1.948-2.991 4.61-3.995 4.61h-.029c-.846-.064-5.81-1.289-7.498-2.067 4.973-3.632 9.362-9.2 10.407-10.57h16.17l5.399 5.111c.3.285.775.272 1.059-.031a.759.759 0 0 0-.032-1.068l-5.831-5.523H35.457l-.227.304c-.051.07-5.262 7.074-10.883 10.963-.372.259-.534.67-.42 1.077.486 1.732 9.2 3.304 9.283 3.31l.1.002c1.88 0 3.876-2.919 4.833-4.528L58.057 47.84c.012.013.028.018.042.028.491.585.781 1.298.801 2.05.02.836-.28 1.611-.847 2.18-.567.573-1.346.86-2.167.854a3.253 3.253 0 0 1-1.92-.709 4.72 4.72 0 0 0-.48-.593L41.636 39.722l-1.061 1.066 10.677 10.747-.056.056 1.393 1.403c.06.062.132.104.194.162a3.23 3.23 0 0 1-.358 4.133 3.199 3.199 0 0 1-4.512.026c-.01-.01-.016-.02-.025-.032L36.04 45.357l-1.06 1.067 8.397 8.453-.005.005 3.45 3.474c.01.01.021.015.03.023.59.608.919 1.408.919 2.26a3.23 3.23 0 0 1-.941 2.286 3.202 3.202 0 0 1-4.544 0l-3.426-3.449a4.66 4.66 0 0 0-.615-.766L32.6 53.028l-1.06 1.067 5.646 5.682c.604.61.939 1.422.939 2.288a3.23 3.23 0 0 1-.94 2.284 3.2 3.2 0 0 1-4.543 0L28.12 59.8l.775-.78a3.707 3.707 0 0 0 1.084-2.635c0-.996-.384-1.933-1.084-2.636-.66-.664-1.551-1.004-2.455-1.041l1.622-1.634a4.943 4.943 0 0 0 1.454-3.325c.041-1.261-.41-2.434-1.273-3.3-.95-.958-2.337-1.332-3.69-1.176.141-.444.234-.906.234-1.386a4.543 4.543 0 0 0-1.326-3.222c-1.357-1.365-3.507-1.628-5.195-.826a4.539 4.539 0 0 0-1.317-3.134c-1.71-1.722-4.694-1.72-6.401 0l-3.693 3.718-5.19-5.223a.745.745 0 0 0-1.059 0 .756.756 0 0 0 0 1.067l5.19 5.223-1.352 1.36a4.538 4.538 0 0 0-1.326 3.221c0 1.217.472 2.361 1.326 3.222a4.48 4.48 0 0 0 3.2 1.333c.262 0 .52-.032.774-.075a4.661 4.661 0 0 0-.075.78c0 1.216.472 2.36 1.327 3.22a4.48 4.48 0 0 0 4.118 1.24c-.268 1.44.112 2.95 1.18 4.023a4.364 4.364 0 0 0 3.125 1.283c.649 0 1.295-.143 1.896-.403-.092 1.06.246 2.154 1.05 2.963.701.703 1.63 1.091 2.621 1.091.99 0 1.919-.388 2.62-1.091l.783-.79 4.519 4.55a4.664 4.664 0 0 0 3.332 1.39c1.258 0 2.44-.494 3.331-1.39.846-.852 1.284-1.95 1.35-3.067l1.63 1.642a4.662 4.662 0 0 0 3.332 1.39c1.259 0 2.442-.494 3.333-1.39a4.763 4.763 0 0 0 1.262-4.36c.326.07.66.114 1.002.114 1.26 0 2.443-.493 3.331-1.39 1.11-1.116 1.538-2.655 1.306-4.107.389.101.782.171 1.176.171a4.367 4.367 0 0 0 3.118-1.282c1.643-1.653 1.67-4.325.157-6.171zm-53.738-.743a3.033 3.033 0 0 1-.887-2.155c0-.814.314-1.578.887-2.154l6.104-6.147a3.004 3.004 0 0 1 2.141-.892c.808 0 1.567.318 2.14.892.572.576.887 1.341.887 2.155 0 .482-.122.94-.331 1.36l-6.775 6.82c-.168.17-.309.357-.447.547-1.158.69-2.745.555-3.719-.426zm5.224 5.259a3.038 3.038 0 0 1-.442-3.729 4.57 4.57 0 0 0 .56-.464l6.103-6.143c.28-.282.503-.604.697-.938l.474-.478a2.996 2.996 0 0 1 2.141-.893c.808 0 1.567.317 2.14.893a3.04 3.04 0 0 1 .887 2.154c0 .803-.308 1.558-.865 2.13a4.605 4.605 0 0 0-.761.614l-6.515 6.558c-.171.172-.312.362-.453.55-1.166.877-2.917.801-3.966-.254zm5.299 5.262c-1.024-1.03-1.096-2.683-.262-3.945.102-.085.211-.156.305-.251l7.315-7.363a3.343 3.343 0 0 1 1.734-.512c.793 0 1.527.297 2.065.84.566.571.862 1.345.834 2.184a3.421 3.421 0 0 1-1.014 2.309l-6.515 6.559c-1.233 1.236-3.33 1.32-4.462.18zm9.19 3.843c-.832.836-2.289.835-3.118 0a2.234 2.234 0 0 1 0-3.14l2.616-2.633c.418-.42.97-.651 1.56-.651.59 0 1.142.23 1.56.65.86.865.86 2.276 0 3.139l-2.618 2.635z"/>
        </g>
        <g transform="translate(49 2)">
            <rect width="26" height="26" x="-1" y="-1" fill="#9BD363" stroke="#FFF" stroke-width="2" rx="13"/>
            <path fill="#000" fill-opacity=".8" fill-rule="nonzero" d="M15.947 9.09l-5.233 5.188-2.795-2.193L7 13.07l3.321 2.607.519.414.467-.462L17 9.98z"/>
        </g>
    </g>
</svg>
