<svg xmlns="http://www.w3.org/2000/svg" width="50" height="50" viewBox="0 0 50 50">
    <g fill="#000" fill-rule="nonzero">
        <path d="M25 0C11.215 0 0 11.215 0 25s11.215 25 25 25c13.786 0 25-11.215 25-25S38.786 0 25 0zm0 47.826C12.413 47.826 2.174 37.587 2.174 25S12.413 2.174 25 2.174c12.586 0 22.826 10.239 22.826 22.826S37.586 47.826 25 47.826z"/>
        <path d="M19.565 20.652a3.265 3.265 0 0 0-3.26-3.26 3.265 3.265 0 0 0-3.262 3.26 3.265 3.265 0 0 0 3.261 3.261 3.265 3.265 0 0 0 3.261-3.26zm-4.348 0c0-.599.488-1.087 1.087-1.087.6 0 1.087.488 1.087 1.087 0 .6-.488 1.087-1.087 1.087a1.089 1.089 0 0 1-1.087-1.087zM33.696 17.391a3.265 3.265 0 0 0-3.261 3.261 3.265 3.265 0 0 0 3.26 3.261 3.265 3.265 0 0 0 3.262-3.26 3.265 3.265 0 0 0-3.261-3.262zm0 4.348a1.088 1.088 0 0 1 0-2.174 1.088 1.088 0 0 1 0 2.174zM25 30.435c-4.052 0-7.913 1.716-10.592 4.71a1.088 1.088 0 0 0 1.62 1.45c2.267-2.534 5.537-3.986 8.972-3.986 3.435 0 6.705 1.452 8.973 3.986.214.24.512.362.81.362a1.088 1.088 0 0 0 .81-1.812c-2.68-2.993-6.54-4.71-10.593-4.71z"/>
    </g>
</svg>
