<?xml version="1.0" encoding="UTF-8"?>
<svg width="16px" height="23px" viewBox="0 0 16 23" version="1.1" xmlns="http://www.w3.org/2000/svg" xmlns:xlink="http://www.w3.org/1999/xlink">
    <!-- Generator: sketchtool 51.1 (57501) - http://www.bohemiancoding.com/sketch -->
    <title>FB20D9E2-F7BC-41B1-AC56-35DF83DB4748</title>
    <desc>Created with sketchtool.</desc>
    <defs></defs>
    <g id="Page-1" stroke="none" stroke-width="1" fill="none" fill-rule="evenodd">
        <g id="Icon-Lib" transform="translate(-422.000000, -752.000000)" fill="#000000" fill-rule="nonzero">
            <g id="Supporting-icons" transform="translate(21.000000, 400.000000)">
                <g id="unlock-(1)" transform="translate(401.000000, 352.000000)">
                    <g id="Group-37">
                        <path d="M13.6263736,9.37727473 L2.37362637,9.37727473 C1.08048352,9.37727473 0.0293186813,10.4294066 0.0293186813,11.7215824 L0.0293186813,20.1611429 C0.0293186813,21.4533626 1.08048352,22.5054945 2.37362637,22.5054945 L13.6263736,22.5054945 C14.9195165,22.5054945 15.9706813,21.4533626 15.9706813,20.1611868 L15.9706813,11.7216264 C15.9706813,10.4294066 14.9195165,9.37727473 13.6263736,9.37727473 Z M15.032967,20.1611868 C15.032967,20.9367033 14.4018901,21.5677802 13.6263736,21.5677802 L2.37362637,21.5677802 C1.59810989,21.5677802 0.967032967,20.9367033 0.967032967,20.1611868 L0.967032967,11.7216264 C0.967032967,10.9461099 1.59810989,10.315033 2.37362637,10.315033 L13.6263736,10.315033 C14.4018901,10.315033 15.032967,10.9461099 15.032967,11.7216264 L15.032967,20.1611868 Z" id="Shape"></path>
                        <path d="M13.6263736,9.37727473 L2.84250549,9.37727473 L2.84250549,6.09520879 C2.84250549,3.25107692 5.15683516,0.937714286 8,0.937714286 C10.8431648,0.937714286 13.1574945,3.25107692 13.1574945,6.09520879 C13.1574945,6.35402198 13.3675604,6.56408791 13.6263736,6.56408791 C13.8851868,6.56408791 14.0952527,6.35402198 14.0952527,6.09520879 C14.0952527,2.73441758 11.3608352,0 8,0 C4.63916484,0 1.90474725,2.73441758 1.90474725,6.09525275 L1.90474725,9.84615385 C1.90474725,10.104967 2.11481319,10.315033 2.37362637,10.315033 L13.6263736,10.315033 C13.8851868,10.315033 14.0952527,10.104967 14.0952527,9.84615385 C14.0952527,9.58734066 13.8851868,9.37727473 13.6263736,9.37727473 Z" id="Shape"></path>
                        <path d="M8,15.9414066 C7.74118681,15.9414066 7.53112088,16.1514725 7.53112088,16.4102857 L7.53112088,19.2234725 C7.53112088,19.4822857 7.74118681,19.6923516 8,19.6923516 C8.25881319,19.6923516 8.46887912,19.4822857 8.46887912,19.2234725 L8.46887912,16.4102857 C8.46887912,16.1514286 8.25881319,15.9414066 8,15.9414066 Z" id="Shape"></path>
                        <path d="M8,12.1904615 C6.70685714,12.1904615 5.65569231,13.2425934 5.65569231,14.5347692 C5.65569231,15.8269451 6.70685714,16.8791209 8,16.8791209 C9.29314286,16.8791209 10.3443077,15.826989 10.3443077,14.5348132 C10.3443077,13.2426374 9.29314286,12.1904615 8,12.1904615 Z M8,15.9414066 C7.22448352,15.9414066 6.59340659,15.3103297 6.59340659,14.5348132 C6.59340659,13.7592967 7.22448352,13.1282198 8,13.1282198 C8.77551648,13.1282198 9.40659341,13.7592967 9.40659341,14.5348132 C9.40659341,15.3102857 8.77551648,15.9414066 8,15.9414066 Z" id="Shape"></path>
                    </g>
                </g>
            </g>
        </g>
    </g>
</svg>