<svg xmlns="http://www.w3.org/2000/svg" width="44" height="40" viewBox="0 0 44 40">
    <g fill="#000" fill-rule="nonzero">
        <path d="M21.834 28.131a2.268 2.268 0 0 0-2.245 2.245 2.268 2.268 0 0 0 2.245 2.244c1.176 0 2.244-1.024 2.19-2.19a2.191 2.191 0 0 0-2.19-2.299z"/>
        <path d="M42.606 36.085c1.409-2.433 1.418-5.332.018-7.756L28.566 3.984C27.175 1.534 24.661.079 21.843.079c-2.82 0-5.333 1.463-6.724 3.896L1.044 28.347c-1.4 2.45-1.392 5.368.026 7.8A7.682 7.682 0 0 0 7.776 40h28.08c2.809 0 5.331-1.464 6.75-3.914zm-3.052-1.76a4.242 4.242 0 0 1-3.708 2.146H7.767c-1.526 0-2.9-.781-3.662-2.1a4.248 4.248 0 0 1-.01-4.283L18.172 5.726a4.166 4.166 0 0 1 3.672-2.128c1.535 0 2.908.799 3.671 2.136l14.067 24.363c.754 1.31.745 2.89-.027 4.228z"/>
        <path d="M21.277 12.377c-1.068.305-1.732 1.275-1.732 2.45.053.71.098 1.428.152 2.137l.458 8.052c.054.916.763 1.58 1.679 1.58.915 0 1.633-.709 1.678-1.633 0-.557 0-1.069.054-1.634.099-1.733.207-3.465.305-5.198.054-1.122.153-2.244.207-3.366 0-.404-.054-.763-.207-1.122a2.25 2.25 0 0 0-2.594-1.266z"/>
    </g>
</svg>
