<?xml version="1.0" encoding="UTF-8"?>
<svg width="16px" height="14px" viewBox="0 0 16 14" version="1.1" xmlns="http://www.w3.org/2000/svg" xmlns:xlink="http://www.w3.org/1999/xlink">
    <!-- Generator: sketchtool 51.1 (57501) - http://www.bohemiancoding.com/sketch -->
    <title>3DEECA6E-CC5E-454A-9A62-F73721795ECF</title>
    <desc>Created with sketchtool.</desc>
    <defs></defs>
    <g id="Page-1" stroke="none" stroke-width="1" fill="none" fill-rule="evenodd">
        <g id="Icon-Lib" transform="translate(-400.000000, -570.000000)" fill="#000000" fill-rule="nonzero">
            <g id="Supporting-icons" transform="translate(21.000000, 400.000000)">
                <g id="Add-More" transform="translate(379.000000, 170.000000)">
                    <g id="Group-6">
                        <g id="add-user-(1)">
                            <path d="M9.82643211,6.95960913 C9.56340094,6.83291022 9.29502306,6.72376548 9.02194009,6.63233746 C9.90636535,5.95964396 10.4795322,4.88848684 10.4795322,3.68421053 C10.4795322,1.65274768 8.84854643,0 6.84377253,0 C4.83899863,0 3.2080129,1.65274768 3.2080129,3.68421053 C3.2080129,4.88981424 3.78246293,5.96202786 4.66854567,6.63458591 C3.85670193,6.90542957 3.09493009,7.32686533 2.42819593,7.88258514 C1.20561829,8.90162152 0.35557234,10.3229954 0.0346898197,11.884911 C-0.0658817077,12.374315 0.054606297,12.876993 0.36519641,13.2639977 C0.674262712,13.649106 1.13255556,13.869969 1.62252764,13.869969 L8.2071824,13.869969 C8.50248093,13.869969 8.74185293,13.6274071 8.74185293,13.3281734 C8.74185293,13.0289396 8.50248093,12.7863777 8.2071824,12.7863777 L1.62252764,12.7863777 C1.39427679,12.7863777 1.25657239,12.6572678 1.19481794,12.5803328 C1.08817791,12.4474574 1.04690134,12.2744892 1.08157472,12.1057469 C1.63642907,9.40503096 3.98726847,7.4321904 6.70203138,7.36565789 C6.74905565,7.3675 6.79629379,7.36842105 6.84377253,7.36842105 C6.89170575,7.36842105 6.93942509,7.36747291 6.98690384,7.36560372 C7.81885119,7.38537926 8.61898564,7.5777709 9.36736399,7.93828173 C9.63408438,8.06668731 9.95301536,7.95179954 10.0797857,7.68152477 C10.2065561,7.41127709 10.0931525,7.08806889 9.82643211,6.95960913 Z M6.97417868,6.28149768 C6.93079016,6.28071207 6.88732145,6.28030573 6.84377253,6.28030573 C6.80062462,6.28030573 6.75747671,6.28073916 6.71438226,6.28155186 C5.35912613,6.2130418 4.27735397,5.07424149 4.27735397,3.68421053 C4.27735397,2.25021285 5.4286333,1.08359133 6.84377253,1.08359133 C8.25891177,1.08359133 9.4101911,2.25021285 9.4101911,3.68421053 C9.4101911,5.07388932 8.32895361,6.21247291 6.97417868,6.28149768 Z" id="Shape"></path>
                            <path d="M15.4878424,10.838448 L14.079409,10.838448 L14.079409,9.38859015 C14.079409,9.09740597 13.8501161,8.86136911 13.5672515,8.86136911 C13.2843868,8.86136911 13.0550939,9.09740597 13.0550939,9.38859015 L13.0550939,10.838448 L11.6466605,10.838448 C11.3637959,10.838448 11.1345029,11.0744849 11.1345029,11.3656691 C11.1345029,11.6568533 11.3637959,11.8928901 11.6466605,11.8928901 L13.0550939,11.8928901 L13.0550939,13.342748 C13.0550939,13.6339322 13.2843868,13.869969 13.5672515,13.869969 C13.8501161,13.869969 14.079409,13.6339322 14.079409,13.342748 L14.079409,11.8928901 L15.4878424,11.8928901 C15.770707,11.8928901 16,11.6568533 16,11.3656691 C16,11.0744849 15.770707,10.838448 15.4878424,10.838448 Z" id="Shape"></path>
                        </g>
                    </g>
                </g>
            </g>
        </g>
    </g>
</svg>