<?xml version="1.0" encoding="UTF-8"?>
<svg width="20px" height="22px" viewBox="0 0 20 22" version="1.1" xmlns="http://www.w3.org/2000/svg" xmlns:xlink="http://www.w3.org/1999/xlink">
    <!-- Generator: sketchtool 51.1 (57501) - http://www.bohemiancoding.com/sketch -->
    <title>D4FABD3A-F0EB-4652-9BCC-C50A6295BDF8</title>
    <desc>Created with sketchtool.</desc>
    <defs></defs>
    <g id="Page-1" stroke="none" stroke-width="1" fill="none" fill-rule="evenodd">
        <g id="Icon-Lib" transform="translate(-491.000000, -812.000000)" fill="#000000" fill-rule="nonzero">
            <g id="Supporting-icons" transform="translate(21.000000, 400.000000)">
                <g id="refresh" transform="translate(470.000000, 412.000000)">
                    <g id="Group-45">
                        <path d="M17.6846847,0 C17.2600901,0 16.9159009,0.344189189 16.9159009,0.768783784 L16.9159009,3.57707207 C12.957973,-0.254774775 6.64315315,-0.152522523 2.81130631,3.80536036 C1.00545045,5.67063063 -0.00198198198,8.16653153 0.00301801802,10.7627477 C0.00301801802,11.1873423 0.347207207,11.5315315 0.771801802,11.5315315 C1.1963964,11.5315315 1.54054054,11.1873423 1.54054054,10.7627477 C1.54148649,6.09238739 5.32828829,2.30702703 9.99869369,2.30797297 C12.3706306,2.30842342 14.6332883,3.30504505 16.2348198,5.05463964 L12.8291892,6.19009009 C12.4258559,6.32427928 12.2076126,6.76 12.3418018,7.16333333 C12.475991,7.56666667 12.9117117,7.78490991 13.315045,7.65072072 L17.9276577,6.1131982 C18.2425225,6.00833333 18.4545495,5.7131982 18.4535135,5.38135135 L18.4535135,0.768738739 C18.4534685,0.344189189 18.1092793,0 17.6846847,0 Z" id="Shape"></path>
                        <path d="M19.2222072,9.99400901 C18.7976126,9.99400901 18.4534234,10.3381982 18.4534234,10.7627928 C18.4524775,15.4331532 14.6656757,19.2185135 9.99527027,19.2175676 C7.62333333,19.2171171 5.36067568,18.2204955 3.75914414,16.4709009 L7.16477477,15.3354505 C7.56810811,15.2012613 7.78635135,14.7655405 7.65216216,14.3622072 C7.51797297,13.9588739 7.08225225,13.7406306 6.67891892,13.8748198 L2.06630631,15.4123423 C1.75144144,15.5172072 1.53941441,15.8123423 1.54045045,16.1441892 L1.54045045,20.7568018 C1.54045045,21.1813964 1.88463964,21.5255856 2.30923423,21.5255856 C2.73382883,21.5255856 3.07801802,21.1813964 3.07801802,20.7568018 L3.07801802,17.9484685 C7.03594595,21.7803153 13.3508108,21.6781081 17.1826126,17.7201802 C18.9884685,15.8549099 19.9959009,13.359009 19.9909009,10.7627928 C19.990991,10.3381982 19.6468018,9.99400901 19.2222072,9.99400901 Z" id="Shape"></path>
                    </g>
                </g>
            </g>
        </g>
    </g>
</svg>