<svg xmlns="http://www.w3.org/2000/svg" width="17" height="12" viewBox="0 0 17 12">
    <g fill="#3E3E3E" fill-rule="nonzero">
        <path d="M16.614 0H.386A.379.379 0 0 0 0 .372v11.156c0 .206.173.372.386.372h16.228a.38.38 0 0 0 .386-.372V.372A.38.38 0 0 0 16.614 0zm-.387 10.257L11.441 5.65l-.546.526 5.174 4.98H.93l5.174-4.98-.546-.526-4.786 4.607V.744h15.454v9.513z"/>
        <path d="M15.377.793L8.5 7.787 1.623.793H.85v.314l7.38 7.506c.15.152.39.152.54 0l7.38-7.506V.793h-.773z"/>
    </g>
</svg>
