<?xml version="1.0" encoding="UTF-8"?>
<svg width="26px" height="26px" viewBox="0 0 26 26" version="1.1" xmlns="http://www.w3.org/2000/svg" xmlns:xlink="http://www.w3.org/1999/xlink">
    <!-- Generator: sketchtool 51.1 (57501) - http://www.bohemiancoding.com/sketch -->
    <title>42FC5CA6-F160-46AA-BD70-BB2219E79CC0</title>
    <desc>Created with sketchtool.</desc>
    <defs></defs>
    <g id="Page-1" stroke="none" stroke-width="1" fill="none" fill-rule="evenodd">
        <g id="Icon-Lib" transform="translate(-264.000000, -638.000000)" fill="#C99700">
            <g id="Supporting-icons" transform="translate(21.000000, 400.000000)">
                <g id="Megaphone" transform="translate(243.000000, 238.000000)">
                    <g id="Group-28">
                        <rect id="Rectangle-Copy-3" fill-opacity="0.4" x="0" y="0" width="26" height="26" rx="13"></rect>
                        <path d="M18.2913164,9.85884572 L18.2913164,7.67242133 C18.2913164,7.43164393 18.1636758,7.21520437 17.949875,7.09346209 C17.7352539,6.97124208 17.4771016,6.96872072 17.259418,7.08690654 C15.1806367,8.21531173 12.9192812,8.87429123 10.5381875,9.04566465 C10.5199492,9.04696514 8.36785937,9.05609515 8.36785937,9.05609515 C7.82735547,9.05609515 7.38061328,9.45216229 7.31878906,9.96089478 L6.87705078,9.96089478 C6.39347656,9.96089478 6,10.3427626 6,10.8121618 L6,12.6824331 C6,13.1518323 6.39347656,13.5337267 6.87705078,13.5337267 L7.31873437,13.5337267 C7.36325,13.8998559 7.60704687,14.2074097 7.94176172,14.3511543 L9.51361719,18.5617862 C9.61186328,18.8238758 9.87091797,19 10.1583281,19 L11.735707,19 C11.9593242,19 12.1693789,18.8938637 12.2976484,18.7160939 C12.425918,18.5382711 12.4568437,18.310366 12.3805,18.106719 L11.0300195,14.4908912 C13.2306992,14.7127981 15.3240547,15.3561451 17.2593906,16.4066799 C17.366168,16.4646448 17.4826797,16.4935476 17.599,16.4935476 C17.7197773,16.4935211 17.8404453,16.4623623 17.949793,16.4000978 C18.1635937,16.2783289 18.2912891,16.0619159 18.2912891,15.8210854 L18.2912891,13.634661 C19.2538164,13.5136354 20,12.7134592 20,11.7467667 C20,10.7800475 19.2538164,9.97984486 18.2913164,9.85884572 Z M7.31116016,12.8771624 L6.87705078,12.8771624 C6.76639062,12.8771624 6.67640234,12.7898169 6.67640234,12.6824066 L6.67640234,10.8121618 C6.67640234,10.7048311 6.76639062,10.6174325 6.87705078,10.6174325 L7.31116016,10.6174325 L7.31116016,12.8771624 Z M8.21292969,13.7496354 C8.0803125,13.6919359 7.9875625,13.5628153 7.9875625,13.4128868 L7.9875625,10.0816816 L7.98758984,10.0816816 C7.98758984,9.8781939 8.1581875,9.7126329 8.36783203,9.7126329 L10.2089687,9.7126329 L10.2089687,13.781962 C10.2089687,13.781962 8.35178125,13.781272 8.34376953,13.7807942 C8.27592969,13.7731771 8.26165625,13.7697798 8.21292969,13.7496354 Z M11.7446758,18.3307758 C11.7457695,18.3334564 11.7464805,18.3353673 11.7435547,18.339375 C11.7406836,18.3433826 11.7385508,18.3433826 11.7356797,18.3433826 L10.1583008,18.3433826 C10.1542812,18.3433826 10.1505898,18.3409143 10.1493594,18.3376764 L8.69376953,14.4384732 L10.2909453,14.4384732 L11.7446758,18.3307758 Z M17.6149141,15.821112 C17.6149141,15.8258628 17.6149141,15.8296581 17.6076133,15.833825 C17.598918,15.8387085 17.5937227,15.8359217 17.5895664,15.8336657 C15.5105117,14.7051544 13.2564297,14.0277025 10.8853711,13.8176328 L10.8853711,9.67621904 C13.2566211,9.46583076 15.5107031,8.78832584 17.5894844,7.65992065 C17.59375,7.65766469 17.5990273,7.65487791 17.6076133,7.6597614 C17.6149141,7.6639283 17.6149141,7.66767054 17.6149141,7.67242133 L17.6149141,15.821112 Z M18.2913164,12.9700815 L18.2913164,10.5234253 C18.8792891,10.637922 19.3235977,11.1428591 19.3235977,11.7467401 C19.3235977,12.3506476 18.8792617,12.8556113 18.2913164,12.9700815 Z" id="Shape" fill-rule="nonzero"></path>
                    </g>
                </g>
            </g>
        </g>
    </g>
</svg>