<?xml version="1.0" encoding="UTF-8"?>
<svg width="29px" height="27px" viewBox="0 0 29 27" version="1.1" xmlns="http://www.w3.org/2000/svg" xmlns:xlink="http://www.w3.org/1999/xlink">
    <!-- Generator: sketchtool 51.1 (57501) - http://www.bohemiancoding.com/sketch -->
    <title>10550755-CA81-49E5-A96D-9DC144A2B28A</title>
    <desc>Created with sketchtool.</desc>
    <defs></defs>
    <g id="Page-1" stroke="none" stroke-width="1" fill="none" fill-rule="evenodd">
        <g id="Icon-Lib" transform="translate(-404.000000, -320.000000)" fill="#C99700" fill-rule="nonzero" stroke="#C99700" stroke-width="0.4">
            <g id="Product-Icons" transform="translate(31.000000, 263.000000)">
                <g id="Refer-a-Friend" transform="translate(373.000000, 57.000000)">
                    <g id="Group-9" transform="translate(1.000000, 1.000000)">
                        <path d="M7.09515709,0.689471336 L17.0278403,0.689471336 L18.6698348,2.76249976 C18.7386356,2.84825108 18.8385697,2.89285714 18.9404257,2.89285714 C19.0153763,2.89285714 19.0910956,2.86901597 19.1548997,2.81787281 C19.3044165,2.69982055 19.3294,2.48294278 19.2110165,2.33412772 L17.3603134,0 L7.09515709,0 C6.90412917,0 6.75,0.153814018 6.75,0.3445434 C6.75,0.535272783 6.90412917,0.689471336 7.09515709,0.689471336 Z" id="Shape"></path>
                        <path d="M26.5019808,16.2954725 C26.4865537,16.2653351 26.4696215,16.2351976 26.4444113,16.2102691 L16.8438599,6.71547861 L16.630138,7.11173049 C16.1620571,7.97306675 15.2830883,9.15066037 14.831187,9.15066037 L14.8180175,9.15066037 C14.4372314,9.12238325 12.2021823,8.58065297 11.4417389,8.23649053 C13.6809269,6.62990308 15.6571015,4.16681625 16.1278164,3.5607183 L23.4094104,3.5607183 L25.8401203,5.82177248 C25.9755778,5.94790336 26.1892997,5.94195028 26.3168555,5.80800598 C26.4447876,5.67331755 26.438391,5.46235528 26.3025572,5.33585233 L23.676939,2.89285714 L15.7914302,2.89285714 L15.6894608,3.02717351 C15.666132,3.05842718 13.3197068,6.15626116 10.7885327,7.8763292 C10.6210921,7.99092599 10.5484718,8.17286699 10.6000209,8.35294766 C10.8182581,9.11903464 14.742387,9.81442879 14.7796379,9.81666119 C14.7946887,9.81703326 14.808987,9.8177774 14.8247904,9.8177774 C15.6710236,9.8177774 16.5699347,8.52670318 17.0007648,7.81493806 L25.9680524,16.6813065 C25.9733202,16.6872596 25.9808456,16.6891199 25.9868659,16.6935847 C26.2081132,16.9525437 26.3386792,17.268057 26.3477097,17.6006853 C26.3567402,17.9701483 26.221659,18.3131946 25.966171,18.5650843 C25.7110594,18.8180901 25.3599986,18.9449652 24.9905006,18.9427328 C24.6763145,18.9349193 24.3779317,18.8218108 24.1262064,18.6290799 C24.0599828,18.5382954 23.992254,18.4486271 23.9094744,18.3667723 L18.5743296,13.0908552 L18.0964656,13.5626368 L22.9040786,18.3161711 L22.8788685,18.3410996 L23.506112,18.9617082 C23.5332035,18.9888691 23.5655628,19.0074725 23.5937831,19.0331452 C23.7623525,19.2716404 23.8560439,19.5529235 23.8560439,19.8498333 C23.8560439,20.2312025 23.7051593,20.5909918 23.4323629,20.8611128 C22.8724719,21.4147492 21.9667879,21.4173537 21.4008765,20.8730189 C21.3963612,20.8685541 21.3937273,20.8637172 21.3895883,20.8588804 L16.0540673,15.5837074 L15.5769558,16.055489 L19.3577256,19.7943953 L19.355468,19.7966277 L20.9094667,21.3332664 C20.9136057,21.3373592 20.9184972,21.3399636 20.9226362,21.3433123 C21.1882834,21.6123171 21.3361579,21.9661532 21.3361579,22.3430576 C21.3361579,22.7244268 21.1852733,23.0842161 20.9124769,23.3543371 C20.3480706,23.9120663 19.4307222,23.9120663 18.8663158,23.3543371 L17.3236053,21.8288603 C17.2449646,21.7086825 17.1531545,21.5948299 17.0470462,21.4899068 L14.5049601,18.9765909 L14.0278486,19.4487446 L16.5699347,21.9616884 C16.8419785,22.2318094 16.9928631,22.5908546 16.9928631,22.973712 C16.9928631,23.3550812 16.8419785,23.7144984 16.5699347,23.9842473 C16.0051521,24.5427207 15.08818,24.5427207 14.5237737,23.9842473 L12.4881482,21.9721063 L12.8369513,21.6268277 C13.1522663,21.3157793 13.3253509,20.9020402 13.3253509,20.4615123 C13.3253509,20.0209844 13.1522663,19.6065012 12.8369513,19.2954527 C12.5396973,19.0018915 12.1385926,18.8515762 11.7314675,18.8348332 L12.4621855,18.1122781 C12.8666767,17.7130497 13.0980833,17.1902949 13.1168968,16.6414953 C13.1353341,16.0837661 12.9317716,15.564732 12.54346,15.1818745 C12.11564,14.7580896 11.4914067,14.5925196 10.8818478,14.6617241 C10.9454376,14.4652725 10.9872037,14.2610074 10.9872037,14.0485569 C10.9872037,13.5105473 10.7749869,13.0041634 10.3900618,12.6235384 C9.77899789,12.0196728 8.81085293,11.9032157 8.05116203,12.2581681 C8.04100271,11.7350412 7.83330119,11.243168 7.45778285,10.8718446 C6.68755637,10.1102224 5.34426934,10.1109666 4.57554793,10.8718446 L2.91280693,12.516383 L0.57578851,10.2062159 C0.444093703,10.0759922 0.230748115,10.0759922 0.0990533084,10.2062159 C-0.0330177695,10.3364395 -0.0330177695,10.5477738 0.0990533084,10.6779975 L2.43569546,12.9885366 L1.82726545,13.5901697 C1.44234034,13.9704227 1.23012357,14.4764345 1.23012357,15.0148162 C1.23012357,15.5528258 1.44234034,16.0592097 1.82726545,16.4398347 C2.21219055,16.8204598 2.72391895,17.0295617 3.26800664,17.0295617 C3.38615569,17.0295617 3.50204712,17.0154231 3.61643347,16.9960756 C3.59686738,17.1095562 3.58256909,17.224153 3.58256909,17.3413543 C3.58256909,17.8789918 3.79516213,18.3850036 4.18008724,18.7652566 C4.56501235,19.1458816 5.0759882,19.3560998 5.62082843,19.3560998 C5.76155374,19.3560998 5.90002142,19.3412171 6.0347264,19.3136841 C5.91394344,19.9510357 6.08514669,20.6185248 6.56602087,21.093655 C6.93627142,21.4597694 7.43558287,21.6610579 7.97289768,21.6610579 C8.26526015,21.6610579 8.55611754,21.5978064 8.8266563,21.4828376 C8.78526651,21.9520147 8.93765621,22.4357024 9.30000507,22.7932593 C9.61532006,23.1043077 10.0337333,23.2762029 10.4799905,23.2762029 C10.9254953,23.2762029 11.3439085,23.1043077 11.6595997,22.7932593 L12.0121655,22.44426 L14.0470385,24.456401 C14.4481432,24.853025 14.9801902,25.0714286 15.5476067,25.0714286 C16.1138944,25.0714286 16.6463177,24.853025 17.0474224,24.456401 C17.4282086,24.0798687 17.6253745,23.5943206 17.6554762,23.0998429 L18.3895806,23.8261187 C18.7903091,24.2227426 19.3231087,24.4407742 19.8893964,24.4407742 C20.4564366,24.4407742 20.9892361,24.2227426 21.3903409,23.8261187 C21.9182489,23.3033638 22.1052556,22.5715071 21.9585099,21.8976928 C22.1056318,21.9289465 22.2561402,21.948294 22.410035,21.948294 C22.9770752,21.948294 23.5098747,21.7302624 23.9098507,21.3336385 C24.4099147,20.8395329 24.6021891,20.1590214 24.4979621,19.5168329 C24.672928,19.561481 24.8501516,19.5923626 25.0273752,19.5923626 C25.5413612,19.5923626 26.0485743,19.4037244 26.4312418,19.0253317 C27.1713666,18.293847 27.183031,17.1121607 26.5019808,16.2954725 Z M2.30437692,15.9669369 C2.0462551,15.7120707 1.90477725,15.3738613 1.90477725,15.0137 C1.90477725,14.6539107 2.0462551,14.3157014 2.30437692,14.0608351 L5.05303568,11.3421379 C5.3111575,11.0880158 5.65281145,10.9473743 6.01704166,10.9473743 C6.3808956,10.9473743 6.72254956,11.0880158 6.98067138,11.3421379 C7.23841693,11.5970042 7.37989478,11.9352135 7.37989478,12.2953749 C7.37989478,12.5085695 7.32495923,12.7113463 7.23089151,12.8966359 L4.18008724,15.9137313 C4.1044568,15.9885168 4.04124329,16.0714879 3.97915859,16.1555751 C3.45764716,16.4606705 2.74310876,16.4007676 2.30437692,15.9669369 Z M4.65682244,18.2931029 C4.39907689,18.0378646 4.25722277,17.7000273 4.25722277,17.3402381 C4.25722277,17.0902087 4.32984305,16.8520855 4.45777515,16.6437277 C4.54544626,16.5812204 4.63161229,16.5157365 4.70987664,16.4387185 L7.45815912,13.7211375 C7.58420987,13.5964949 7.68429792,13.453993 7.77196903,13.3062822 L7.98531462,13.0949479 C8.24306017,12.8400817 8.5850904,12.7001843 8.94932061,12.7001843 C9.31317455,12.7001843 9.6548285,12.8400817 9.91295033,13.0949479 C10.1706959,13.3501862 10.31255,13.6883956 10.31255,14.0478128 C10.31255,14.4031372 10.173706,14.7368818 9.92273337,14.9898877 C9.80044533,15.0680218 9.68530645,15.157318 9.5799506,15.2614969 L6.64654284,18.1621352 C6.56940731,18.238409 6.5061938,18.3224962 6.44260403,18.4058394 C5.91732988,18.7935337 5.12904239,18.7600476 4.65682244,18.2931029 Z M7.04275608,20.6207572 C6.58182425,20.1649745 6.54946496,19.4338619 6.92498329,18.8757606 C6.97051207,18.8381818 7.01980355,18.8065561 7.06232216,18.7645124 L10.3558211,15.5078056 C10.5940006,15.3645596 10.8641631,15.2812165 11.1369595,15.2812165 C11.4940406,15.2812165 11.8244064,15.4129284 12.0667248,15.653284 C12.3214602,15.9055458 12.4550364,16.2478479 12.4422432,16.6187992 C12.4302025,16.9986801 12.268406,17.3614459 11.9858266,17.6401245 L9.05204256,20.5415068 C8.49666674,21.088446 7.55260311,21.1256528 7.04275608,20.6207572 Z M11.1809832,22.3203615 C10.8062174,22.6905687 10.1503772,22.6898245 9.77674027,22.3203615 C9.38955754,21.9382482 9.38955754,21.3150351 9.77674027,20.9314335 L10.9548444,19.7668623 C11.1429798,19.5812006 11.3920711,19.478882 11.6569658,19.478882 C11.9226131,19.478882 12.1717044,19.5812006 12.3594636,19.7668623 C12.7466463,20.1489756 12.7466463,20.7733048 12.3594636,21.1550461 L11.1809832,22.3203615 Z" id="Shape"></path>
                    </g>
                </g>
            </g>
        </g>
    </g>
</svg>