<svg xmlns="http://www.w3.org/2000/svg" width="68" height="52" viewBox="0 0 68 52">
    <g fill="none" fill-rule="evenodd" transform="translate(0 2)">
        <g fill-rule="nonzero">
            <path fill="#000" d="M53.478 8H6.522C2.92 8 0 10.834 0 14.331v29.338c0 1.68.687 3.29 1.91 4.477A6.623 6.623 0 0 0 6.522 50h46.956c1.73 0 3.389-.667 4.612-1.854A6.239 6.239 0 0 0 60 43.669V14.331c0-1.68-.687-3.29-1.91-4.477A6.623 6.623 0 0 0 53.478 8zm3.913 35.663c0 2.098-1.752 3.798-3.913 3.798H6.522c-2.161 0-3.913-1.7-3.913-3.798V14.33c0-2.098 1.752-3.799 3.913-3.799h46.956c2.161 0 3.913 1.701 3.913 3.799v29.332z"/>
            <path stroke="#000" stroke-width="2" d="M40.682 25.727h-.006l-7.13-1.037-.233-.471-2.972-6.012a.368.368 0 0 0-.66.002l-3.19 6.48-.52.076-6.643.966a.37.37 0 0 0-.31.254c-.045.14-.005.294.123.412l5.166 5.043-.088.517-1.13 6.606a.375.375 0 0 0 .148.366.364.364 0 0 0 .384.03l6.373-3.364.466.246 5.912 3.117a.365.365 0 0 0 .386-.029.376.376 0 0 0 .148-.366l-1.218-7.123.376-.367 4.814-4.699a.376.376 0 0 0 .105-.388.37.37 0 0 0-.301-.259z"/>
        </g>
        <circle cx="54.816" cy="11.856" r="12" fill="#9BD363" stroke="#FFF" stroke-width="2" transform="matrix(0 -1 -1 0 66.673 66.673)"/>
        <path fill="#000" fill-opacity=".8" fill-rule="nonzero" d="M58.947 9.09l-5.233 5.188-2.795-2.193-.919.985 3.321 2.607.519.414.467-.462L60 9.98z"/>
    </g>
</svg>
