<?xml version="1.0" encoding="UTF-8"?>
<svg width="18px" height="15px" viewBox="0 0 18 15" version="1.1" xmlns="http://www.w3.org/2000/svg" xmlns:xlink="http://www.w3.org/1999/xlink">
    <!-- Generator: sketchtool 51.1 (57501) - http://www.bohemiancoding.com/sketch -->
    <title>949B8D06-F468-47C7-8984-F30668428066</title>
    <desc>Created with sketchtool.</desc>
    <defs></defs>
    <g id="Page-1" stroke="none" stroke-width="1" fill="none" fill-rule="evenodd">
        <g id="Icon-Lib" transform="translate(-631.000000, -817.000000)" fill="#000000">
            <g id="Supporting-icons" transform="translate(21.000000, 400.000000)">
                <g id="Whatsapp" transform="translate(610.000000, 417.000000)">
                    <g id="Group">
                        <path d="M5.79707427,2.92747416 C5.7666194,2.92998014 5.73660202,2.93529429 5.70758564,2.94331685 C4.79647677,3.17387865 4.15122177,3.58162584 3.80275609,4.11255843 C3.45429041,4.64349101 3.41025995,5.26580562 3.55985836,5.89801348 C3.85905109,7.16243258 4.92077495,8.52144944 6.26369359,9.65327528 C7.60661223,10.785118 9.22591882,11.6910506 10.7700856,11.9548989 C11.5421711,12.0868146 12.3109552,12.051927 12.9753405,11.7652921 C13.6397266,11.4786404 14.168311,10.9441011 14.4966473,10.1799607 C14.5590029,10.0324679 14.490225,9.86899758 14.3304541,9.78495506 L11.4156822,8.27863483 L11.4092902,8.27341011 C11.3949276,8.26561979 11.3799832,8.25858336 11.3645459,8.2523427 C11.3216736,8.22944837 11.2739762,8.21337344 11.2239209,8.20494944 C11.2196598,8.20489457 11.2153979,8.20489457 11.2111368,8.20494944 C11.2005718,8.20285884 11.1899099,8.20111589 11.1791765,8.19972472 C11.1770459,8.199711 11.1749151,8.199711 11.1727845,8.19972472 C11.1045669,8.19645698 11.0364425,8.20732132 10.9746311,8.23132584 C10.9522015,8.24023475 10.9308059,8.25081236 10.9107106,8.26292697 C10.8974562,8.26934995 10.8846518,8.27638359 10.8723584,8.28399438 C10.8679169,8.28917512 10.8636539,8.29445812 10.8595743,8.29983708 C10.843527,8.3111534 10.8285675,8.32347677 10.81483,8.33669663 L10.1756254,8.8686573 C9.01669336,8.38798315 8.12554405,7.58211236 7.32477314,6.49331124 L7.91284132,6.0140191 C7.92407528,6.00573574 7.93474496,5.99694705 7.94480155,5.98769326 C7.95369695,5.98098472 7.962228,5.97395539 7.97036973,5.96662584 C7.97038611,5.9648843 7.97038611,5.96314267 7.97036973,5.96140112 C7.97926513,5.95469259 7.98779619,5.94766325 7.99593791,5.94033371 C7.99595429,5.93859216 7.99595429,5.93685054 7.99593791,5.93510899 C8.00037933,5.92992825 8.00464239,5.92464525 8.008722,5.91926629 C8.0130759,5.91586086 8.01733829,5.91237687 8.02150609,5.90881685 C8.02621424,5.90018768 8.03047938,5.89139899 8.03429018,5.88247416 C8.03430656,5.88073261 8.03430656,5.87899099 8.03429018,5.87724944 C8.03649408,5.87379703 8.03862509,5.87031336 8.04068223,5.8668 C8.04524015,5.85990239 8.04950412,5.85287563 8.05346632,5.84573258 C8.05602045,5.83703073 8.05815282,5.82824848 8.05985836,5.81940674 C8.05987474,5.81766519 8.05987474,5.81592357 8.05985836,5.81418202 C8.0625957,5.80373775 8.06472879,5.79319213 8.06625041,5.7825809 C8.06626679,5.78083935 8.06626679,5.77909773 8.06625041,5.77735618 C8.06666698,5.76857864 8.06666698,5.75979103 8.06625041,5.75101348 C8.06626679,5.74927194 8.06626679,5.74753031 8.06625041,5.74578876 C8.06666645,5.73701683 8.06666645,5.72823485 8.06625041,5.71946292 C8.06631594,5.71597998 8.06631594,5.71249642 8.06625041,5.70901348 C8.0645454,5.70016609 8.06241302,5.69137821 8.05985836,5.68267079 C8.05987474,5.68092924 8.05987474,5.67918761 8.05985836,5.67744607 C8.05350062,5.65753418 8.04494212,5.63814415 8.03429018,5.6195191 C8.03430656,5.61777755 8.03430656,5.61603593 8.03429018,5.61429438 C8.02697043,5.59977532 8.01842684,5.585696 8.008722,5.57215955 L8.00232995,5.56171011 C8.0002226,5.55994927 7.99809179,5.55820759 7.99593791,5.55648539 L6.17420495,3.09159775 C6.10240559,2.99317551 5.97473512,2.93164222 5.83542655,2.92831685 C5.82264948,2.92782282 5.80985133,2.92782282 5.79707427,2.92831685 L5.79707427,2.92747416 Z M5.65005723,3.67009213 L7.13940382,5.69783933 L6.51937541,6.2034573 C6.38961838,6.31133351 6.363445,6.47738885 6.45545495,6.60899663 C7.40164541,7.95910112 8.52273041,9.0094382 10.0925288,9.57950562 C10.2464846,9.63585701 10.4266229,9.6086833 10.546364,9.51104494 L11.2047447,8.96855056 L13.608153,10.2062697 C13.342021,10.6997697 12.9950791,10.9936011 12.5982098,11.1648371 C12.138509,11.3631742 11.5770297,11.4007247 10.9362788,11.2912416 C9.65477905,11.0722753 8.10682609,10.2424045 6.84536973,9.17922472 C5.58391336,8.11604494 4.60772427,6.82326067 4.35886405,5.77157528 C4.23443495,5.24573258 4.2894045,4.79283371 4.52505723,4.43379438 C4.72796223,4.1246427 5.07262132,3.85996854 5.65005723,3.67009213 Z" id="Shape"></path>
                        <path d="M9.00000041,0.0610921348 C4.0355145,0.0610921348 6.38181818e-05,3.38446854 6.38181818e-05,7.47677528 C6.38181818e-05,8.96386517 0.534876545,10.353809 1.47784132,11.5462079 L0.471350864,14.3137247 C0.427332715,14.4348496 0.469281914,14.5660855 0.580000556,14.6536299 C0.690719198,14.7411742 0.851585113,14.7703025 0.996648136,14.729073 L4.28420495,13.7942022 C5.65311927,14.4903708 7.27190427,14.8924551 9.00000041,14.8924551 C13.9664348,14.8924551 17.9999362,11.5689607 17.9999362,7.47677528 C17.9999362,3.38456966 13.9664348,0.0610921348 9.00000041,0.0610921348 Z M9.00000041,0.735148315 C13.5244735,0.735148315 17.1818832,3.74873258 17.1818832,7.47677528 C17.1818832,11.2047978 13.5244735,14.2183989 9.00000041,14.2183989 C7.35986495,14.2183989 5.83445086,13.8220112 4.5589995,13.140118 C4.45333018,13.0836283 4.32196967,13.0703982 4.20289814,13.1042528 L1.4841045,13.8773764 L2.3166045,11.5881236 C2.35199465,11.4907993 2.33222112,11.3855141 2.2627845,11.3015562 C1.33851723,10.1841573 0.818118818,8.88266292 0.818118818,7.47677528 C0.818118818,3.74883371 4.47766814,0.735148315 9.00000041,0.735148315 Z" id="Shape"></path>
                    </g>
                </g>
            </g>
        </g>
    </g>
</svg>