<?xml version="1.0" encoding="UTF-8"?>
<svg width="20px" height="20px" viewBox="0 0 20 20" version="1.1" xmlns="http://www.w3.org/2000/svg" xmlns:xlink="http://www.w3.org/1999/xlink">
    <!-- Generator: sketchtool 51.1 (57501) - http://www.bohemiancoding.com/sketch -->
    <title>05440EDF-9EC3-446F-97FC-6F88F0273A02</title>
    <desc>Created with sketchtool.</desc>
    <defs></defs>
    <g id="Page-1" stroke="none" stroke-width="1" fill="none" fill-rule="evenodd">
        <g id="Icon-Lib" transform="translate(-560.000000, -755.000000)" fill="#C99700" fill-rule="nonzero">
            <g id="Supporting-icons" transform="translate(21.000000, 400.000000)">
                <g id="play-button" transform="translate(539.000000, 355.000000)">
                    <g id="Group-39">
                        <path d="M15.0543333,9.73146246 L7.721,4.85638443 C7.61866667,4.78878335 7.48666667,4.78130823 7.37733333,4.83753413 C7.26833333,4.89376003 7.2,5.0042618 7.2,5.12483873 L7.2,14.8749948 C7.2,14.9955717 7.26833333,15.1060735 7.37766667,15.1622994 C7.42633333,15.1876498 7.48,15.2 7.53333333,15.2 C7.599,15.2 7.66466667,15.1808247 7.721,15.1434491 L15.0543333,10.2683711 C15.1453333,10.2079201 15.2,10.1074935 15.2,9.99991676 C15.2,9.89234004 15.1453333,9.79191343 15.0543333,9.73146246 Z M7.86666667,14.2597599 L7.86666667,5.74007357 L14.275,9.99991676 L7.86666667,14.2597599 Z" id="Shape"></path>
                        <path d="M10,0 C4.486,0 0,4.486 0,10 C0,15.514 4.486,20 10,20 C15.514,20 20,15.514 20,10 C20,4.486 15.514,0 10,0 Z M10,19.3333333 C4.85366667,19.3333333 0.666666667,15.1463333 0.666666667,10 C0.666666667,4.85366667 4.85366667,0.666666667 10,0.666666667 C15.1463333,0.666666667 19.3333333,4.85366667 19.3333333,10 C19.3333333,15.1463333 15.1463333,19.3333333 10,19.3333333 Z" id="Shape"></path>
                    </g>
                </g>
            </g>
        </g>
    </g>
</svg>