<?xml version="1.0" encoding="UTF-8"?>
<svg width="26px" height="24px" viewBox="0 0 26 24" version="1.1" xmlns="http://www.w3.org/2000/svg" xmlns:xlink="http://www.w3.org/1999/xlink">
    <!-- Generator: sketchtool 51.1 (57501) - http://www.bohemiancoding.com/sketch -->
    <title>27BCDE9B-47DE-4DE9-9962-243DE14BD603</title>
    <desc>Created with sketchtool.</desc>
    <defs></defs>
    <g id="Page-1" stroke="none" stroke-width="1" fill="none" fill-rule="evenodd">
        <g id="Icon-Lib" transform="translate(-185.000000, -872.000000)" fill-rule="nonzero">
            <g id="Supporting-icons" transform="translate(21.000000, 400.000000)">
                <g id="cheers" transform="translate(164.000000, 472.000000)">
                    <g id="Group-50">
                        <path d="M12.2285445,5.6236982 C12.223364,5.39727941 12.0691168,5.20158816 11.850164,5.14384071 L7.00735163,3.86669248 C7.0069961,3.86654011 7.00658979,3.86648932 7.00623426,3.86638774 L5.18233901,3.38536209 C4.96633203,3.3282749 4.73788167,3.41949252 4.62045677,3.60990168 C3.88995398,4.7948165 3.31547599,6.11305329 2.95913813,7.42219879 C2.36429361,9.60705374 2.46526278,11.4814336 3.25112592,12.8426889 C3.70579191,13.6302789 4.3730112,14.2082614 5.19742344,14.5375285 L3.3301541,21.3966769 L0.637507539,20.6865406 C0.36649573,20.6150293 0.0884242053,20.7768441 0.0169128434,21.0481098 C-0.0546493078,21.3193248 0.107216254,21.5971931 0.378482009,21.6687553 C0.378735956,21.6688061 3.554135,22.506322 3.55438895,22.5064235 C3.5546429,22.5064743 6.73791429,23.3460218 6.73821902,23.3460726 C6.7815931,23.3575002 6.82517034,23.3629854 6.86808732,23.3629854 C7.09313479,23.3629854 7.29878074,23.2122935 7.35881372,22.9845034 C7.43037587,22.7132884 7.26851031,22.4354201 6.99724455,22.3638579 L4.31241954,21.6557532 L6.17933335,14.7980269 C6.36232727,14.8233708 6.54547356,14.8364237 6.72735011,14.8364237 C8.99209666,14.8364237 10.8625149,12.9326368 11.7306568,9.74377859 C12.0870962,8.43437914 12.2592212,7.00963715 12.2285445,5.6236982 Z M10.7504229,9.47698229 C10.0099654,12.1968011 8.50604287,13.8206373 6.72724853,13.8206373 C6.46817221,13.8206373 6.20437249,13.7856942 5.94306144,13.7167731 C5.16029645,13.5103145 4.53360703,13.0324378 4.13089852,12.3347957 C3.65312339,11.5071838 3.49227361,10.4153658 3.65027919,9.12938019 C4.32841818,9.23969459 4.96876992,9.2824592 5.5756515,9.2824592 C6.57437268,9.2824592 7.48431413,9.16980849 8.33026104,9.06508091 C9.28454156,8.94694495 10.1314535,8.8425729 10.8841512,8.9367363 C10.8431642,9.11876522 10.7988251,9.2991181 10.7504229,9.47698229 Z M11.0696338,7.93725328 C10.1692915,7.81469865 9.2106431,7.93258066 8.20557326,8.0570145 C6.92009558,8.21613743 5.47869469,8.39445874 3.82870207,8.12999875 C3.86217223,7.98484287 3.89874054,7.83801095 3.9393212,7.68904588 C4.23857187,6.58966027 4.7040052,5.48235152 5.29280578,4.46504145 L6.09979728,4.67789949 C5.95352404,4.95978021 5.81862761,5.24938091 5.7135445,5.48519572 C5.59937011,5.74137705 5.7145095,6.04164351 5.97069083,6.15586869 C6.0378851,6.18583439 6.10807594,6.20000461 6.17714941,6.20000461 C6.37152014,6.20000461 6.55710431,6.08776021 6.64136379,5.89877315 C6.80566724,5.53014427 6.96621228,5.20311184 7.10938737,4.9441371 L11.2160086,6.02716855 C11.2117931,6.66442214 11.1621719,7.30675467 11.0696338,7.93725328 Z" id="Shape" fill="#C99700"></path>
                        <g id="Group" transform="translate(13.763906, 3.352095)">
                            <path d="M8.68578627,19.1543285 C8.68558312,19.15443 8.68532917,19.15443 8.68512601,19.1544808 L5.52730007,19.9873241 C5.82456996,19.9088546 8.68604022,19.1542777 8.68578627,19.1543285 Z" id="Shape" fill="#000000"></path>
                            <path d="M5.86240236,19.9872733 C5.63053218,20.0486719 5.5019562,20.0826218 5.5019562,20.0826218 L5.86240236,19.9872733 Z" id="Shape" fill="#000000"></path>
                            <path d="M12.2232116,17.6960147 C12.151751,17.4247998 11.8736287,17.2630866 11.6026169,17.3344456 L8.90991954,18.0445818 L7.04265021,11.1853318 C7.86706244,10.8560647 8.53428173,10.2780822 8.98889693,9.49049225 C9.77476007,8.12923691 9.87572924,6.25485707 9.28093552,4.07005291 C8.92454686,2.76090741 8.35006887,1.44267062 7.61956609,0.257755797 C7.50209039,0.0673466377 7.27384319,-0.0239217695 7.05768384,0.033216215 L0.389960396,1.79174562 C0.171007639,1.84949307 0.0167096861,2.04518432 0.0116815435,2.27160311 C-0.0159478463,3.51873485 0.121183316,4.79684807 0.408549286,5.99440944 C0.411749014,6.0112207 0.415710581,6.0278796 0.420535566,6.04418297 C0.449028374,6.16074446 0.478333812,6.27684885 0.509620032,6.39173429 C1.3776095,9.58033856 3.2479262,11.4841762 5.51277432,11.4843794 C5.5128759,11.4843794 5.51297748,11.4843794 5.51312985,11.4843794 C5.69490482,11.4843794 5.87800032,11.4713265 6.06089266,11.4459826 L7.92780647,18.3037089 L5.24298146,19.0118136 C4.9717157,19.083325 4.80985014,19.3611933 4.88141229,19.6324591 C4.94149606,19.8603 5.14714201,20.0109411 5.3721387,20.0109411 C5.41500488,20.0109411 5.45863291,20.0054559 5.50200699,19.9940283 L8.68497364,19.1544808 C8.68502443,19.1544808 8.68507522,19.1544808 8.68512601,19.1544808 L11.861744,18.316711 C12.1329082,18.2451488 12.2947737,17.9672297 12.2232116,17.6960147 Z M1.02421742,2.67492109 L6.94726786,1.11284478 C7.53611924,2.13015485 8.00155256,3.2374636 8.30080323,4.3369 C8.38760218,4.65575534 8.45779302,4.96582414 8.5120868,5.26670007 C8.20313537,5.23607411 7.88829238,5.2313507 7.56755782,5.24414961 C7.51306088,4.872321 7.43276297,4.48474771 7.36440055,4.18412572 C7.30228521,3.91062524 7.03000367,3.73921128 6.75660476,3.8014282 C6.48305348,3.86359433 6.31169032,4.1357235 6.37390724,4.40927478 C6.45095463,4.74819191 6.51154629,5.06049543 6.55283801,5.32805357 C6.32286397,5.35426086 6.09040125,5.38382024 5.8552467,5.41378594 C4.53670518,5.58205095 3.05228574,5.77124117 1.32895334,5.46386421 C1.13417629,4.55940801 1.03021056,3.61178088 1.02421742,2.67492109 Z M5.51312985,10.4684914 C5.51302827,10.4684914 5.51292669,10.4684914 5.5128759,10.4684914 C3.8257055,10.468339 2.38628539,9.00682556 1.61068169,6.53572201 C2.17693181,6.61337888 2.71560334,6.64502062 3.22913415,6.64502062 C4.23090269,6.64502062 5.13952361,6.52906861 5.98389605,6.42134446 C6.97972224,6.29432037 7.85720931,6.18253308 8.63738405,6.30518929 C8.69655361,7.36338476 8.52011151,8.27078674 8.10917513,8.98259906 C7.70641582,9.68024115 7.0797772,10.1581686 6.29701221,10.3645764 C6.03570116,10.4335991 5.77200301,10.4684914 5.51312985,10.4684914 Z" id="Shape" fill="#C99700"></path>
                        </g>
                        <path d="M13.002015,5.07893196e-05 C12.7215564,5.07893196e-05 12.4941218,0.227434573 12.4941218,0.507943985 L12.4941218,1.83268181 C12.4941218,2.11319122 12.7215564,2.340575 13.002015,2.340575 C13.2824736,2.340575 13.5099082,2.11319122 13.5099082,1.83268181 L13.5099082,0.507943985 C13.5099082,0.227434573 13.2825244,5.07893196e-05 13.002015,5.07893196e-05 Z" id="Shape" fill="#C99700"></path>
                        <path d="M11.3577616,2.4908606 L10.6848031,1.34358066 C10.542847,1.10162034 10.2317116,1.02045901 9.98970047,1.16246595 C9.74774015,1.3043713 9.6666804,1.61555747 9.80858576,1.85751778 L10.4815442,3.00479772 C10.576114,3.16600302 10.7458011,3.25579854 10.9201608,3.25579854 C11.0074676,3.25579854 11.0958919,3.23329887 11.1766469,3.18591244 C11.4186072,3.04400708 11.4996669,2.73282092 11.3577616,2.4908606 Z" id="Shape" fill="#C99700"></path>
                        <path d="M16.0143803,1.16251674 C15.7723692,1.02056059 15.4612339,1.10167113 15.3192777,1.34363145 L14.6463192,2.49091139 C14.5043631,2.73282092 14.5854736,3.04405787 14.8274339,3.18596323 C14.908189,3.23334966 14.9966132,3.25584933 15.08392,3.25584933 C15.258229,3.25584933 15.4279161,3.16605381 15.5225366,3.00484851 L16.1954951,1.85756857 C16.3374004,1.61560825 16.2562899,1.30442209 16.0143803,1.16251674 Z" id="Shape" fill="#C99700"></path>
                    </g>
                </g>
            </g>
        </g>
    </g>
</svg>