<?xml version="1.0" encoding="UTF-8"?>
<svg width="42px" height="42px" viewBox="0 0 42 42" version="1.1" xmlns="http://www.w3.org/2000/svg" xmlns:xlink="http://www.w3.org/1999/xlink">
    <!-- Generator: sketchtool 51.1 (57501) - http://www.bohemiancoding.com/sketch -->
    <title>36466148-5180-4B14-B050-86648B3965A1</title>
    <desc>Created with sketchtool.</desc>
    <defs></defs>
    <g id="Page-1" stroke="none" stroke-width="1" fill="none" fill-rule="evenodd">
        <g id="Icon-Lib" transform="translate(-170.000000, -560.000000)" stroke="#C99700">
            <g id="Supporting-icons" transform="translate(21.000000, 400.000000)">
                <g id="Whatsapp" transform="translate(149.000000, 160.000000)">
                    <g id="Group-19" transform="translate(1.000000, 1.000000)">
                        <g id="noun_whatsapp_988426" transform="translate(11.000000, 11.000000)" fill="#C99700" stroke-width="0.5">
                            <g id="Group">
                                <path d="M5.79707427,3.51296899 C5.7666194,3.51597617 5.73660202,3.52235315 5.70758564,3.53198022 C4.79647677,3.80865438 4.15122177,4.29795101 3.80275609,4.93507011 C3.45429041,5.57218921 3.41025995,6.31896674 3.55985836,7.07761618 C3.85905109,8.5949191 4.92077495,10.2257393 6.26369359,11.5839303 C7.60661223,12.9421416 9.22591882,14.0292607 10.7700856,14.3458787 C11.5421711,14.5041775 12.3109552,14.4623124 12.9753405,14.1183506 C13.6397266,13.7743685 14.168311,13.1329213 14.4966473,12.2159528 C14.5590029,12.0389615 14.490225,11.8427971 14.3304541,11.7419461 L11.4156822,9.9343618 L11.4092902,9.92809213 C11.3949276,9.91874375 11.3799832,9.91030003 11.3645459,9.90281124 C11.3216736,9.87533805 11.2739762,9.85604813 11.2239209,9.84593933 C11.2196598,9.84587349 11.2153979,9.84587349 11.2111368,9.84593933 C11.2005718,9.84343061 11.1899099,9.84133906 11.1791765,9.83966966 C11.1770459,9.8396532 11.1749151,9.8396532 11.1727845,9.83966966 C11.1045669,9.83574837 11.0364425,9.84878558 10.9746311,9.87759101 C10.9522015,9.8882817 10.9308059,9.90097483 10.9107106,9.91551236 C10.8974562,9.92321994 10.8846518,9.9316603 10.8723584,9.94079326 C10.8679169,9.94701015 10.8636539,9.95334975 10.8595743,9.95980449 C10.843527,9.97338408 10.8285675,9.98817212 10.81483,10.004036 L10.1756254,10.6423888 C9.01669336,10.0655798 8.12554405,9.09853483 7.32477314,7.79197348 L7.91284132,7.21682292 C7.92407528,7.20688289 7.93474496,7.19633646 7.94480155,7.18523191 C7.95369695,7.17718167 7.962228,7.16874646 7.97036973,7.15995101 C7.97038611,7.15786115 7.97038611,7.1557712 7.97036973,7.15368135 C7.97926513,7.1456311 7.98779619,7.1371959 7.99593791,7.12840045 C7.99595429,7.12631059 7.99595429,7.12422064 7.99593791,7.12213079 C8.00037933,7.1159139 8.00464239,7.1095743 8.008722,7.10311955 C8.0130759,7.09903303 8.01733829,7.09485224 8.02150609,7.09058022 C8.02621424,7.08022521 8.03047938,7.06967879 8.03429018,7.05896899 C8.03430656,7.05687913 8.03430656,7.05478918 8.03429018,7.05269933 C8.03649408,7.04855644 8.03862509,7.04437603 8.04068223,7.04016 C8.04524015,7.03188286 8.04950412,7.02345075 8.05346632,7.0148791 C8.05602045,7.00443687 8.05815282,6.99389818 8.05985836,6.98328809 C8.05987474,6.98119823 8.05987474,6.97910828 8.05985836,6.97701843 C8.0625957,6.96448529 8.06472879,6.95183056 8.06625041,6.93909708 C8.06626679,6.93700722 8.06626679,6.93491727 8.06625041,6.93282742 C8.06666698,6.92229436 8.06666698,6.91174923 8.06625041,6.90121618 C8.06626679,6.89912632 8.06626679,6.89703637 8.06625041,6.89494652 C8.06666645,6.8844202 8.06666645,6.87388183 8.06625041,6.86335551 C8.06631594,6.85917598 8.06631594,6.8549957 8.06625041,6.85081618 C8.0645454,6.8401993 8.06241302,6.82965385 8.05985836,6.81920494 C8.05987474,6.81711509 8.05987474,6.81502514 8.05985836,6.81293528 C8.05350062,6.78904102 8.04494212,6.76577298 8.03429018,6.74342292 C8.03430656,6.74133307 8.03430656,6.73924311 8.03429018,6.73715326 C8.02697043,6.71973038 8.01842684,6.7028352 8.008722,6.68659146 L8.00232995,6.67405213 C8.0002226,6.67193913 7.99809179,6.66984911 7.99593791,6.66778247 L6.17420495,3.7099173 C6.10240559,3.59181061 5.97473512,3.51797067 5.83542655,3.51398022 C5.82264948,3.51338738 5.80985133,3.51338738 5.79707427,3.51398022 L5.79707427,3.51296899 Z M5.65005723,4.40411056 L7.13940382,6.83740719 L6.51937541,7.44414876 C6.38961838,7.57360021 6.363445,7.77286662 6.45545495,7.93079596 C7.40164541,9.55092135 8.52273041,10.8113258 10.0925288,11.4954067 C10.2464846,11.5630284 10.4266229,11.53042 10.546364,11.4132539 L11.2047447,10.7622607 L13.608153,12.2475236 C13.342021,12.8397236 12.9950791,13.1923213 12.5982098,13.3978045 C12.138509,13.635809 11.5770297,13.6808697 10.9362788,13.5494899 C9.65477905,13.2867303 8.10682609,12.2908854 6.84536973,11.0150697 C5.58391336,9.73925393 4.60772427,8.18791281 4.35886405,6.92589034 C4.23443495,6.2948791 4.2894045,5.75140045 4.52505723,5.32055326 C4.72796223,4.94957124 5.07262132,4.63196225 5.65005723,4.40411056 Z" id="Shape"></path>
                                <path d="M9.00000041,0.0733105618 C4.0355145,0.0733105618 6.38181818e-05,4.06136225 6.38181818e-05,8.97213034 C6.38181818e-05,10.7566382 0.534876545,12.4245708 1.47784132,13.8554494 L0.471350864,17.1764697 C0.427332715,17.3218195 0.469281914,17.4793026 0.580000556,17.5843558 C0.690719198,17.6894091 0.851585113,17.724363 0.996648136,17.6748876 L4.28420495,16.5530427 C5.65311927,17.3884449 7.27190427,17.8709461 9.00000041,17.8709461 C13.9664348,17.8709461 17.9999362,13.8827528 17.9999362,8.97213034 C17.9999362,4.0614836 13.9664348,0.0733105618 9.00000041,0.0733105618 Z M9.00000041,0.882177978 C13.5244735,0.882177978 17.1818832,4.4984791 17.1818832,8.97213034 C17.1818832,13.4457573 13.5244735,17.0620787 9.00000041,17.0620787 C7.35986495,17.0620787 5.83445086,16.5864135 4.5589995,15.7681416 C4.45333018,15.700354 4.32196967,15.6844779 4.20289814,15.7251034 L1.4841045,16.6528517 L2.3166045,13.9057483 C2.35199465,13.7889592 2.33222112,13.6626169 2.2627845,13.5618674 C1.33851723,12.2209888 0.818118818,10.6591955 0.818118818,8.97213034 C0.818118818,4.49860045 4.47766814,0.882177978 9.00000041,0.882177978 Z" id="Shape"></path>
                            </g>
                        </g>
                        <circle id="Oval-4-Copy-5" cx="20" cy="20" r="20"></circle>
                    </g>
                </g>
            </g>
        </g>
    </g>
</svg>