<svg xmlns="http://www.w3.org/2000/svg" width="62" height="54" viewBox="0 0 62 54">
    <g fill="none" fill-rule="evenodd" transform="translate(0 2)">
        <path fill="#000" fill-rule="nonzero" d="M44.202 15.677h-12.27c2.12-.955 3.946-2.203 4.586-3.71.327-.768.626-2.3-1.036-3.92-1.295-1.263-2.705-1.903-4.19-1.903-3.423 0-6.294 3.457-7.792 6.647-1.499-3.19-4.37-6.647-7.791-6.647-1.486 0-2.895.64-4.19 1.903-1.663 1.62-1.364 3.151-1.037 3.92.64 1.507 2.466 2.755 4.585 3.71H2.797C1.256 15.677 0 16.901 0 18.405V25.5c0 1.317.963 2.42 2.238 2.672v20.244c0 1.505 1.255 2.729 2.798 2.729h36.928c1.543 0 2.798-1.224 2.798-2.729V28.171C46.037 27.918 47 26.816 47 25.5v-7.094c0-1.504-1.255-2.728-2.798-2.728zM31.656 8.144c.895 0 1.798.411 2.684 1.224.877.805.66 1.287.567 1.493-.896 1.984-6.655 3.809-9.907 4.283.796-2.63 3.712-7 6.656-7zM12.093 10.86c-.093-.206-.31-.688.567-1.493.886-.813 1.788-1.224 2.684-1.224 2.944 0 5.86 4.37 6.656 7-3.253-.474-9.011-2.3-9.907-4.283zM2 17.744c0-.326.254-.6.556-.6H22v9H2.556c-.302 0-.556-.275-.556-.6v-7.8zm2.563 31.4A.565.565 0 0 1 4 48.59V28.144h18v21H4.562zm37.843 0H24v-21h19V48.59c0 .3-.272.553-.594.553zM44 25.544c0 .325-.254.6-.556.6H24v-9h19.444c.302 0 .556.274.556.6v7.8z"/>
        <circle cx="48.816" cy="11" r="12" fill="#9BD363" stroke="#FFF" stroke-width="2" transform="matrix(0 -1 -1 0 59.816 59.816)"/>
        <path fill="#000" fill-opacity=".8" fill-rule="nonzero" d="M52.947 8.235l-5.233 5.187-2.795-2.193-.919.984 3.321 2.607.519.415.467-.462L54 9.123z"/>
    </g>
</svg>
