<?xml version="1.0" encoding="UTF-8"?>
<svg width="26px" height="25px" viewBox="0 0 26 25" version="1.1" xmlns="http://www.w3.org/2000/svg" xmlns:xlink="http://www.w3.org/1999/xlink">
    <!-- Generator: sketchtool 51.1 (57501) - http://www.bohemiancoding.com/sketch -->
    <title>B2595790-CDCE-4B21-827B-D76B97028A86</title>
    <desc>Created with sketchtool.</desc>
    <defs></defs>
    <g id="Page-1" stroke="none" stroke-width="1" fill="none" fill-rule="evenodd">
        <g id="Icon-Lib" transform="translate(-106.000000, -872.000000)">
            <g id="Supporting-icons" transform="translate(21.000000, 400.000000)">
                <g id="Shopping-cart-filled" transform="translate(85.000000, 472.000000)">
                    <g id="Group-4" transform="translate(0.000000, 1.000000)">
                        <g id="shopping-cart" transform="translate(0.000000, 5.390625)" fill="#000000" fill-rule="nonzero">
                            <path d="M19.9166797,2.6796875 C19.8333594,2.59636719 19.75,2.51300781 19.5833594,2.51300781 L3.75,2.51300781 L3.33332031,0.346367187 C3.33332031,0.1796875 3.08332031,0.013046875 2.91664062,0.013046875 L0.416640625,0.013046875 C0.166679687,0.0130078125 0,0.1796875 0,0.4296875 C0,0.6796875 0.166679687,0.846367187 0.416679687,0.846367187 L2.58335937,0.846367187 L4.58335937,11.0130469 C4.83335937,12.3463672 6.08335937,13.3463672 7.41667969,13.3463672 L17,13.3463672 C17.25,13.3463672 17.4166797,13.1796875 17.4166797,12.9296875 C17.4166797,12.6796875 17.25,12.5130078 17,12.5130078 L7.5,12.5130078 C6.83332031,12.5130078 6.16667969,12.1796875 5.83332031,11.5963281 L18,9.9296875 C18.1666797,9.9296875 18.3333203,9.76300781 18.3333203,9.59636719 L20,2.9296875 C20,2.9296875 20,2.76300781 19.9166797,2.6796875 Z M17.5833203,9.1796875 L5.41664063,10.7630078 L3.91664063,3.26300781 L19,3.26300781 L17.5833203,9.1796875 Z" id="Shape"></path>
                            <path d="M7.08332031,14.1796875 C5.91667969,14.1796875 5,15.0963672 5,16.2630078 C5,17.4296875 5.91667969,18.3463281 7.08332031,18.3463281 C8.25,18.3463281 9.16664063,17.4296484 9.16664063,16.2630078 C9.16667969,15.0963672 8.25,14.1796875 7.08332031,14.1796875 Z M7.08332031,17.5130078 C6.41664062,17.5130078 5.83332031,16.9296484 5.83332031,16.2630078 C5.83332031,15.5963672 6.41664062,15.0130078 7.08332031,15.0130078 C7.75,15.0130078 8.33332031,15.5963672 8.33332031,16.2630078 C8.33332031,16.9296484 7.75,17.5130078 7.08332031,17.5130078 Z" id="Shape"></path>
                            <path d="M15.4166797,14.1796875 C14.25,14.1796875 13.3333594,15.0963672 13.3333594,16.2630078 C13.3333594,17.4296875 14.2500391,18.3463281 15.4166797,18.3463281 C16.5833594,18.3463281 17.5,17.4296484 17.5,16.2630078 C17.5,15.0963672 16.5833203,14.1796875 15.4166797,14.1796875 Z M15.4166797,17.5130078 C14.75,17.5130078 14.1666797,16.9296484 14.1666797,16.2630078 C14.1666797,15.5963672 14.75,15.0130078 15.4166797,15.0130078 C16.0833594,15.0130078 16.6666797,15.5963672 16.6666797,16.2630078 C16.6666797,16.9296484 16.0833203,17.5130078 15.4166797,17.5130078 Z" id="Shape"></path>
                        </g>
                        <circle id="Oval-4" stroke="#FFFFFF" fill="#C99700" cx="19" cy="6" r="6"></circle>
                    </g>
                </g>
            </g>
        </g>
    </g>
</svg>