<?xml version="1.0" encoding="UTF-8"?>
<svg width="16px" height="19px" viewBox="0 0 16 19" version="1.1" xmlns="http://www.w3.org/2000/svg" xmlns:xlink="http://www.w3.org/1999/xlink">
    <!-- Generator: sketchtool 51.1 (57501) - http://www.bohemiancoding.com/sketch -->
    <title>3B3454A8-102D-4141-82C0-8C3CD873AEE2</title>
    <desc>Created with sketchtool.</desc>
    <defs></defs>
    <g id="Page-1" stroke="none" stroke-width="1" fill="none" fill-rule="evenodd">
        <g id="Icon-Lib" transform="translate(-191.000000, -753.000000)" fill="#000000" fill-rule="nonzero">
            <g id="Supporting-icons" transform="translate(21.000000, 400.000000)">
                <g id="keyhole" transform="translate(170.000000, 353.000000)">
                    <g id="Group-35">
                        <path d="M15.5946572,2.3230143 C13.1669711,2.17457651 10.6831109,1.41123518 8.21202108,0.0542169028 C8.08032743,-0.0180723009 7.91971057,-0.0180723009 7.78801692,0.0542169028 C5.31692705,1.41127229 2.83306689,2.17461362 0.405380816,2.3230143 C0.177529889,2.33693035 0,2.52147563 0,2.74442919 L0,10.7666753 C0,12.0941545 0.424270209,13.3573601 1.26091449,14.5212608 C1.91816655,15.4355262 2.82987432,16.2885982 3.97072524,17.0567638 C5.89288251,18.3509558 7.78771286,18.9546523 7.86741318,18.9797011 C7.91051292,18.9932461 7.95524696,19 7.99994299,19 C8.04463902,19 8.08937305,18.993209 8.13247279,18.9797011 C8.21221112,18.9546151 10.1070035,18.3509187 12.0291607,17.0567638 C13.1700117,16.2886724 14.0817194,15.4356005 14.7389715,14.5212608 C15.5757298,13.3573601 16,12.0941545 16,10.7666753 L16,2.7444663 C16.000038,2.52147563 15.8225081,2.33696746 15.5946572,2.3230143 Z M15.1351927,10.7666753 C15.1351927,12.8669958 13.9306803,14.7455874 11.5550636,16.3502741 C10.0171553,17.389116 8.45591089,17.9725136 7.99986697,18.1312678 C7.5457614,17.9735527 5.99816142,17.3960555 4.46173544,16.3615554 C2.07502072,14.7545679 0.864883354,12.8722283 0.864883354,10.7666753 L0.864883354,3.1357112 C3.22332099,2.92945689 5.62048758,2.18018004 8.000019,0.905173643 C10.3795884,2.18010582 12.776717,2.92941978 15.1351546,3.1357112 L15.1351546,10.7666753 L15.1351927,10.7666753 Z" id="Shape"></path>
                        <path d="M9.66053877,11.0133797 C9.59760939,10.6547909 9.53300033,10.2864423 9.47569592,9.92143365 C10.2175673,9.45504188 10.6666667,8.67158684 10.6666667,7.81112967 C10.6666667,6.41425516 9.47042251,5.27777778 8,5.27777778 C6.52957749,5.27777778 5.33333333,6.41421805 5.33333333,7.81112967 C5.33333333,8.67158684 5.78239364,9.45504188 6.52430408,9.92139654 C6.46699967,10.2864052 6.40239061,10.6547538 6.33946123,11.0133426 C6.21075092,11.7472565 6.07754845,12.5061079 6.00200194,13.2599496 C5.990127,13.3783659 6.0313768,13.4960029 6.1156342,13.5840637 C6.19985254,13.6720502 6.31922696,13.7222222 6.44442166,13.7222222 L9.55550022,13.7222222 C9.68069492,13.7222222 9.8001084,13.6720502 9.88428767,13.5840637 C9.96854508,13.4960771 10.0097558,13.378403 9.99791993,13.2599496 C9.92245155,12.506145 9.78928814,11.7472565 9.66053877,11.0133797 Z M8.55273168,9.75774379 C8.62097353,10.2244695 8.7037075,10.6961308 8.78370711,11.1522062 C8.88319881,11.7193873 8.98538581,12.3018203 9.05979951,12.8777963 L6.94020049,12.8777963 C7.01461419,12.3018574 7.11676213,11.7193873 7.21629289,11.1522062 C7.2962925,10.6961308 7.37906553,10.2244695 7.44726832,9.75774379 C7.47347913,9.57839375 7.37637023,9.40312574 7.20594138,9.32207867 C6.59918653,9.03358968 6.22227431,8.45457069 6.22227431,7.81112967 C6.22227431,6.87986763 7.01977041,6.12224078 8.00003906,6.12224078 C8.98030771,6.12224078 9.77780382,6.87986763 9.77780382,7.81112967 C9.77780382,8.45464491 9.4008916,9.03358968 8.79405862,9.32207867 C8.62362977,9.40308863 8.52655993,9.57835664 8.55273168,9.75774379 Z" id="Shape"></path>
                    </g>
                </g>
            </g>
        </g>
    </g>
</svg>