<?xml version="1.0" encoding="UTF-8"?>
<svg width="20px" height="16px" viewBox="0 0 20 16" version="1.1" xmlns="http://www.w3.org/2000/svg" xmlns:xlink="http://www.w3.org/1999/xlink">
    <!-- Generator: sketchtool 51.1 (57501) - http://www.bohemiancoding.com/sketch -->
    <title>22236655-EDBE-4819-A189-CEC57BBE7D96</title>
    <desc>Created with sketchtool.</desc>
    <defs></defs>
    <g id="Page-1" stroke="none" stroke-width="1" fill="none" fill-rule="evenodd">
        <g id="Icon-Lib" transform="translate(-189.000000, -701.000000)" fill="#D0A422" fill-rule="nonzero">
            <g id="Supporting-icons" transform="translate(21.000000, 400.000000)">
                <g id="logout" transform="translate(168.000000, 301.000000)">
                    <path d="M0.909090909,3.17175832 L0.909090909,12.1584069 C0.909090909,13.3966961 1.94223292,14.4068794 3.20866506,14.4068794 L10.6369191,14.4068794 C11.9033512,14.4068794 12.9364932,13.3966961 12.9364932,12.1584069 L12.9364932,10.702874 C12.9364932,10.4566644 12.7328273,10.2575243 12.481022,10.2575243 C12.2292168,10.2575243 12.0255508,10.4566644 12.0255508,10.702874 L12.0255508,12.1584069 C12.0255508,12.9078977 11.3997408,13.5198009 10.6332161,13.5198009 L3.20866506,13.5198009 C2.44214034,13.5198009 1.81633031,12.9078977 1.81633031,12.1584069 L1.81633031,3.17175832 C1.81633031,2.42226748 2.44214034,1.81036434 3.20866506,1.81036434 L10.6369191,1.81036434 C11.4034438,1.81036434 12.0292538,2.42226748 12.0292538,3.17175832 L12.0292538,4.62729124 C12.0292538,4.87350079 12.2329198,5.07264087 12.4847251,5.07264087 C12.7365303,5.07264087 12.9401963,4.87350079 12.9401963,4.62729124 L12.9401963,3.17175832 C12.9401963,1.93346911 11.9070542,0.923285811 10.6406221,0.923285811 L3.20866506,0.923285811 C1.94223292,0.923285811 0.909090909,1.92984838 0.909090909,3.17175832 Z" id="Shape"></path>
                    <path d="M15.1805221,11.0142566 C15.2693946,11.1011541 15.3841881,11.1446029 15.5026847,11.1446029 C15.6211813,11.1446029 15.7359748,11.1011541 15.8248473,11.0142566 L18.9316793,7.97646526 C19.1094242,7.80267029 19.1094242,7.52387418 18.9316793,7.3500792 L15.8248473,4.31228785 C15.6471024,4.13849287 15.36197,4.13849287 15.1842251,4.31228785 C15.0064803,4.48608282 15.0064803,4.76487893 15.1842251,4.93867391 L17.5171265,7.21973297 L9.00388817,7.21973297 C8.75208295,7.21973297 8.54841696,7.41887305 8.54841696,7.6650826 C8.54841696,7.91129215 8.75208295,8.11043222 9.00388817,8.11043222 L17.5134234,8.11043222 L15.1805221,10.3914913 C15.0027773,10.5616655 15.0027773,10.8440824 15.1805221,11.0142566 Z" id="Shape"></path>
                </g>
            </g>
        </g>
    </g>
</svg>