<?xml version="1.0" encoding="UTF-8"?>
<svg width="19px" height="19px" viewBox="0 0 19 19" version="1.1" xmlns="http://www.w3.org/2000/svg" xmlns:xlink="http://www.w3.org/1999/xlink">
    <!-- Generator: sketchtool 51.1 (57501) - http://www.bohemiancoding.com/sketch -->
    <title>4012F450-6F11-4978-90FB-89ECCB6B6146</title>
    <desc>Created with sketchtool.</desc>
    <defs></defs>
    <g id="Page-1" stroke="none" stroke-width="1" fill="none" fill-rule="evenodd">
        <g id="Icon-Lib" transform="translate(-33.000000, -699.000000)" fill="#000000" fill-rule="nonzero">
            <g id="Supporting-icons" transform="translate(21.000000, 400.000000)">
                <g id="FAQs" transform="translate(12.000000, 299.000000)">
                    <g id="noun_FAQ_1118575">
                        <path d="M9.5,0 C4.2619375,0 0,4.2619375 0,9.5 C0,14.7380625 4.2619375,19 9.5,19 C14.7380625,19 19,14.7380625 19,9.5 C19,4.2619375 14.7380625,0 9.5,0 Z M9.5,17.8125 C4.91625,17.8125 1.1875,14.08375 1.1875,9.5 C1.1875,4.91625 4.91625,1.1875 9.5,1.1875 C14.08375,1.1875 17.8125,4.91625 17.8125,9.5 C17.8125,14.08375 14.08375,17.8125 9.5,17.8125 Z M13.0625,7.71875 C13.0625,9.0915 12.2959688,10.3181875 11.0621563,10.9214375 C10.4648438,11.2129687 10.09375,11.7604063 10.09375,12.3488125 C10.09375,12.6771562 9.82775,12.9425625 9.5,12.9425625 C9.17225,12.9425625 8.90625,12.6771562 8.90625,12.3488125 C8.90625,11.302625 9.53265625,10.3466875 10.5408438,9.85446875 C11.3637813,9.45190625 11.875,8.63371875 11.875,7.71875 C11.875,6.4315 10.78725,5.34375 9.5,5.34375 C8.1901875,5.34375 7.125,6.4089375 7.125,7.71875 C7.125,8.04709375 6.859,8.3125 6.53125,8.3125 C6.2035,8.3125 5.9375,8.04709375 5.9375,7.71875 C5.9375,5.75403125 7.53528125,4.15625 9.5,4.15625 C11.430875,4.15625 13.0625,5.787875 13.0625,7.71875 Z M10.09375,14.25 C10.09375,14.57775 9.82775,14.84375 9.5,14.84375 C9.17225,14.84375 8.90625,14.57775 8.90625,14.25 C8.90625,13.92225 9.17225,13.65625 9.5,13.65625 C9.82775,13.65625 10.09375,13.92225 10.09375,14.25 Z" id="Shape"></path>
                    </g>
                </g>
            </g>
        </g>
    </g>
</svg>