<svg xmlns="http://www.w3.org/2000/svg" width="18" height="18" viewBox="0 0 18 18">
    <path fill="#000" fill-rule="nonzero" stroke="#000" stroke-width=".2" d="M16.913 16.489L12.25 11.82c1.189-1.149 1.926-2.732 1.926-4.477C14.177 3.846 11.22 1 7.588 1 3.955 1 1 3.846 1 7.344s2.955 6.343 6.588 6.343a6.713 6.713 0 0 0 4.2-1.46l4.672 4.68a.317.317 0 0 0 .226.093.32.32 0 0 0 .218-.084.294.294 0 0 0 .009-.427zm-9.325-3.406c-3.287 0-5.96-2.574-5.96-5.74 0-3.164 2.673-5.739 5.96-5.739s5.961 2.575 5.961 5.74-2.674 5.74-5.96 5.74z"/>
</svg>
