<?xml version="1.0" encoding="UTF-8"?>
<svg width="20px" height="20px" viewBox="0 0 20 20" version="1.1" xmlns="http://www.w3.org/2000/svg" xmlns:xlink="http://www.w3.org/1999/xlink">
    <!-- Generator: sketchtool 51.1 (57501) - http://www.bohemiancoding.com/sketch -->
    <title>25136678-3D43-40DD-9EA0-0F3015A1B851</title>
    <desc>Created with sketchtool.</desc>
    <defs></defs>
    <g id="Page-1" stroke="none" stroke-width="1" fill="none" fill-rule="evenodd">
        <g id="Icon-Lib" transform="translate(-420.000000, -641.000000)" fill="#000000" fill-rule="nonzero">
            <g id="Supporting-icons" transform="translate(21.000000, 400.000000)">
                <g id="settings" transform="translate(399.000000, 241.000000)">
                    <g id="Group-30">
                        <path d="M18.9703704,7.77777778 L17.0992593,7.77777778 C16.7985185,7.77777778 16.5507407,7.61222222 16.4355556,7.33444444 C16.3203704,7.05666667 16.3788889,6.76407407 16.5911111,6.55148148 L17.9140741,5.22888889 C18.1085185,5.03444444 18.2155556,4.77555556 18.2155556,4.50074074 C18.2155556,4.22555556 18.1085185,3.96703704 17.9140741,3.77222222 L16.2277778,2.08592593 C15.8388889,1.69703704 15.1607407,1.6962963 14.7711111,2.08592593 L13.4485185,3.40851852 C13.2359259,3.62074074 12.9425926,3.68 12.6655556,3.56444444 C12.3877778,3.44925926 12.2222222,3.20148148 12.2222222,2.90074074 L12.2222222,1.02962963 C12.2222222,0.461851852 11.7603704,0 11.1925926,0 L8.80740741,0 C8.23962963,0 7.77777778,0.461851852 7.77777778,1.02962963 L7.77777778,2.90074074 C7.77777778,3.20148148 7.61222222,3.44925926 7.33444444,3.56444444 C7.05740741,3.68037037 6.76407407,3.62074074 6.55148148,3.40851852 L5.22888889,2.08592593 C4.83925926,1.6962963 4.16111111,1.69703704 3.77222222,2.08592593 L2.08592593,3.77222222 C1.89148148,3.96666667 1.78444444,4.22555556 1.78444444,4.50074074 C1.78444444,4.77555556 1.89148148,5.03407407 2.08592593,5.22888889 L3.40888889,6.55148148 C3.62111111,6.76407407 3.67925926,7.05666667 3.56444444,7.33444444 C3.44962963,7.61222222 3.20148148,7.77777778 2.90074074,7.77777778 L1.02962963,7.77777778 C0.461851852,7.77777778 0,8.23962963 0,8.80740741 L0,11.1922222 C0,11.7603704 0.461851852,12.2222222 1.02962963,12.2222222 L2.90074074,12.2222222 C3.20148148,12.2222222 3.44925926,12.3877778 3.56444444,12.6655556 C3.67962963,12.9433333 3.62111111,13.2359259 3.40888889,13.4485185 L2.08592593,14.7711111 C1.89148148,14.9655556 1.78444444,15.2244444 1.78444444,15.4992593 C1.78444444,15.7744444 1.89148148,16.032963 2.08592593,16.2277778 L3.77222222,17.9140741 C4.16148148,18.3033333 4.83925926,18.3040741 5.22888889,17.9140741 L6.55148148,16.5911111 C6.76407407,16.3788889 7.0562963,16.3203704 7.33444444,16.4355556 C7.61222222,16.5507407 7.77777778,16.7985185 7.77777778,17.0992593 L7.77777778,18.9703704 C7.77777778,19.5381481 8.23962963,20 8.80740741,20 L11.1922222,20 C11.76,20 12.2218519,19.5381481 12.2218519,18.9703704 L12.2218519,17.0992593 C12.2218519,16.7985185 12.3874074,16.5507407 12.6651852,16.4355556 C12.9433333,16.32 13.2355556,16.3788889 13.4481481,16.5911111 L14.7707407,17.9140741 C15.1603704,18.3037037 15.8385185,18.302963 16.2274074,17.9140741 L17.9137037,16.2277778 C18.1081481,16.0333333 18.2151852,15.7744444 18.2151852,15.4992593 C18.2151852,15.2244444 18.1081481,14.9659259 17.9137037,14.7711111 L16.5907407,13.4485185 C16.3785185,13.2359259 16.3203704,12.9433333 16.4351852,12.6655556 C16.55,12.3877778 16.7985185,12.2222222 17.0992593,12.2222222 L18.9703704,12.2222222 C19.5381481,12.2222222 20,11.7603704 20,11.1925926 L20,8.80740741 C20,8.23962963 19.5381481,7.77777778 18.9703704,7.77777778 Z M19.2592593,11.1925926 C19.2592593,11.3518519 19.1296296,11.4814815 18.9703704,11.4814815 L17.0992593,11.4814815 C16.4977778,11.4814815 15.9811111,11.8266667 15.7511111,12.3822222 C15.5207407,12.9377778 15.6418519,13.5474074 16.0674074,13.9725926 L17.3903704,15.2951852 C17.5033333,15.4081481 17.5033333,15.5914815 17.3903704,15.7040741 L15.7040741,17.3903704 C15.5914815,17.502963 15.4081481,17.5037037 15.2951852,17.3903704 L13.9725926,16.0674074 C13.547037,15.6418519 12.9377778,15.5214815 12.3822222,15.7511111 C11.8266667,15.9811111 11.4814815,16.4977778 11.4814815,17.0992593 L11.4814815,18.9703704 C11.4814815,19.1296296 11.3518519,19.2592593 11.1925926,19.2592593 L8.80740741,19.2592593 C8.64814815,19.2592593 8.51851852,19.1296296 8.51851852,18.9703704 L8.51851852,17.0992593 C8.51851852,16.4977778 8.17333333,15.9811111 7.61777778,15.7511111 C7.43148148,15.6737037 7.23962963,15.6359259 7.05,15.6359259 C6.67444444,15.6359259 6.31037037,15.7840741 6.02740741,16.067037 L4.70481481,17.39 C4.59148148,17.5033333 4.40814815,17.5025926 4.29592593,17.39 L2.60962963,15.7037037 C2.49666667,15.5907407 2.49666667,15.4074074 2.60962963,15.2948148 L3.93259259,13.9722222 C4.35777778,13.547037 4.47925926,12.9374074 4.24888889,12.3818519 C4.01888889,11.8266667 3.50222222,11.4814815 2.90074074,11.4814815 L1.02962963,11.4814815 C0.87037037,11.4814815 0.740740741,11.3518519 0.740740741,11.1925926 L0.740740741,8.80740741 C0.740740741,8.64814815 0.87037037,8.51851852 1.02962963,8.51851852 L2.90074074,8.51851852 C3.50222222,8.51851852 4.01888889,8.17333333 4.24888889,7.61777778 C4.47925926,7.06222222 4.35814815,6.45259259 3.93259259,6.02740741 L2.60962963,4.70481481 C2.49666667,4.59185185 2.49666667,4.40851852 2.60962963,4.29592593 L4.29592593,2.60962963 C4.40851852,2.49666667 4.59185185,2.49666667 4.70481481,2.60962963 L6.02740741,3.93222222 C6.45222222,4.35703704 7.06148148,4.47888889 7.61777778,4.24851852 C8.17333333,4.01888889 8.51851852,3.50222222 8.51851852,2.90074074 L8.51851852,1.02962963 C8.51851852,0.87037037 8.64814815,0.740740741 8.80740741,0.740740741 L11.1922222,0.740740741 C11.3518519,0.740740741 11.4814815,0.87037037 11.4814815,1.02962963 L11.4814815,2.90074074 C11.4814815,3.50222222 11.8266667,4.01888889 12.3822222,4.24888889 C12.9385185,4.47925926 13.5474074,4.35777778 13.9725926,3.93259259 L15.2951852,2.61 C15.4085185,2.49703704 15.5918519,2.49703704 15.7040741,2.61 L17.3903704,4.2962963 C17.5033333,4.40925926 17.5033333,4.59259259 17.3903704,4.70518519 L16.0674074,6.02777778 C15.6422222,6.45296296 15.5207407,7.06259259 15.7511111,7.61814815 C15.9811111,8.1737037 16.4977778,8.51888889 17.0992593,8.51888889 L18.9703704,8.51888889 C19.1296296,8.51851852 19.2592593,8.64814815 19.2592593,8.80740741 L19.2592593,11.1925926 Z" id="Shape"></path>
                        <path d="M10,6.66666667 C8.16185185,6.66666667 6.66666667,8.16185185 6.66666667,10 C6.66666667,11.8381481 8.16185185,13.3333333 10,13.3333333 C11.8381481,13.3333333 13.3333333,11.8381481 13.3333333,10 C13.3333333,8.16185185 11.8381481,6.66666667 10,6.66666667 Z M10,12.5925926 C8.57074074,12.5925926 7.40740741,11.4292593 7.40740741,10 C7.40740741,8.57074074 8.57074074,7.40740741 10,7.40740741 C11.4292593,7.40740741 12.5925926,8.57074074 12.5925926,10 C12.5925926,11.4292593 11.4292593,12.5925926 10,12.5925926 Z" id="Shape"></path>
                    </g>
                </g>
            </g>
        </g>
    </g>
</svg>