<svg xmlns="http://www.w3.org/2000/svg" width="14" height="14" viewBox="0 0 14 14">
    <path fill="none" fill-rule="nonzero" stroke="#3E3E3E" d="M3.432 8.977a12.772 12.772 0 0 0 4.25 3.317c.622.293 1.453.641 2.379.701.057.003.112.005.17.005.621 0 1.12-.214 1.527-.654.003-.002.008-.007.01-.012.145-.174.31-.331.482-.498.117-.112.237-.228.352-.348.532-.552.532-1.253-.005-1.788l-1.5-1.494c-.255-.264-.56-.403-.879-.403-.32 0-.626.14-.888.4l-.894.89c-.082-.047-.167-.089-.247-.129a3.09 3.09 0 0 1-.275-.149C7.101 8.3 6.362 7.63 5.656 6.766c-.357-.45-.597-.828-.764-1.213.235-.212.454-.433.666-.65l.23-.23c.27-.269.414-.58.414-.896 0-.315-.142-.626-.414-.895l-.744-.74c-.087-.088-.17-.172-.254-.26-.165-.168-.337-.342-.507-.5-.257-.25-.56-.382-.879-.382-.317 0-.621.132-.888.385l-.934.93c-.34.339-.531.749-.571 1.224-.048.594.062 1.226.347 1.989.436 1.181 1.095 2.278 2.074 3.449z"/>
</svg>
