<svg xmlns="http://www.w3.org/2000/svg" width="27" height="27" viewBox="0 0 27 27">
    <path fill="none" fill-rule="evenodd" stroke="#C99700" d="M13.749 11.018a.325.325 0 0 1-.606 0c-.652-1.645-2.131-4.167-2.131-5.599 0-1.497 1.62-3.594 2.217-4.315a.286.286 0 0 1 .44-.001c.59.691 2.145 2.67 2.145 4.316 0 1.578-1.426 3.986-2.065 5.6zm1.594 1.034c-.27.117-.545-.16-.429-.434.686-1.63 1.4-4.475 2.398-5.487 1.045-1.06 3.653-1.38 4.577-1.463a.291.291 0 0 1 .313.315c-.065.913-.346 3.426-1.495 4.59-1.1 1.116-3.787 1.796-5.364 2.479zm.406 1.874a.333.333 0 0 1 0-.615c1.622-.66 4.11-2.16 5.522-2.16 1.477 0 3.545 1.643 4.256 2.247a.295.295 0 0 1 .002.447c-.682.598-2.634 2.174-4.258 2.174-1.556 0-3.93-1.445-5.522-2.093zm-1.02 1.616c-.115-.275.157-.552.428-.435 1.609.696 4.414 1.419 5.412 2.431 1.045 1.06 1.361 3.704 1.442 4.641a.29.29 0 0 1-.31.317c-.9-.066-3.379-.35-4.527-1.515-1.1-1.115-1.771-3.84-2.445-5.44zm-1.848.412a.325.325 0 0 1 .606 0c.652 1.644 2.132 4.167 2.132 5.598 0 1.499-1.621 3.595-2.218 4.316a.286.286 0 0 1-.44.001c-.59-.691-2.145-2.67-2.145-4.317 0-1.577 1.426-3.985 2.065-5.598zm-1.594-1.034c.271-.117.544.16.429.434-.687 1.63-1.4 4.475-2.398 5.487-1.045 1.06-3.653 1.38-4.577 1.462a.29.29 0 0 1-.313-.314c.065-.912.346-3.426 1.495-4.59 1.1-1.116 3.787-1.796 5.364-2.48zm-.406-1.874a.333.333 0 0 1 0 .614c-1.622.661-4.11 2.162-5.522 2.162-1.478 0-3.545-1.644-4.256-2.248a.296.296 0 0 1-.002-.447c.682-.598 2.634-2.174 4.258-2.174 1.556 0 3.93 1.445 5.522 2.093zm1.02-1.616c.115.274-.158.552-.428.435-1.61-.696-4.414-1.42-5.413-2.431C5.015 8.374 4.7 5.73 4.62 4.793a.29.29 0 0 1 .31-.317c.9.066 3.379.35 4.527 1.515 1.1 1.115 1.771 3.84 2.444 5.439z"/>
</svg>
