<svg xmlns="http://www.w3.org/2000/svg" width="29" height="27" viewBox="0 0 29 27">
    <g fill="#C99700" fill-rule="nonzero" stroke="#C99700" stroke-width=".4">
        <path d="M8.095 1.69h9.933l1.642 2.072a.345.345 0 0 0 .541-.428L18.361 1H8.094a.344.344 0 1 0 0 .69z"/>
        <path d="M27.502 17.295a.322.322 0 0 0-.058-.085l-9.6-9.495-.214.397c-.468.861-1.347 2.039-1.799 2.039h-.013c-.38-.029-2.616-.57-3.376-.915 2.239-1.606 4.215-4.07 4.686-4.675h7.281l2.431 2.26a.34.34 0 0 0 .477-.013.331.331 0 0 0-.014-.472l-2.626-2.443H16.79l-.102.134c-.023.031-2.37 3.13-4.9 4.85-.168.114-.24.296-.189.476.218.766 4.142 1.461 4.18 1.464h.045c.846 0 1.745-1.29 2.176-2.002l8.967 8.866c.005.006.013.008.019.013.221.259.352.574.36.907.01.37-.125.712-.38.964-.256.253-.607.38-.976.378a1.48 1.48 0 0 1-.865-.314 2.095 2.095 0 0 0-.217-.262l-5.335-5.276-.478.472 4.808 4.753-.025.025.627.62c.027.028.06.046.088.072a1.408 1.408 0 0 1-.162 1.828 1.459 1.459 0 0 1-2.031.012c-.005-.004-.007-.01-.011-.014l-5.336-5.275-.477.471 3.78 3.74-.002.002 1.554 1.536.014.01a1.415 1.415 0 0 1-.01 2.011 1.46 1.46 0 0 1-2.047 0l-1.542-1.525a2.068 2.068 0 0 0-.277-.34l-2.542-2.512-.477.472 2.542 2.513a1.417 1.417 0 0 1 0 2.022 1.459 1.459 0 0 1-2.046 0l-2.036-2.012.349-.345c.315-.311.488-.725.488-1.165 0-.441-.173-.855-.488-1.167a1.661 1.661 0 0 0-1.106-.46l.731-.723c.405-.399.636-.922.655-1.47a1.935 1.935 0 0 0-.574-1.46c-.427-.424-1.052-.59-1.661-.52.063-.197.105-.401.105-.613 0-.538-.212-1.045-.597-1.425-.611-.604-1.58-.72-2.339-.366a1.99 1.99 0 0 0-.593-1.386c-.77-.762-2.114-.761-2.882 0l-1.663 1.644-2.337-2.31a.34.34 0 0 0-.477 0 .33.33 0 0 0 0 .472l2.337 2.31-.609.602a1.99 1.99 0 0 0-.597 1.425c0 .538.212 1.044.597 1.425a2.036 2.036 0 0 0 1.79.556c-.02.114-.034.228-.034.345 0 .538.212 1.044.597 1.424a2.035 2.035 0 0 0 1.855.549c-.121.637.05 1.305.531 1.78.37.366.87.567 1.407.567.292 0 .583-.063.854-.178-.042.469.11.953.473 1.31.315.311.734.483 1.18.483a1.67 1.67 0 0 0 1.18-.483l.352-.349 2.035 2.012c.401.397.933.615 1.5.615a2.12 2.12 0 0 0 1.5-.615c.381-.376.578-.862.608-1.356l.735.726c.4.397.933.615 1.5.615.566 0 1.1-.218 1.5-.615a2.082 2.082 0 0 0 .569-1.928 2.116 2.116 0 0 0 1.951-.564c.5-.494.692-1.175.588-1.817a1.985 1.985 0 0 0 1.933-.492c.74-.731.752-1.913.071-2.73zm-24.198-.328a1.33 1.33 0 0 1-.4-.953c0-.36.142-.698.4-.953l2.749-2.719c.258-.254.6-.395.964-.395s.706.141.964.395c.257.255.399.593.399.953 0 .214-.055.416-.15.602l-3.05 3.017a2.017 2.017 0 0 0-.2.242c-.522.305-1.237.245-1.676-.19zm2.353 2.326a1.332 1.332 0 0 1-.2-1.65 2.05 2.05 0 0 0 .253-.204l2.748-2.718c.126-.125.226-.267.314-.415l.213-.211c.258-.255.6-.395.964-.395s.706.14.964.395a1.332 1.332 0 0 1 .01 1.895 2.067 2.067 0 0 0-.343.271l-2.933 2.901c-.078.076-.14.16-.204.244-.526.388-1.314.354-1.786-.113zm2.386 2.328c-.461-.456-.494-1.187-.118-1.745.046-.038.095-.07.137-.111l3.294-3.257c.238-.143.508-.227.781-.227.357 0 .687.132.93.372.254.253.388.595.375.966a1.5 1.5 0 0 1-.456 1.021l-2.934 2.902c-.555.546-1.5.584-2.01.079zm4.138 1.7c-.375.37-1.03.369-1.404 0a.976.976 0 0 1 0-1.39l1.178-1.164a.993.993 0 0 1 .702-.288c.266 0 .515.102.702.288a.975.975 0 0 1 0 1.388l-1.178 1.165z"/>
    </g>
</svg>
