<svg xmlns="http://www.w3.org/2000/svg" width="28" height="28" viewBox="0 0 28 28">
    <path fill="none" fill-rule="evenodd" stroke="#C99700" stroke-width=".858" d="M20.396 4.826l.103.9s2.202.88 3.493 2.268c1.2 1.292 2.27 2.894 2.38 3.851.782-2.353 2.24-9.39-5.923-10.802-3.523-.405-5.998 1.98-4.281 9.22.69-3.15 3.56-4.206 3.56-4.206l-.13-1.14a.401.401 0 1 1 .798-.09zm-3.22 12.84l1.06 1.575a.552.552 0 0 0 .933-.589c-.762-1.284-2.234-4.858-2.369-6.036-.301-2.633 3.375-5.479 3.375-5.479s4.505 2.638 5.007 5.612c.405 2.397-1.506 4.822-2.262 5.673a.51.51 0 1 0 .768.673l1.46-1.694-.298 6.582s.025 2.341-2.866 2.51c-2.89.17-4.729-.348-4.993-2.662-.264-2.314.184-6.165.184-6.165zM8.643 6.062l-.253.87s-2.32.496-3.826 1.646c-1.402 1.071-2.726 2.469-2.996 3.394-.374-2.45-.624-9.634 7.66-9.648 3.54.195 5.579 2.963 2.666 9.81-.15-3.222-2.8-4.747-2.8-4.747l.32-1.1a.401.401 0 1 0-.771-.225zM9.652 19.26l-1.31 1.374a.552.552 0 0 1-.822-.738c.968-1.137 3.022-4.412 3.354-5.55.74-2.545-2.403-5.97-2.403-5.97s-4.885 1.84-5.881 4.687c-.803 2.294.67 5.007 1.273 5.973a.51.51 0 1 1-.871.534l-1.153-1.916-.817 6.538s-.42 2.304 2.401 2.958c2.821.654 4.72.454 5.37-1.782.652-2.237.86-6.108.86-6.108z"/>
</svg>
