<?xml version="1.0" encoding="UTF-8"?>
<svg width="27px" height="27px" viewBox="0 0 27 27" version="1.1" xmlns="http://www.w3.org/2000/svg" xmlns:xlink="http://www.w3.org/1999/xlink">
    <!-- Generator: sketchtool 51.1 (57501) - http://www.bohemiancoding.com/sketch -->
    <title>699E79EC-60E8-4F4B-911A-F459F7AAC262</title>
    <desc>Created with sketchtool.</desc>
    <defs></defs>
    <g id="Page-1" stroke="none" stroke-width="1" fill="none" fill-rule="evenodd">
        <g id="Icon-Lib" transform="translate(-257.000000, -320.000000)" stroke="#C99700">
            <g id="Product-Icons" transform="translate(31.000000, 263.000000)">
                <g id="Spa" transform="translate(226.000000, 57.000000)">
                    <path d="M13.7488006,11.0181799 C13.6392355,11.2949636 13.2525351,11.2958971 13.1429699,11.0186467 C12.4906432,9.37334762 11.011514,6.85148924 11.011514,5.41949563 C11.011514,3.92169005 12.6324333,1.82504229 13.2285965,1.10437797 C13.3432255,0.965286023 13.5517675,0.965752775 13.6686984,1.10251097 C14.2588769,1.79423669 15.8135047,3.77326307 15.8135047,5.41949563 C15.8135047,6.99664896 14.387777,9.40461997 13.7488006,11.0181799 Z M15.3430191,12.0520345 C15.0723288,12.1691891 14.798416,11.8924055 14.9139658,11.6179556 C15.6003591,9.98712585 16.3134531,7.14320893 17.3115084,6.13082492 C18.3565203,5.071299 20.9649067,4.75064072 21.8893049,4.66849246 C22.0670029,4.65308966 22.2147777,4.80245014 22.2018877,4.98308297 C22.1365169,5.89558216 21.8556988,8.40903901 20.7071065,9.57358401 C19.607312,10.6886534 16.9197441,11.3691771 15.3430191,12.0520345 Z M15.7490546,13.925575 C15.4760625,13.8144882 15.4751418,13.4228837 15.7481339,13.3113301 C17.3713549,12.6504099 19.8586673,11.1502706 21.2705842,11.1502706 C22.7483323,11.1502706 24.8162588,12.7937026 25.527051,13.3981458 C25.6642376,13.5148337 25.6637772,13.7262721 25.5288925,13.844827 C24.8466424,14.4432025 22.894726,16.0194223 21.2705842,16.0194223 C19.7154961,16.0194223 17.340511,14.5738929 15.7490546,13.925575 Z M14.7293624,15.5419355 C14.6138126,15.2674856 14.8863444,14.9902352 15.1570346,15.1069231 C16.7659846,15.8033163 19.5709438,16.5258477 20.5694595,17.5382317 C21.6144714,18.5977576 21.9302767,21.2423716 22.0112997,22.1791419 C22.0269518,22.3597747 21.879177,22.5091352 21.7010186,22.4960662 C20.8014798,22.4302542 18.3219935,22.1455358 17.1738615,20.9809908 C16.0740671,19.8659214 15.4028656,17.1410261 14.7293624,15.5419355 Z M12.8810264,15.9536103 C12.9905916,15.6768267 13.377292,15.6763599 13.4868571,15.9531436 C14.1391839,17.5984426 15.6187734,20.1207678 15.6187734,21.5522946 C15.6187734,23.0505669 13.9978541,25.1472147 13.4012306,25.867879 C13.2866015,26.0065042 13.0780595,26.0065042 12.9611287,25.8692793 C12.3709502,25.1775535 10.8163224,23.1989939 10.8163224,21.5522946 C10.8163224,19.9751413 12.24205,17.5671703 12.8810264,15.9536103 Z M11.2872683,14.9197557 C11.5579586,14.8026011 11.831411,15.0793848 11.7158612,15.3538346 C11.029468,16.9846644 10.3168343,19.8290481 9.3183186,20.8409653 C8.27330674,21.9004912 5.66492031,22.2211495 4.74052215,22.3032978 C4.5628241,22.3191673 4.41550965,22.1693401 4.42839966,21.9887073 C4.49331009,21.0766748 4.77412826,18.5627512 5.92272059,17.3982062 C7.02251501,16.2831369 9.71008296,15.6026132 11.2872683,14.9197557 Z M10.8807725,13.0462152 C11.1542249,13.1573021 11.1546853,13.5493733 10.8816932,13.6604602 C9.25893246,14.3213803 6.77115973,15.8215196 5.35924283,15.8215196 C3.88149478,15.8215196 1.81356822,14.1780876 1.10277602,13.5736444 C0.966049794,13.4569565 0.966049794,13.2455181 1.10093458,13.1269632 C1.78318462,12.5290545 3.73510105,10.9528347 5.35924283,10.9528347 C6.91479132,10.9528347 9.28931607,12.3983641 10.8807725,13.0462152 Z M11.9004646,11.4298547 C12.0160144,11.7043046 11.7434827,11.9820218 11.4727924,11.8648671 C9.86384241,11.1689407 7.05888326,10.4459426 6.06036753,9.43402531 C5.01535566,8.3744994 4.69955032,5.72988538 4.61852737,4.79264836 C4.60287521,4.61201552 4.75065002,4.46265504 4.92880843,4.47572409 C5.82834727,4.5420028 8.30783356,4.82625447 9.45642589,5.99079947 C10.5562203,7.10586881 11.2269614,9.83076409 11.9004646,11.4298547 Z" id="Stroke-1"></path>
                </g>
            </g>
        </g>
    </g>
</svg>