<svg xmlns="http://www.w3.org/2000/svg" width="16" height="17" viewBox="0 0 16 17">
    <path fill="#C99700" fill-rule="nonzero" d="M16 7.92h-.775V4.166c0-.9-.696-1.631-1.551-1.631h-1.05L11.548.503A.924.924 0 0 0 10.735 0a.898.898 0 0 0-.452.123L6.158 2.536H1.551C.696 2.536 0 3.268 0 4.167V15.37C0 16.269.696 17 1.55 17h12.124c.855 0 1.55-.732 1.55-1.631v-3.29H16v-4.16zm-2.326-4.731c.477 0 .868.381.92.87h-1.166l-.46-.87h.706zM10.584.694a.308.308 0 0 1 .422.126l1.713 3.238H4.832L10.585.694zm4.02 14.675c0 .54-.417.979-.93.979H1.55c-.513 0-.93-.44-.93-.98v-11.2c0-.54.417-.98.93-.98h3.492l-1.488.87h-1.81a.318.318 0 0 0-.31.327c0 .18.138.326.31.326h12.859V7.92h-2.268c-1.054 0-1.91.901-1.91 2.01v.14c0 1.108.857 2.01 1.91 2.01h2.268v3.289zm.776-3.942h-3.045c-.71 0-1.29-.61-1.29-1.358v-.14c0-.748.58-1.357 1.29-1.357h3.045v2.855zm-2.094-1.401c0 .398-.307.72-.685.72-.378 0-.685-.322-.685-.72 0-.398.307-.72.685-.72.378 0 .685.322.685.72z"/>
</svg>
