<?xml version="1.0" encoding="UTF-8"?>
<svg width="18px" height="18px" viewBox="0 0 18 18" version="1.1" xmlns="http://www.w3.org/2000/svg" xmlns:xlink="http://www.w3.org/1999/xlink">
    <!-- Generator: sketchtool 51.1 (57501) - http://www.bohemiancoding.com/sketch -->
    <title>20482656-D0B8-4FA8-BEDC-7613E2603F4D</title>
    <desc>Created with sketchtool.</desc>
    <defs></defs>
    <g id="Page-1" stroke="none" stroke-width="1" fill="none" fill-rule="evenodd">
        <g id="Icon-Lib" transform="translate(-561.000000, -642.000000)" fill-rule="nonzero" stroke="#000000">
            <g id="Supporting-icons" transform="translate(21.000000, 400.000000)">
                <g id="Contact-Us" transform="translate(540.000000, 242.000000)">
                    <path d="M4.43313819,9.56012149 L0.626278325,13.3673931 C0.545419773,13.448263 0.5,13.5579093 0.5,13.672248 C0.5,13.786585 0.545400399,13.8962136 0.626220638,13.9770452 C0.94431473,14.2951919 0.94431473,14.2951919 1.8986053,15.2496324 L1.89862944,15.2496566 C2.83900027,16.1901672 2.83900027,16.1901672 3.17061572,16.5217984 C3.80770539,17.158924 4.71871204,17.5 5.82128346,17.5 C8.13308121,17.5 11.1113282,15.9912705 13.5502266,13.5519689 C15.3025337,11.7995355 16.5867016,9.77784286 17.165853,7.87153083 C17.7819741,5.84340765 17.5362913,4.18767443 16.5190703,3.17036448 L13.9752766,0.626212636 C13.8070123,0.457924679 13.5341691,0.457933564 13.3659108,0.626215517 L9.55748432,4.43511607 C9.47664503,4.51596674 9.431206,4.62566706 9.431206,4.73997096 C9.431206,4.85425142 9.47662846,4.96389653 9.55749013,5.04476958 L11.8003702,7.28803906 L7.28557227,11.8034725 L6.931994,11.4498445 L5.04254919,9.56013369 C4.87425143,9.39184097 4.60142375,9.39184097 4.43312598,9.56013369 L4.43313819,9.56012148 Z" id="XMLID_452_" transform="translate(9.000000, 9.000000) scale(-1, 1) translate(-9.000000, -9.000000) "></path>
                </g>
            </g>
        </g>
    </g>
</svg>